AsbirSansItalic-ItalicTextBlack.ufo
<glyph name="exclam" format="2">
  <advance width="778"/>
  <unicode hex="0021"/>
  <outline>
    <contour>
      <point x="192" y="466" type="line"/>
      <point x="556" y="466" type="line"/>
      <point x="756" y="1490" type="line"/>
      <point x="332" y="1490" type="line"/>
    </contour>
    <contour>
      <point x="306" y="-24" type="curve" smooth="yes"/>
      <point x="413" y="-24"/>
      <point x="504" y="50"/>
      <point x="521" y="153" type="curve" smooth="yes"/>
      <point x="542" y="282"/>
      <point x="459" y="382"/>
      <point x="332" y="382" type="curve" smooth="yes"/>
      <point x="225" y="382"/>
      <point x="134" y="308"/>
      <point x="117" y="205" type="curve" smooth="yes"/>
      <point x="96" y="76"/>
      <point x="179" y="-24"/>
    </contour>
  </outline>
</glyph>
<glyph name="numbersign" format="2">
  <advance width="1356"/>
  <unicode hex="0023"/>
  <outline>
    <contour>
      <point x="690" y="0" type="line"/>
      <point x="980" y="0" type="line"/>
      <point x="1250" y="1490" type="line"/>
      <point x="960" y="1490" type="line"/>
    </contour>
    <contour>
      <point x="34" y="340" type="line"/>
      <point x="1234" y="340" type="line"/>
      <point x="1288" y="632" type="line"/>
      <point x="90" y="632" type="line"/>
    </contour>
    <contour>
      <point x="166" y="0" type="line"/>
      <point x="456" y="0" type="line"/>
      <point x="728" y="1490" type="line"/>
      <point x="436" y="1490" type="line"/>
    </contour>
    <contour>
      <point x="130" y="858" type="line"/>
      <point x="1328" y="858" type="line"/>
      <point x="1382" y="1150" type="line"/>
      <point x="184" y="1150" type="line"/>
    </contour>
  </outline>
</glyph>
<glyph name="dollar" format="2">
  <advance width="1364"/>
  <unicode hex="0024"/>
  <anchor x="597" y="0" name="bottom"/>
  <anchor x="593" y="0" name="cedilla"/>
  <anchor x="838" y="1490" name="top"/>
  <outline>
    <contour>
      <point x="516" y="-186" type="line"/>
      <point x="636" y="-186" type="line"/>
      <point x="944" y="1676" type="line"/>
      <point x="824" y="1676" type="line"/>
    </contour>
    <component base="S"/>
  </outline>
</glyph>
<glyph name="ampersand" format="2">
  <advance width="1419"/>
  <unicode hex="0026"/>
  <outline>
    <contour>
      <point x="503" y="-24" type="curve" smooth="yes"/>
      <point x="617" y="-24"/>
      <point x="762" y="4"/>
      <point x="894" y="81" type="curve"/>
      <point x="1016" y="132" type="line"/>
      <point x="1230" y="268"/>
      <point x="1339" y="510"/>
      <point x="1381" y="776" type="curve"/>
      <point x="1063" y="776" type="line"/>
      <point x="1019" y="522"/>
      <point x="753" y="290"/>
      <point x="538" y="290" type="curve" smooth="yes"/>
      <point x="461" y="290"/>
      <point x="418" y="327"/>
      <point x="418" y="392" type="curve" smooth="yes"/>
      <point x="418" y="454"/>
      <point x="455" y="501"/>
      <point x="542" y="556" type="curve" smooth="yes"/>
      <point x="889" y="774" type="line" smooth="yes"/>
      <point x="1030" y="863"/>
      <point x="1108" y="976"/>
      <point x="1130" y="1108" type="curve" smooth="yes"/>
      <point x="1167" y="1328"/>
      <point x="1032" y="1512"/>
      <point x="771" y="1512" type="curve" smooth="yes"/>
      <point x="520" y="1512"/>
      <point x="328" y="1340"/>
      <point x="293" y="1126" type="curve" smooth="yes"/>
      <point x="257" y="909"/>
      <point x="379" y="746"/>
      <point x="452" y="650" type="curve" smooth="yes"/>
      <point x="945" y="0" type="line"/>
      <point x="1338" y="0" type="line"/>
      <point x="739" y="784" type="line" smooth="yes"/>
      <point x="629" y="928"/>
      <point x="593" y="1004"/>
      <point x="593" y="1068" type="curve" smooth="yes"/>
      <point x="593" y="1153"/>
      <point x="657" y="1196"/>
      <point x="731" y="1196" type="curve" smooth="yes"/>
      <point x="796" y="1196"/>
      <point x="838" y="1163"/>
      <point x="838" y="1115" type="curve" smooth="yes"/>
      <point x="838" y="1071"/>
      <point x="803" y="1033"/>
      <point x="716" y="985" type="curve" smooth="yes"/>
      <point x="341" y="776" type="line"/>
      <point x="173" y="671"/>
      <point x="64" y="576"/>
      <point x="38" y="422" type="curve" smooth="yes"/>
      <point x="-2" y="178"/>
      <point x="171" y="-24"/>
    </contour>
  </outline>
</glyph>
<glyph name="quotesingle" format="2">
  <advance width="762"/>
  <unicode hex="0027"/>
  <outline>
    <contour>
      <point x="277" y="824" type="line"/>
      <point x="573" y="824" type="line"/>
      <point x="720" y="1490" type="line"/>
      <point x="350" y="1490" type="line"/>
    </contour>
  </outline>
</glyph>
<glyph name="parenleft" format="2">
  <advance width="794"/>
  <unicode hex="0028"/>
  <outline>
    <contour>
      <point x="136" y="607" type="curve" smooth="yes"/>
      <point x="85" y="301"/>
      <point x="123" y="-6"/>
      <point x="247" y="-279" type="curve"/>
      <point x="613" y="-279" type="line"/>
      <point x="521" y="112"/>
      <point x="503" y="347"/>
      <point x="546" y="607" type="curve" smooth="yes"/>
      <point x="597" y="914"/>
      <point x="735" y="1274"/>
      <point x="921" y="1581" type="curve"/>
      <point x="555" y="1581" type="line"/>
      <point x="364" y="1344"/>
      <point x="191" y="942"/>
    </contour>
  </outline>
</glyph>
<glyph name="parenright" format="2">
  <advance width="778"/>
  <unicode hex="0029"/>
  <outline>
    <contour>
      <point x="-99" y="-294" type="curve"/>
      <point x="283" y="-294" type="line"/>
      <point x="472" y="-43"/>
      <point x="601" y="264"/>
      <point x="655" y="592" type="curve" smooth="yes"/>
      <point x="715" y="951"/>
      <point x="689" y="1344"/>
      <point x="591" y="1566" type="curve"/>
      <point x="209" y="1566" type="line"/>
      <point x="276" y="1292"/>
      <point x="307" y="930"/>
      <point x="251" y="592" type="curve" smooth="yes"/>
      <point x="202" y="296"/>
      <point x="86" y="45"/>
    </contour>
  </outline>
</glyph>
<glyph name="asterisk" format="2">
  <advance width="1246"/>
  <unicode hex="002A"/>
  <outline>
    <contour>
      <point x="520" y="652" type="line"/>
      <point x="754" y="652" type="line"/>
      <point x="774" y="908" type="line"/>
      <point x="960" y="760" type="line"/>
      <point x="1112" y="962" type="line"/>
      <point x="896" y="1070" type="line"/>
      <point x="1146" y="1178" type="line"/>
      <point x="1064" y="1382" type="line"/>
      <point x="826" y="1234" type="line"/>
      <point x="894" y="1490" type="line"/>
      <point x="660" y="1490" type="line"/>
      <point x="640" y="1234" type="line"/>
      <point x="454" y="1382" type="line"/>
      <point x="302" y="1178" type="line"/>
      <point x="518" y="1070" type="line"/>
      <point x="268" y="962" type="line"/>
      <point x="350" y="760" type="line"/>
      <point x="588" y="908" type="line"/>
    </contour>
  </outline>
</glyph>
<glyph name="plus" format="2">
  <advance width="1420"/>
  <unicode hex="002B"/>
  <outline>
    <contour>
      <point x="466" y="66" type="line"/>
      <point x="792" y="66" type="line"/>
      <point x="970" y="1144" type="line"/>
      <point x="644" y="1144" type="line"/>
    </contour>
    <contour>
      <point x="153" y="442" type="line"/>
      <point x="1229" y="442" type="line"/>
      <point x="1283" y="768" type="line"/>
      <point x="207" y="768" type="line"/>
    </contour>
  </outline>
</glyph>
<glyph name="hyphen" format="2">
  <advance width="972"/>
  <unicode hex="002D"/>
  <outline>
    <contour>
      <point x="866" y="744" type="line"/>
      <point x="168" y="744" type="line"/>
      <point x="118" y="442" type="line"/>
      <point x="816" y="442" type="line"/>
    </contour>
  </outline>
</glyph>
<glyph name="slash" format="2">
  <advance width="844"/>
  <unicode hex="002F"/>
  <outline>
    <contour>
      <point x="998" y="1560" type="line"/>
      <point x="658" y="1560" type="line"/>
      <point x="-116" y="-224" type="line"/>
      <point x="224" y="-224" type="line"/>
    </contour>
  </outline>
</glyph>
<glyph name="zero" format="2">
  <advance width="1456"/>
  <unicode hex="0030"/>
  <anchor x="759" y="745" name="center"/>
  <anchor x="883" y="1490" name="top"/>
  <outline>
    <contour>
      <point x="633" y="-20" type="curve" smooth="yes"/>
      <point x="1048" y="-20"/>
      <point x="1338" y="263"/>
      <point x="1417" y="744" type="curve" smooth="yes"/>
      <point x="1497" y="1225"/>
      <point x="1300" y="1510"/>
      <point x="886" y="1510" type="curve" smooth="yes"/>
      <point x="472" y="1510"/>
      <point x="181" y="1226"/>
      <point x="101" y="744" type="curve" smooth="yes"/>
      <point x="22" y="263"/>
      <point x="219" y="-20"/>
    </contour>
    <contour>
      <point x="687" y="308" type="curve" smooth="yes"/>
      <point x="532" y="308"/>
      <point x="474" y="461"/>
      <point x="521" y="744" type="curve" smooth="yes"/>
      <point x="568" y="1027"/>
      <point x="679" y="1184"/>
      <point x="832" y="1184" type="curve" smooth="yes"/>
      <point x="986" y="1184"/>
      <point x="1044" y="1028"/>
      <point x="997" y="744" type="curve" smooth="yes"/>
      <point x="950" y="461"/>
      <point x="841" y="308"/>
    </contour>
  </outline>
</glyph>
<glyph name="one" format="2">
  <advance width="904"/>
  <unicode hex="0031"/>
  <outline>
    <contour>
      <point x="404.0" y="0" type="line"/>
      <point x="808.0" y="0" type="line"/>
      <point x="1076.2" y="1490" type="line"/>
      <point x="734.2" y="1490" type="line"/>
      <point x="663.66" y="1337"/>
      <point x="505.03999999999996" y="1228"/>
      <point x="333.03999999999996" y="1228" type="curve" smooth="yes"/>
      <point x="315.03999999999996" y="1228" type="line"/>
      <point x="257.79999999999995" y="910" type="line"/>
      <point x="372.79999999999995" y="910"/>
      <point x="523.74" y="943"/>
      <point x="615.46" y="1047" type="curve"/>
      <point x="594.98" y="1061" type="line"/>
    </contour>
  </outline>
</glyph>
<glyph name="two" format="2">
  <advance width="1325"/>
  <unicode hex="0032"/>
  <anchor x="801" y="673" name="cross"/>
  <anchor x="817" y="1490" name="top"/>
  <outline>
    <contour>
      <point x="6" y="0" type="line"/>
      <point x="1150" y="0" type="line"/>
      <point x="1203" y="322" type="line"/>
      <point x="637" y="322" type="line"/>
      <point x="639" y="332" type="line"/>
      <point x="798" y="448" type="line" smooth="yes"/>
      <point x="1185" y="730"/>
      <point x="1279" y="878"/>
      <point x="1308" y="1050" type="curve" smooth="yes"/>
      <point x="1354" y="1328"/>
      <point x="1133" y="1510"/>
      <point x="776" y="1510" type="curve" smooth="yes"/>
      <point x="429" y="1510"/>
      <point x="196" y="1317"/>
      <point x="144" y="1004" type="curve"/>
      <point x="528" y="1004" type="line"/>
      <point x="549" y="1129"/>
      <point x="643" y="1198"/>
      <point x="756" y="1198" type="curve" smooth="yes"/>
      <point x="867" y="1198"/>
      <point x="935" y="1137"/>
      <point x="916" y="1024" type="curve" smooth="yes"/>
      <point x="899" y="918"/>
      <point x="811" y="841"/>
      <point x="686" y="750" type="curve" smooth="yes"/>
      <point x="54" y="290" type="line"/>
    </contour>
  </outline>
</glyph>
<glyph name="three" format="2">
  <advance width="1371"/>
  <unicode hex="0033"/>
  <anchor x="843" y="1490" name="top"/>
  <outline>
    <contour>
      <point x="593" y="-20" type="curve" smooth="yes"/>
      <point x="958" y="-20"/>
      <point x="1235" y="165"/>
      <point x="1279" y="428" type="curve" smooth="yes"/>
      <point x="1309" y="610"/>
      <point x="1210" y="739"/>
      <point x="975" y="766" type="curve"/>
      <point x="976" y="776" type="line"/>
      <point x="1157" y="796"/>
      <point x="1305" y="910"/>
      <point x="1332" y="1076" type="curve" smooth="yes"/>
      <point x="1374" y="1327"/>
      <point x="1164" y="1510"/>
      <point x="834" y="1510" type="curve" smooth="yes"/>
      <point x="496" y="1510"/>
      <point x="230" y="1317"/>
      <point x="185" y="1044" type="curve"/>
      <point x="573" y="1044" type="line"/>
      <point x="588" y="1135"/>
      <point x="678" y="1198"/>
      <point x="790" y="1198" type="curve" smooth="yes"/>
      <point x="891" y="1198"/>
      <point x="952" y="1137"/>
      <point x="938" y="1050" type="curve" smooth="yes"/>
      <point x="923" y="960"/>
      <point x="828" y="896"/>
      <point x="708" y="896" type="curve" smooth="yes"/>
      <point x="556" y="896" type="line"/>
      <point x="510" y="616" type="line"/>
      <point x="662" y="616" type="line" smooth="yes"/>
      <point x="793" y="616"/>
      <point x="872" y="553"/>
      <point x="856" y="462" type="curve" smooth="yes"/>
      <point x="841" y="370"/>
      <point x="755" y="306"/>
      <point x="643" y="306" type="curve" smooth="yes"/>
      <point x="526" y="306"/>
      <point x="451" y="367"/>
      <point x="465" y="454" type="curve"/>
      <point x="59" y="454" type="line"/>
      <point x="13" y="176"/>
      <point x="241" y="-20"/>
    </contour>
  </outline>
</glyph>
<glyph name="four" format="2">
  <advance width="1438"/>
  <unicode hex="0034"/>
  <outline>
    <contour>
      <point x="125.75999999999999" y="232" type="line"/>
      <point x="1409.76" y="232" type="line"/>
      <point x="1466.28" y="546" type="line"/>
      <point x="580.28" y="546" type="line"/>
      <point x="582.44" y="558" type="line"/>
      <point x="1268.2" y="1490" type="line"/>
      <point x="882.2" y="1490" type="line"/>
      <point x="182.28" y="546" type="line"/>
    </contour>
    <contour>
      <point x="808.0" y="0" type="line"/>
      <point x="1186.0" y="0" type="line"/>
      <point x="1353.4" y="930" type="line"/>
      <point x="991.4" y="930" type="line"/>
      <point x="907.88" y="466" type="line"/>
      <point x="866.68" y="326" type="line"/>
    </contour>
  </outline>
</glyph>
<glyph name="five" format="2">
  <advance width="1325"/>
  <unicode hex="0035"/>
  <outline>
    <contour>
      <point x="577" y="-20" type="curve" smooth="yes"/>
      <point x="939" y="-20"/>
      <point x="1195" y="200"/>
      <point x="1247" y="512" type="curve" smooth="yes"/>
      <point x="1294" y="795"/>
      <point x="1114" y="994"/>
      <point x="849" y="994" type="curve" smooth="yes"/>
      <point x="698" y="994"/>
      <point x="581" y="928"/>
      <point x="519" y="838" type="curve"/>
      <point x="511" y="838" type="line"/>
      <point x="593" y="1166" type="line"/>
      <point x="1263" y="1166" type="line"/>
      <point x="1317" y="1490" type="line"/>
      <point x="315" y="1490" type="line"/>
      <point x="121" y="670" type="line"/>
      <point x="465" y="600" type="line"/>
      <point x="511" y="672"/>
      <point x="604" y="716"/>
      <point x="691" y="716" type="curve" smooth="yes"/>
      <point x="814" y="716"/>
      <point x="876" y="631"/>
      <point x="855" y="500" type="curve" smooth="yes"/>
      <point x="833" y="370"/>
      <point x="726" y="286"/>
      <point x="603" y="286" type="curve" smooth="yes"/>
      <point x="495" y="286"/>
      <point x="424" y="351"/>
      <point x="441" y="454" type="curve"/>
      <point x="47" y="454" type="line"/>
      <point x="4" y="176"/>
      <point x="233" y="-20"/>
    </contour>
  </outline>
</glyph>
<glyph name="six" format="2">
  <advance width="1382"/>
  <unicode hex="0036"/>
  <outline>
    <contour>
      <point x="644" y="-20" type="curve" smooth="yes"/>
      <point x="995" y="-20"/>
      <point x="1251" y="191"/>
      <point x="1304" y="512" type="curve" smooth="yes"/>
      <point x="1349" y="785"/>
      <point x="1177" y="984"/>
      <point x="906" y="984" type="curve" smooth="yes"/>
      <point x="737" y="984"/>
      <point x="593" y="902"/>
      <point x="514" y="766" type="curve"/>
      <point x="506" y="766" type="line"/>
      <point x="546" y="1006"/>
      <point x="656" y="1166"/>
      <point x="826" y="1166" type="curve" smooth="yes"/>
      <point x="911" y="1166"/>
      <point x="972" y="1129"/>
      <point x="976" y="1044" type="curve"/>
      <point x="1374" y="1044" type="line"/>
      <point x="1391" y="1299"/>
      <point x="1180" y="1510"/>
      <point x="851" y="1510" type="curve" smooth="yes"/>
      <point x="461" y="1510"/>
      <point x="177" y="1210"/>
      <point x="98" y="728" type="curve" smooth="yes"/>
      <point x="8" y="186"/>
      <point x="296" y="-20"/>
    </contour>
    <contour>
      <point x="658" y="286" type="curve" smooth="yes"/>
      <point x="541" y="286"/>
      <point x="475" y="375"/>
      <point x="495" y="498" type="curve" smooth="yes"/>
      <point x="516" y="622"/>
      <point x="620" y="710"/>
      <point x="745" y="710" type="curve" smooth="yes"/>
      <point x="866" y="710"/>
      <point x="930" y="620"/>
      <point x="909" y="498" type="curve" smooth="yes"/>
      <point x="889" y="375"/>
      <point x="779" y="286"/>
    </contour>
  </outline>
</glyph>
<glyph name="seven" format="2">
  <advance width="1218"/>
  <unicode hex="0037"/>
  <outline>
    <contour>
      <point x="57" y="0" type="line"/>
      <point x="481" y="0" type="line"/>
      <point x="1262" y="1166" type="line"/>
      <point x="1316" y="1490" type="line"/>
      <point x="210" y="1490" type="line"/>
      <point x="156" y="1166" type="line"/>
      <point x="834" y="1166" type="line"/>
      <point x="833" y="1158" type="line"/>
    </contour>
  </outline>
</glyph>
<glyph name="eight" format="2">
  <advance width="1390"/>
  <unicode hex="0038"/>
  <outline>
    <contour>
      <point x="622" y="-20" type="curve" smooth="yes"/>
      <point x="984" y="-20"/>
      <point x="1254" y="163"/>
      <point x="1294" y="404" type="curve" smooth="yes"/>
      <point x="1324" y="588"/>
      <point x="1194" y="736"/>
      <point x="1008" y="766" type="curve"/>
      <point x="1009" y="776" type="line"/>
      <point x="1181" y="806"/>
      <point x="1328" y="939"/>
      <point x="1356" y="1106" type="curve" smooth="yes"/>
      <point x="1395" y="1338"/>
      <point x="1157" y="1510"/>
      <point x="827" y="1510" type="curve" smooth="yes"/>
      <point x="499" y="1510"/>
      <point x="253" y="1339"/>
      <point x="214" y="1106" type="curve" smooth="yes"/>
      <point x="187" y="940"/>
      <point x="286" y="806"/>
      <point x="451" y="776" type="curve"/>
      <point x="450" y="766" type="line"/>
      <point x="250" y="736"/>
      <point x="74" y="588"/>
      <point x="44" y="404" type="curve" smooth="yes"/>
      <point x="4" y="163"/>
      <point x="262" y="-20"/>
    </contour>
    <contour>
      <point x="644" y="258" type="curve" smooth="yes"/>
      <point x="531" y="258"/>
      <point x="461" y="336"/>
      <point x="478" y="440" type="curve" smooth="yes"/>
      <point x="495" y="543"/>
      <point x="590" y="616"/>
      <point x="703" y="616" type="curve" smooth="yes"/>
      <point x="818" y="616"/>
      <point x="889" y="542"/>
      <point x="872" y="440" type="curve" smooth="yes"/>
      <point x="854" y="335"/>
      <point x="759" y="258"/>
    </contour>
    <contour>
      <point x="749" y="896" type="curve" smooth="yes"/>
      <point x="649" y="896"/>
      <point x="587" y="966"/>
      <point x="602" y="1058" type="curve" smooth="yes"/>
      <point x="618" y="1152"/>
      <point x="703" y="1218"/>
      <point x="803" y="1218" type="curve" smooth="yes"/>
      <point x="905" y="1218"/>
      <point x="968" y="1151"/>
      <point x="952" y="1058" type="curve" smooth="yes"/>
      <point x="937" y="965"/>
      <point x="851" y="896"/>
    </contour>
  </outline>
</glyph>
<glyph name="nine" format="2">
  <advance width="1381"/>
  <unicode hex="0039"/>
  <outline>
    <contour>
      <point x="615" y="-24" type="curve" smooth="yes"/>
      <point x="1005" y="-24"/>
      <point x="1265" y="280"/>
      <point x="1345" y="762" type="curve" smooth="yes"/>
      <point x="1435" y="1304"/>
      <point x="1156" y="1514"/>
      <point x="808" y="1514" type="curve" smooth="yes"/>
      <point x="457" y="1514"/>
      <point x="192" y="1299"/>
      <point x="139" y="978" type="curve" smooth="yes"/>
      <point x="94" y="705"/>
      <point x="242" y="506"/>
      <point x="513" y="506" type="curve" smooth="yes"/>
      <point x="682" y="506"/>
      <point x="849" y="588"/>
      <point x="929" y="724" type="curve"/>
      <point x="937" y="724" type="line"/>
      <point x="897" y="484"/>
      <point x="794" y="320"/>
      <point x="624" y="320" type="curve" smooth="yes"/>
      <point x="539" y="320"/>
      <point x="471" y="361"/>
      <point x="467" y="446" type="curve"/>
      <point x="69" y="446" type="line"/>
      <point x="52" y="191"/>
      <point x="286" y="-24"/>
    </contour>
    <contour>
      <point x="706" y="780" type="curve" smooth="yes"/>
      <point x="586" y="780"/>
      <point x="513" y="869"/>
      <point x="533" y="992" type="curve" smooth="yes"/>
      <point x="553" y="1114"/>
      <point x="657" y="1204"/>
      <point x="776" y="1204" type="curve" smooth="yes"/>
      <point x="895" y="1204"/>
      <point x="967" y="1114"/>
      <point x="947" y="992" type="curve" smooth="yes"/>
      <point x="927" y="870"/>
      <point x="825" y="780"/>
    </contour>
  </outline>
</glyph>
<glyph name="less" format="2">
  <advance width="1420"/>
  <unicode hex="003C"/>
  <outline>
    <contour>
      <point x="139" y="430" type="line"/>
      <point x="1149" y="-2" type="line"/>
      <point x="1209" y="364" type="line"/>
      <point x="559" y="602" type="line"/>
      <point x="567" y="584" type="line"/>
      <point x="575" y="626" type="line"/>
      <point x="561" y="608" type="line"/>
      <point x="1289" y="846" type="line"/>
      <point x="1349" y="1214" type="line"/>
      <point x="197" y="780" type="line"/>
    </contour>
  </outline>
</glyph>
<glyph name="equal" format="2">
  <advance width="1420"/>
  <unicode hex="003D"/>
  <outline>
    <contour>
      <point x="194" y="702" type="line"/>
      <point x="1272" y="702" type="line"/>
      <point x="1326" y="1026" type="line"/>
      <point x="250" y="1026" type="line"/>
    </contour>
    <contour>
      <point x="110" y="184" type="line"/>
      <point x="1186" y="184" type="line"/>
      <point x="1240" y="510" type="line"/>
      <point x="162" y="510" type="line"/>
    </contour>
  </outline>
</glyph>
<glyph name="greater" format="2">
  <advance width="1420"/>
  <unicode hex="003E"/>
  <outline>
    <contour>
      <point x="1239" y="430" type="line"/>
      <point x="1297" y="780" type="line"/>
      <point x="285" y="1214" type="line"/>
      <point x="225" y="846" type="line"/>
      <point x="875" y="608" type="line"/>
      <point x="867" y="626" type="line"/>
      <point x="859" y="584" type="line"/>
      <point x="873" y="602" type="line"/>
      <point x="145" y="364" type="line"/>
      <point x="85" y="-2" type="line"/>
    </contour>
  </outline>
</glyph>
<glyph name="question" format="2">
  <advance width="1229"/>
  <unicode hex="003F"/>
  <outline>
    <contour>
      <point x="380" y="466" type="line"/>
      <point x="722" y="466" type="line"/>
      <point x="728" y="500" type="line" smooth="yes"/>
      <point x="748" y="616"/>
      <point x="812" y="674"/>
      <point x="927" y="736" type="curve" smooth="yes"/>
      <point x="1084" y="819"/>
      <point x="1198" y="923"/>
      <point x="1227" y="1100" type="curve" smooth="yes"/>
      <point x="1272" y="1373"/>
      <point x="1028" y="1510"/>
      <point x="717" y="1510" type="curve" smooth="yes"/>
      <point x="434" y="1510"/>
      <point x="211" y="1376"/>
      <point x="158" y="1056" type="curve"/>
      <point x="530" y="1056" type="line"/>
      <point x="544" y="1140"/>
      <point x="620" y="1198"/>
      <point x="699" y="1198" type="curve" smooth="yes"/>
      <point x="771" y="1198"/>
      <point x="821" y="1149"/>
      <point x="809" y="1076" type="curve" smooth="yes"/>
      <point x="796" y="995"/>
      <point x="717" y="945"/>
      <point x="615" y="884" type="curve" smooth="yes"/>
      <point x="495" y="814"/>
      <point x="428" y="740"/>
      <point x="386" y="500" type="curve" smooth="yes"/>
    </contour>
    <contour>
      <point x="470" y="-24" type="curve" smooth="yes"/>
      <point x="600" y="-24"/>
      <point x="697" y="52"/>
      <point x="717" y="175" type="curve" smooth="yes"/>
      <point x="737" y="298"/>
      <point x="666" y="374"/>
      <point x="536" y="374" type="curve" smooth="yes"/>
      <point x="406" y="374"/>
      <point x="309" y="298"/>
      <point x="289" y="175" type="curve" smooth="yes"/>
      <point x="269" y="52"/>
      <point x="340" y="-24"/>
    </contour>
  </outline>
</glyph>
<glyph name="at" format="2">
  <advance width="2168"/>
  <unicode hex="0040"/>
  <outline>
    <contour>
      <point x="935" y="-450" type="curve" smooth="yes"/>
      <point x="1188" y="-450"/>
      <point x="1369" y="-393"/>
      <point x="1486" y="-336" type="curve"/>
      <point x="1420" y="-71" type="line"/>
      <point x="1309" y="-118"/>
      <point x="1156" y="-148"/>
      <point x="989" y="-148" type="curve" smooth="yes"/>
      <point x="520" y="-148"/>
      <point x="318" y="88"/>
      <point x="391" y="530" type="curve" smooth="yes"/>
      <point x="463" y="962"/>
      <point x="751" y="1220"/>
      <point x="1236" y="1220" type="curve" smooth="yes"/>
      <point x="1671" y="1220"/>
      <point x="1859" y="1013"/>
      <point x="1786" y="572" type="curve" smooth="yes"/>
      <point x="1753" y="369"/>
      <point x="1688" y="273"/>
      <point x="1578" y="273" type="curve" smooth="yes"/>
      <point x="1536" y="273"/>
      <point x="1526" y="287"/>
      <point x="1535" y="339" type="curve" smooth="yes"/>
      <point x="1648" y="1027" type="line"/>
      <point x="1400" y="1027" type="line"/>
      <point x="1381" y="909" type="line"/>
      <point x="1370" y="909" type="line"/>
      <point x="1343" y="1001"/>
      <point x="1243" y="1049"/>
      <point x="1110" y="1049" type="curve" smooth="yes"/>
      <point x="835" y="1049"/>
      <point x="622" y="842"/>
      <point x="569" y="524" type="curve" smooth="yes"/>
      <point x="518" y="212"/>
      <point x="666" y="22"/>
      <point x="946" y="22" type="curve" smooth="yes"/>
      <point x="1108" y="22"/>
      <point x="1238" y="85"/>
      <point x="1294" y="197" type="curve"/>
      <point x="1302" y="197" type="line"/>
      <point x="1303" y="88"/>
      <point x="1384" y="30"/>
      <point x="1537" y="30" type="curve" smooth="yes"/>
      <point x="1826" y="30"/>
      <point x="2045" y="236"/>
      <point x="2107" y="611" type="curve" smooth="yes"/>
      <point x="2200" y="1173"/>
      <point x="1827" y="1520"/>
      <point x="1224" y="1520" type="curve" smooth="yes"/>
      <point x="556" y="1520"/>
      <point x="159" y="1094"/>
      <point x="63" y="514" type="curve" smooth="yes"/>
      <point x="-38" y="-96"/>
      <point x="306" y="-450"/>
    </contour>
    <contour>
      <point x="1021" y="286" type="curve" smooth="yes"/>
      <point x="880" y="286"/>
      <point x="823" y="374"/>
      <point x="849" y="526" type="curve" smooth="yes"/>
      <point x="874" y="677"/>
      <point x="974" y="757"/>
      <point x="1115" y="757" type="curve" smooth="yes"/>
      <point x="1256" y="757"/>
      <point x="1313" y="676"/>
      <point x="1288" y="525" type="curve" smooth="yes"/>
      <point x="1263" y="374"/>
      <point x="1161" y="286"/>
    </contour>
  </outline>
</glyph>
<glyph name="A" format="2">
  <advance width="1628"/>
  <unicode hex="0041"/>
  <anchor x="717" y="0" name="bottom"/>
  <anchor x="1489" y="0" name="ogonek"/>
  <anchor x="630" y="1490" name="tonos"/>
  <anchor x="964" y="1490" name="top"/>
  <outline>
    <contour>
      <point x="-47" y="0" type="line"/>
      <point x="421" y="0" type="line"/>
      <point x="682" y="578" type="line" smooth="yes"/>
      <point x="795" y="829"/>
      <point x="895" y="1104"/>
      <point x="995" y="1371" type="curve"/>
      <point x="903" y="1371" type="line"/>
      <point x="918" y="1104"/>
      <point x="937" y="829"/>
      <point x="970" y="578" type="curve" smooth="yes"/>
      <point x="1047" y="0" type="line"/>
      <point x="1489" y="0" type="line"/>
      <point x="1235" y="1490" type="line"/>
      <point x="683" y="1490" type="line"/>
    </contour>
    <contour>
      <point x="358" y="286" type="line"/>
      <point x="1178" y="286" type="line"/>
      <point x="1228" y="588" type="line"/>
      <point x="408" y="588" type="line"/>
    </contour>
  </outline>
</glyph>
<glyph name="B" format="2">
  <advance width="1368"/>
  <unicode hex="0042"/>
  <anchor x="571" y="0" name="bottom"/>
  <anchor x="309" y="480" name="cross"/>
  <anchor x="820" y="1490" name="top"/>
  <anchor x="250" y="1490" name="topl"/>
  <outline>
    <contour>
      <point x="3" y="0" type="line"/>
      <point x="716" y="0" type="line" smooth="yes"/>
      <point x="1039" y="0"/>
      <point x="1255" y="164"/>
      <point x="1293" y="396" type="curve" smooth="yes"/>
      <point x="1330" y="619"/>
      <point x="1195" y="769"/>
      <point x="1005" y="776" type="curve"/>
      <point x="1005" y="789" type="line"/>
      <point x="1180" y="822"/>
      <point x="1325" y="940"/>
      <point x="1350" y="1092" type="curve" smooth="yes"/>
      <point x="1390" y="1331"/>
      <point x="1226" y="1490"/>
      <point x="886" y="1490" type="curve" smooth="yes"/>
      <point x="250" y="1490" type="line"/>
    </contour>
    <contour>
      <point x="461" y="322" type="line"/>
      <point x="513" y="638" type="line"/>
      <point x="719" y="638" type="line" smooth="yes"/>
      <point x="841" y="638"/>
      <point x="899" y="592"/>
      <point x="884" y="500" type="curve" smooth="yes"/>
      <point x="866" y="388"/>
      <point x="775" y="322"/>
      <point x="640" y="322" type="curve" smooth="yes"/>
    </contour>
    <contour>
      <point x="554" y="888" type="line"/>
      <point x="601" y="1172" type="line"/>
      <point x="784" y="1172" type="line" smooth="yes"/>
      <point x="884" y="1172"/>
      <point x="941" y="1134"/>
      <point x="928" y="1056" type="curve" smooth="yes"/>
      <point x="911" y="951"/>
      <point x="816" y="888"/>
      <point x="710" y="888" type="curve" smooth="yes"/>
    </contour>
  </outline>
</glyph>
<glyph name="C" format="2">
  <advance width="1532"/>
  <unicode hex="0043"/>
  <anchor x="689" y="6" name="cedilla"/>
  <anchor x="816" y="745" name="center"/>
  <anchor x="943" y="1490" name="top"/>
  <anchor x="1529" y="946" name="topr"/>
  <outline>
    <contour>
      <point x="714" y="-20" type="curve" smooth="yes"/>
      <point x="1140" y="-20"/>
      <point x="1403" y="290"/>
      <point x="1465" y="544" type="curve"/>
      <point x="1055" y="544" type="line"/>
      <point x="1014" y="417"/>
      <point x="899" y="332"/>
      <point x="741" y="332" type="curve" smooth="yes"/>
      <point x="586" y="332"/>
      <point x="502" y="418"/>
      <point x="502" y="595" type="curve" smooth="yes"/>
      <point x="502" y="851"/>
      <point x="635" y="1158"/>
      <point x="921" y="1158" type="curve" smooth="yes"/>
      <point x="1060" y="1158"/>
      <point x="1124" y="1073"/>
      <point x="1119" y="946" type="curve"/>
      <point x="1529" y="946" type="line"/>
      <point x="1551" y="1310"/>
      <point x="1300" y="1510"/>
      <point x="926" y="1510" type="curve" smooth="yes"/>
      <point x="418" y="1510"/>
      <point x="91" y="1093"/>
      <point x="91" y="594" type="curve" smooth="yes"/>
      <point x="91" y="197"/>
      <point x="345" y="-20"/>
    </contour>
  </outline>
</glyph>
<glyph name="D" format="2">
  <advance width="1479"/>
  <unicode hex="0044"/>
  <anchor x="581" y="0" name="bottom"/>
  <anchor x="385" y="745" name="cross"/>
  <anchor x="748" y="1490" name="top"/>
  <anchor x="250" y="1490" name="topl"/>
  <outline>
    <contour>
      <point x="625" y="0" type="line"/>
      <point x="1078" y="0"/>
      <point x="1363" y="279"/>
      <point x="1440" y="744" type="curve" smooth="yes"/>
      <point x="1517" y="1210"/>
      <point x="1261" y="1490"/>
      <point x="802" y="1490" type="curve" smooth="yes"/>
      <point x="410" y="1490" type="line"/>
      <point x="353" y="1146" type="line"/>
      <point x="747" y="1146" type="line" smooth="yes"/>
      <point x="981" y="1146"/>
      <point x="1086" y="1056"/>
      <point x="1034" y="744" type="curve" smooth="yes"/>
      <point x="983" y="433"/>
      <point x="840" y="344"/>
      <point x="618" y="344" type="curve" smooth="yes"/>
      <point x="226" y="344" type="line"/>
      <point x="169" y="0" type="line"/>
    </contour>
    <contour>
      <point x="654" y="1490" type="line"/>
      <point x="250" y="1490" type="line"/>
      <point x="3" y="0" type="line"/>
      <point x="407" y="0" type="line"/>
    </contour>
  </outline>
</glyph>
<glyph name="E" format="2">
  <advance width="1274"/>
  <unicode hex="0045"/>
  <anchor x="540" y="0" name="bottom"/>
  <anchor x="542" y="0" name="cedilla"/>
  <anchor x="1073" y="0" name="ogonek"/>
  <anchor x="250" y="1490" name="tonos"/>
  <anchor x="787" y="1490" name="top"/>
  <outline>
    <contour>
      <point x="3" y="0" type="line"/>
      <point x="1073" y="0" type="line"/>
      <point x="1127" y="326" type="line"/>
      <point x="461" y="326" type="line"/>
      <point x="505" y="594" type="line"/>
      <point x="1119" y="594" type="line"/>
      <point x="1172" y="912" type="line"/>
      <point x="558" y="912" type="line"/>
      <point x="600" y="1164" type="line"/>
      <point x="1270" y="1164" type="line"/>
      <point x="1324" y="1490" type="line"/>
      <point x="250" y="1490" type="line"/>
    </contour>
  </outline>
</glyph>
<glyph name="F" format="2">
  <advance width="1196"/>
  <unicode hex="0046"/>
  <anchor x="205" y="0" name="bottom"/>
  <anchor x="246" y="250" name="cross"/>
  <anchor x="3" y="0" name="lfthook"/>
  <anchor x="776" y="1490" name="top"/>
  <outline>
    <contour>
      <point x="3" y="0" type="line"/>
      <point x="407" y="0" type="line"/>
      <point x="491" y="510" type="line"/>
      <point x="1071" y="510" type="line"/>
      <point x="1124" y="828" type="line"/>
      <point x="544" y="828" type="line"/>
      <point x="600" y="1164" type="line"/>
      <point x="1244" y="1164" type="line"/>
      <point x="1298" y="1490" type="line"/>
      <point x="250" y="1490" type="line"/>
    </contour>
  </outline>
</glyph>
<glyph name="G" format="2">
  <advance width="1562"/>
  <unicode hex="0047"/>
  <anchor x="782.0" y="0" name="bottom"/>
  <anchor x="1279.12" y="434" name="cross"/>
  <anchor x="1054.2" y="1490" name="top"/>
  <anchor x="1631.64" y="998" name="topr"/>
  <outline>
    <contour>
      <point x="748.4" y="-20" type="curve" smooth="yes"/>
      <point x="1055.4" y="-20"/>
      <point x="1212.96" y="172"/>
      <point x="1261.92" y="444" type="curve" smooth="yes"/>
      <point x="1281.36" y="552" type="line"/>
      <point x="1179.36" y="552" type="line"/>
      <point x="1155.06" y="417"/>
      <point x="1040.76" y="332"/>
      <point x="871.76" y="332" type="curve" smooth="yes"/>
      <point x="654.76" y="332"/>
      <point x="573.48" y="486"/>
      <point x="620.64" y="748" type="curve" smooth="yes"/>
      <point x="667.0799999999999" y="1006"/>
      <point x="811.44" y="1158"/>
      <point x="1014.44" y="1158" type="curve" smooth="yes"/>
      <point x="1141.44" y="1158"/>
      <point x="1217.0" y="1100"/>
      <point x="1223.6399999999999" y="998" type="curve"/>
      <point x="1631.6399999999999" y="998" type="line"/>
      <point x="1654.46" y="1297"/>
      <point x="1420.8" y="1510"/>
      <point x="1069.8" y="1510" type="curve" smooth="yes"/>
      <point x="667.8" y="1510"/>
      <point x="291.94" y="1233"/>
      <point x="203.56" y="742" type="curve" smooth="yes"/>
      <point x="118.78" y="271"/>
      <point x="372.4" y="-20"/>
    </contour>
    <contour>
      <point x="1221.0" y="0" type="line"/>
      <point x="1470.0" y="0" type="line"/>
      <point x="1619.76" y="832" type="line"/>
      <point x="959.76" y="832" type="line"/>
      <point x="907.92" y="544" type="line"/>
      <point x="1271.92" y="544" type="line"/>
      <point x="1234.48" y="336" type="line"/>
    </contour>
  </outline>
</glyph>
<glyph name="H" format="2">
  <advance width="1536"/>
  <unicode hex="0048"/>
  <anchor x="675" y="0" name="bottom"/>
  <anchor x="206" y="0" name="cedilla"/>
  <anchor x="1347" y="0" name="cyrtic"/>
  <anchor x="943" y="0" name="lfthook"/>
  <anchor x="1347" y="0" name="right"/>
  <anchor x="250" y="1490" name="tonos"/>
  <anchor x="922" y="1490" name="top"/>
  <outline>
    <contour>
      <point x="3" y="0" type="line"/>
      <point x="407" y="0" type="line"/>
      <point x="505.998" y="598" type="line"/>
      <point x="1041.998" y="598" type="line"/>
      <point x="943" y="0" type="line"/>
      <point x="1347" y="0" type="line"/>
      <point x="1594" y="1490" type="line"/>
      <point x="1190" y="1490" type="line"/>
      <point x="1096" y="924" type="line"/>
      <point x="560" y="924" type="line"/>
      <point x="654" y="1490" type="line"/>
      <point x="250" y="1490" type="line"/>
    </contour>
  </outline>
</glyph>
<glyph name="I" format="2">
  <advance width="596"/>
  <unicode hex="0049"/>
  <anchor x="203" y="0" name="bottom"/>
  <anchor x="333" y="788" name="cross"/>
  <anchor x="407" y="0" name="ogonek"/>
  <anchor x="433" y="0" name="right"/>
  <anchor x="250" y="1490" name="tonos"/>
  <anchor x="454" y="1490" name="top"/>
  <outline>
    <contour>
      <point x="712" y="1490" type="line"/>
      <point x="192" y="1490" type="line"/>
      <point x="174" y="1382" type="line"/>
      <point x="232" y="1382" type="line"/>
      <point x="21" y="108" type="line"/>
      <point x="-37" y="108" type="line"/>
      <point x="-55" y="0" type="line"/>
      <point x="465" y="0" type="line"/>
      <point x="483" y="108" type="line"/>
      <point x="425" y="108" type="line"/>
      <point x="636" y="1382" type="line"/>
      <point x="694" y="1382" type="line"/>
    </contour>
  </outline>
</glyph>
<glyph name="J" format="2">
  <advance width="1221"/>
  <unicode hex="004A"/>
  <anchor x="974" y="884" name="cross"/>
  <anchor x="1079" y="1490" name="top"/>
  <outline>
    <contour>
      <point x="507" y="-20" type="curve" smooth="yes"/>
      <point x="852" y="-20"/>
      <point x="1057" y="155"/>
      <point x="1109" y="468" type="curve" smooth="yes"/>
      <point x="1279" y="1490" type="line"/>
      <point x="881" y="1490" type="line"/>
      <point x="710" y="460" type="line" smooth="yes"/>
      <point x="691" y="348"/>
      <point x="632" y="294"/>
      <point x="543" y="294" type="curve" smooth="yes"/>
      <point x="466" y="294"/>
      <point x="424" y="332"/>
      <point x="424" y="411" type="curve" smooth="yes"/>
      <point x="424" y="425"/>
      <point x="425" y="441"/>
      <point x="445" y="559" type="curve"/>
      <point x="41" y="559" type="line"/>
      <point x="19" y="430"/>
      <point x="16" y="396"/>
      <point x="16" y="364" type="curve" smooth="yes"/>
      <point x="16" y="116"/>
      <point x="196" y="-20"/>
    </contour>
  </outline>
</glyph>
<glyph name="K" format="2">
  <advance width="1555"/>
  <unicode hex="004B"/>
  <anchor x="657" y="0" name="bottom"/>
  <anchor x="904" y="1490" name="top"/>
  <outline>
    <contour>
      <point x="353" y="261" type="line"/>
      <point x="849" y="739" type="line"/>
      <point x="885" y="723" type="line"/>
      <point x="1635" y="1490" type="line"/>
      <point x="1132" y="1490" type="line"/>
      <point x="772" y="1107" type="line" smooth="yes"/>
      <point x="579" y="901"/>
      <point x="499" y="791"/>
      <point x="386" y="603" type="curve"/>
    </contour>
    <contour>
      <point x="3" y="0" type="line"/>
      <point x="419" y="0" type="line"/>
      <point x="509" y="544" type="line"/>
      <point x="534" y="741" type="line"/>
      <point x="613" y="1170" type="line"/>
      <point x="666" y="1490" type="line"/>
      <point x="250" y="1490" type="line"/>
    </contour>
    <contour>
      <point x="964" y="0" type="line"/>
      <point x="1416" y="0" type="line"/>
      <point x="985" y="895" type="line"/>
      <point x="704" y="599" type="line"/>
    </contour>
  </outline>
</glyph>
<glyph name="L" format="2">
  <advance width="1158"/>
  <unicode hex="004C"/>
  <anchor x="507" y="0" name="bottom"/>
  <anchor x="390" y="745" name="cross"/>
  <anchor x="657" y="872" name="dot"/>
  <anchor x="858" y="1490" name="raccent"/>
  <anchor x="448" y="1490" name="top"/>
  <outline>
    <contour>
      <point x="3" y="0" type="line"/>
      <point x="1009" y="0" type="line"/>
      <point x="1063" y="326" type="line"/>
      <point x="461" y="326" type="line"/>
      <point x="654" y="1490" type="line"/>
      <point x="250" y="1490" type="line"/>
    </contour>
  </outline>
</glyph>
<glyph name="M" format="2">
  <advance width="1958"/>
  <unicode hex="004D"/>
  <anchor x="886" y="0" name="bottom"/>
  <anchor x="1769" y="0" name="cyrtic"/>
  <anchor x="1133" y="1490" name="top"/>
  <outline>
    <contour>
      <point x="3" y="0" type="line"/>
      <point x="411" y="0" type="line"/>
      <point x="506" y="576" type="line" smooth="yes"/>
      <point x="529" y="712"/>
      <point x="570" y="1059"/>
      <point x="608" y="1288" type="curve"/>
      <point x="579" y="1288" type="line"/>
      <point x="588" y="1035"/>
      <point x="618" y="719"/>
      <point x="638" y="576" type="curve" smooth="yes"/>
      <point x="719" y="0" type="line"/>
      <point x="1055" y="0" type="line"/>
      <point x="1323" y="576" type="line" smooth="yes"/>
      <point x="1390" y="719"/>
      <point x="1522" y="1035"/>
      <point x="1613" y="1288" type="curve"/>
      <point x="1590" y="1288" type="line"/>
      <point x="1552" y="1059"/>
      <point x="1479" y="712"/>
      <point x="1456" y="576" type="curve" smooth="yes"/>
      <point x="1361" y="0" type="line"/>
      <point x="1769" y="0" type="line"/>
      <point x="2016" y="1490" type="line"/>
      <point x="1377" y="1490" type="line"/>
      <point x="1168" y="1024" type="line" smooth="yes"/>
      <point x="1096" y="864"/>
      <point x="950" y="449"/>
      <point x="893" y="258" type="curve"/>
      <point x="968" y="258" type="line"/>
      <point x="973" y="449"/>
      <point x="964" y="864"/>
      <point x="945" y="1024" type="curve" smooth="yes"/>
      <point x="888" y="1490" type="line"/>
      <point x="250" y="1490" type="line"/>
    </contour>
  </outline>
</glyph>
<glyph name="N" format="2">
  <advance width="1576"/>
  <unicode hex="004E"/>
  <anchor x="695" y="0" name="bottom"/>
  <anchor x="3" y="0" name="lfthook"/>
  <anchor x="1387" y="0" name="lfthook2"/>
  <anchor x="942" y="1490" name="top"/>
  <outline>
    <contour>
      <point x="3" y="0" type="line"/>
      <point x="419" y="0" type="line"/>
      <point x="509" y="544" type="line" smooth="yes"/>
      <point x="529" y="665"/>
      <point x="550" y="885"/>
      <point x="568" y="1096" type="curve"/>
      <point x="526" y="1096" type="line"/>
      <point x="588" y="859"/>
      <point x="624" y="729"/>
      <point x="706" y="544" type="curve" smooth="yes"/>
      <point x="947" y="0" type="line"/>
      <point x="1387" y="0" type="line"/>
      <point x="1634" y="1490" type="line"/>
      <point x="1218" y="1490" type="line"/>
      <point x="1127" y="944" type="line" smooth="yes"/>
      <point x="1104" y="801"/>
      <point x="1081" y="534"/>
      <point x="1065" y="372" type="curve"/>
      <point x="1100" y="372" type="line"/>
      <point x="1062" y="616"/>
      <point x="1015" y="753"/>
      <point x="948" y="905" type="curve" smooth="yes"/>
      <point x="690" y="1490" type="line"/>
      <point x="250" y="1490" type="line"/>
    </contour>
  </outline>
</glyph>
<glyph name="O" format="2">
  <advance width="1590"/>
  <unicode hex="004F"/>
  <anchor x="702" y="0" name="bottom"/>
  <anchor x="826" y="745" name="center"/>
  <anchor x="1560" y="892" name="ogonek"/>
  <anchor x="347" y="1490" name="tonos"/>
  <anchor x="949" y="1490" name="top"/>
  <anchor x="952" y="1510" name="tophorn"/>
  <outline>
    <contour>
      <point x="720" y="-20" type="curve" smooth="yes"/>
      <point x="1229" y="-20"/>
      <point x="1560" y="393"/>
      <point x="1560" y="892" type="curve" smooth="yes"/>
      <point x="1560" y="1292"/>
      <point x="1297" y="1510"/>
      <point x="932" y="1510" type="curve" smooth="yes"/>
      <point x="421" y="1510"/>
      <point x="91" y="1096"/>
      <point x="91" y="597" type="curve" smooth="yes"/>
      <point x="91" y="199"/>
      <point x="352" y="-20"/>
    </contour>
    <contour>
      <point x="737" y="332" type="curve" smooth="yes"/>
      <point x="581" y="332"/>
      <point x="502" y="421"/>
      <point x="502" y="594" type="curve" smooth="yes"/>
      <point x="502" y="844"/>
      <point x="624" y="1158"/>
      <point x="915" y="1158" type="curve" smooth="yes"/>
      <point x="1071" y="1158"/>
      <point x="1149" y="1069"/>
      <point x="1149" y="896" type="curve" smooth="yes"/>
      <point x="1149" y="644"/>
      <point x="1028" y="332"/>
    </contour>
  </outline>
</glyph>
<glyph name="P" format="2">
  <advance width="1343"/>
  <unicode hex="0050"/>
  <anchor x="230" y="1490" name="tonos"/>
  <anchor x="812" y="1490" name="top"/>
  <anchor x="250" y="1490" name="topl"/>
  <outline>
    <contour>
      <point x="3" y="0" type="line"/>
      <point x="407" y="0" type="line"/>
      <point x="600" y="1166" type="line"/>
      <point x="742" y="1166" type="line" smooth="yes"/>
      <point x="885" y="1166"/>
      <point x="958" y="1091"/>
      <point x="936" y="962" type="curve" smooth="yes"/>
      <point x="915" y="836"/>
      <point x="817" y="756"/>
      <point x="674" y="756" type="curve" smooth="yes"/>
      <point x="372" y="756" type="line"/>
      <point x="320" y="442" type="line"/>
      <point x="704" y="442" type="line" smooth="yes"/>
      <point x="1044" y="442"/>
      <point x="1305" y="642"/>
      <point x="1358" y="962" type="curve" smooth="yes"/>
      <point x="1411" y="1280"/>
      <point x="1224" y="1490"/>
      <point x="892" y="1490" type="curve" smooth="yes"/>
      <point x="250" y="1490" type="line"/>
    </contour>
  </outline>
</glyph>
<glyph name="Q" format="2">
  <advance width="1590"/>
  <unicode hex="0051"/>
  <anchor x="702" y="0" name="bottom"/>
  <anchor x="826" y="745" name="center"/>
  <anchor x="1560" y="892" name="ogonek"/>
  <anchor x="347" y="1490" name="tonos"/>
  <anchor x="949" y="1490" name="top"/>
  <anchor x="952" y="1510" name="tophorn"/>
  <outline>
    <contour>
      <point x="646" y="552" type="line"/>
      <point x="815" y="268" type="line"/>
      <point x="905" y="96" type="line"/>
      <point x="1049" y="-110" type="line"/>
      <point x="1379" y="-110" type="line"/>
      <point x="1179" y="192" type="line"/>
      <point x="1023" y="410" type="line"/>
      <point x="932" y="552" type="line"/>
    </contour>
    <component base="O"/>
  </outline>
</glyph>
<glyph name="R" format="2">
  <advance width="1368"/>
  <unicode hex="0052"/>
  <anchor x="605" y="0" name="bottom"/>
  <anchor x="828" y="1490" name="top"/>
  <outline>
    <contour>
      <point x="3" y="0" type="line"/>
      <point x="407" y="0" type="line"/>
      <point x="600" y="1166" type="line"/>
      <point x="742" y="1166" type="line" smooth="yes"/>
      <point x="885" y="1166"/>
      <point x="961" y="1111"/>
      <point x="940" y="984" type="curve" smooth="yes"/>
      <point x="919" y="856"/>
      <point x="825" y="806"/>
      <point x="682" y="806" type="curve" smooth="yes"/>
      <point x="380" y="806" type="line"/>
      <point x="328" y="492" type="line"/>
      <point x="712" y="492" type="line" smooth="yes"/>
      <point x="1052" y="492"/>
      <point x="1309" y="663"/>
      <point x="1362" y="984" type="curve" smooth="yes"/>
      <point x="1414" y="1300"/>
      <point x="1224" y="1490"/>
      <point x="892" y="1490" type="curve" smooth="yes"/>
      <point x="250" y="1490" type="line"/>
    </contour>
    <contour>
      <point x="809" y="0" type="line"/>
      <point x="1249" y="0" type="line"/>
      <point x="988" y="684" type="line"/>
      <point x="558" y="684" type="line"/>
    </contour>
  </outline>
</glyph>
<glyph name="S" format="2">
  <advance width="1364"/>
  <unicode hex="0053"/>
  <anchor x="597" y="0" name="bottom"/>
  <anchor x="593" y="0" name="cedilla"/>
  <anchor x="838" y="1490" name="top"/>
  <outline>
    <contour>
      <point x="630" y="-18" type="curve" smooth="yes"/>
      <point x="1007" y="-18"/>
      <point x="1237.005" y="145"/>
      <point x="1286" y="440" type="curve" smooth="yes"/>
      <point x="1323" y="666"/>
      <point x="1213" y="825"/>
      <point x="895" y="896" type="curve" smooth="yes"/>
      <point x="778" y="922" type="line" smooth="yes"/>
      <point x="642" y="952"/>
      <point x="589" y="993"/>
      <point x="601" y="1064" type="curve" smooth="yes"/>
      <point x="612" y="1130"/>
      <point x="675" y="1178"/>
      <point x="800" y="1178" type="curve" smooth="yes"/>
      <point x="931" y="1178"/>
      <point x="984" y="1121"/>
      <point x="975" y="1024" type="curve"/>
      <point x="1363" y="1024" type="line"/>
      <point x="1409" y="1316"/>
      <point x="1192" y="1510"/>
      <point x="831" y="1510" type="curve" smooth="yes"/>
      <point x="477" y="1510"/>
      <point x="221" y="1319"/>
      <point x="175" y="1036" type="curve" smooth="yes"/>
      <point x="136" y="803"/>
      <point x="275" y="672"/>
      <point x="529" y="616" type="curve" smooth="yes"/>
      <point x="674" y="584" type="line" smooth="yes"/>
      <point x="833" y="549"/>
      <point x="885" y="507"/>
      <point x="874" y="440" type="curve" smooth="yes" name="hr00"/>
      <point x="862" y="366"/>
      <point x="784" y="314"/>
      <point x="655" y="314" type="curve" smooth="yes"/>
      <point x="499" y="314"/>
      <point x="420" y="387"/>
      <point x="436" y="524" type="curve"/>
      <point x="52" y="524" type="line"/>
      <point x="-8" y="150"/>
      <point x="241" y="-18"/>
    </contour>
  </outline>
</glyph>
<glyph name="T" format="2">
  <advance width="1406"/>
  <unicode hex="0054"/>
  <anchor x="610" y="0" name="bottom"/>
  <anchor x="812" y="0" name="bottomr"/>
  <anchor x="603" y="0" name="cedilla"/>
  <anchor x="720" y="666" name="cross"/>
  <anchor x="812" y="0" name="cyrtic"/>
  <anchor x="763" y="0" name="right"/>
  <anchor x="857" y="1490" name="top"/>
  <outline>
    <contour>
      <point x="156" y="1164" type="line"/>
      <point x="601" y="1164" type="line"/>
      <point x="408" y="0" type="line"/>
      <point x="812" y="0" type="line"/>
      <point x="1005" y="1164" type="line"/>
      <point x="1450" y="1164" type="line"/>
      <point x="1504" y="1490" type="line"/>
      <point x="210" y="1490" type="line"/>
    </contour>
  </outline>
</glyph>
<glyph name="U" format="2">
  <advance width="1478"/>
  <unicode hex="0055"/>
  <anchor x="645" y="0" name="bottom"/>
  <anchor x="1376" y="523" name="ogonek"/>
  <anchor x="773" y="0" name="right"/>
  <anchor x="1132" y="1490" name="rtophorn"/>
  <anchor x="892" y="1490" name="top"/>
  <outline>
    <contour>
      <point x="663" y="-18" type="curve" smooth="yes"/>
      <point x="1036" y="-18"/>
      <point x="1320" y="182"/>
      <point x="1376" y="523" type="curve" smooth="yes"/>
      <point x="1536" y="1490" type="line"/>
      <point x="1132" y="1490" type="line"/>
      <point x="982" y="583" type="line" smooth="yes"/>
      <point x="959" y="444"/>
      <point x="830" y="332"/>
      <point x="680" y="332" type="curve" smooth="yes"/>
      <point x="552" y="332"/>
      <point x="477" y="418"/>
      <point x="500" y="557" type="curve" smooth="yes"/>
      <point x="654" y="1490" type="line"/>
      <point x="250" y="1490" type="line"/>
      <point x="94" y="549" type="line" smooth="yes"/>
      <point x="37" y="208"/>
      <point x="268" y="-18"/>
    </contour>
  </outline>
</glyph>
<glyph name="V" format="2">
  <advance width="1628"/>
  <unicode hex="0056"/>
  <anchor x="721" y="0" name="bottom"/>
  <anchor x="968" y="1490" name="top"/>
  <outline>
    <contour>
      <point x="453" y="0" type="line"/>
      <point x="1005" y="0" type="line"/>
      <point x="1736" y="1490" type="line"/>
      <point x="1284" y="1490" type="line"/>
      <point x="1023" y="912" type="line" smooth="yes"/>
      <point x="910" y="661"/>
      <point x="811" y="402"/>
      <point x="710" y="135" type="curve"/>
      <point x="800" y="135" type="line"/>
      <point x="786" y="402"/>
      <point x="769" y="661"/>
      <point x="735" y="912" type="curve" smooth="yes"/>
      <point x="658" y="1490" type="line"/>
      <point x="200" y="1490" type="line"/>
    </contour>
  </outline>
</glyph>
<glyph name="W" format="2">
  <advance width="2216"/>
  <unicode hex="0057"/>
  <anchor x="1015" y="0" name="bottom"/>
  <anchor x="1262" y="1490" name="top"/>
  <outline>
    <contour>
      <point x="348" y="0" type="line"/>
      <point x="805" y="0" type="line"/>
      <point x="1054" y="607" type="line" smooth="yes"/>
      <point x="1142" y="819"/>
      <point x="1194" y="1072"/>
      <point x="1283" y="1296" type="curve"/>
      <point x="1177" y="1296" type="line"/>
      <point x="1182" y="1072"/>
      <point x="1161" y="816"/>
      <point x="1177" y="607" type="curve" smooth="yes"/>
      <point x="1225" y="0" type="line"/>
      <point x="1682" y="0" type="line"/>
      <point x="2324" y="1490" type="line"/>
      <point x="1872" y="1490" type="line"/>
      <point x="1656" y="912" type="line" smooth="yes"/>
      <point x="1574" y="693"/>
      <point x="1495" y="395"/>
      <point x="1422" y="176" type="curve"/>
      <point x="1503" y="176" type="line"/>
      <point x="1497" y="395"/>
      <point x="1514" y="693"/>
      <point x="1500" y="912" type="curve" smooth="yes"/>
      <point x="1464" y="1490" type="line"/>
      <point x="1060" y="1490" type="line"/>
      <point x="832" y="912" type="line" smooth="yes"/>
      <point x="746" y="693"/>
      <point x="663" y="395"/>
      <point x="585" y="176" type="curve"/>
      <point x="665" y="176" type="line"/>
      <point x="664" y="395"/>
      <point x="684" y="693"/>
      <point x="675" y="912" type="curve" smooth="yes"/>
      <point x="652" y="1490" type="line"/>
      <point x="200" y="1490" type="line"/>
    </contour>
  </outline>
</glyph>
<glyph name="X" format="2">
  <advance width="1610"/>
  <unicode hex="0058"/>
  <anchor x="709" y="-6" name="bottom"/>
  <anchor x="833" y="744" name="cross"/>
  <anchor x="1392" y="0" name="cyrtic"/>
  <anchor x="957" y="1490" name="top"/>
  <outline>
    <contour>
      <point x="-47" y="0" type="line"/>
      <point x="431" y="0" type="line"/>
      <point x="644" y="256" type="line" smooth="yes"/>
      <point x="749" y="382"/>
      <point x="772" y="439"/>
      <point x="831" y="515" type="curve"/>
      <point x="777" y="515" type="line"/>
      <point x="812" y="439"/>
      <point x="817" y="383"/>
      <point x="876" y="256" type="curve" smooth="yes"/>
      <point x="996" y="0" type="line"/>
      <point x="1471" y="0" type="line"/>
      <point x="1000" y="915" type="line"/>
      <point x="953" y="626" type="line"/>
      <point x="1660" y="1490" type="line"/>
      <point x="1189" y="1490" type="line"/>
      <point x="1036" y="1296" type="line" smooth="yes"/>
      <point x="924" y="1154"/>
      <point x="871" y="1031"/>
      <point x="795" y="931" type="curve"/>
      <point x="917" y="931" type="line"/>
      <point x="877" y="1031"/>
      <point x="866" y="1154"/>
      <point x="802" y="1296" type="curve" smooth="yes"/>
      <point x="715" y="1490" type="line"/>
      <point x="260" y="1490" type="line"/>
      <point x="695" y="602" type="line"/>
      <point x="746" y="911" type="line"/>
    </contour>
  </outline>
</glyph>
<glyph name="Y" format="2">
  <advance width="1588"/>
  <unicode hex="0059"/>
  <anchor x="706" y="0" name="bottom"/>
  <anchor x="760" y="323" name="cross"/>
  <anchor x="910" y="0" name="ogonek"/>
  <anchor x="200" y="1490" name="tonos"/>
  <anchor x="948" y="1490" name="top"/>
  <outline>
    <contour>
      <point x="508" y="0" type="line"/>
      <point x="910" y="0" type="line"/>
      <point x="996" y="518" type="line"/>
      <point x="1696" y="1490" type="line"/>
      <point x="1207" y="1490" type="line"/>
      <point x="931" y="1040" type="line" smooth="yes"/>
      <point x="881" y="958"/>
      <point x="841" y="877"/>
      <point x="794" y="768" type="curve"/>
      <point x="853" y="768" type="line"/>
      <point x="839" y="877"/>
      <point x="825" y="958"/>
      <point x="799" y="1040" type="curve" smooth="yes"/>
      <point x="659" y="1490" type="line"/>
      <point x="200" y="1490" type="line"/>
      <point x="594" y="518" type="line"/>
    </contour>
  </outline>
</glyph>
<glyph name="Z" format="2">
  <advance width="1423"/>
  <unicode hex="005A"/>
  <anchor x="620" y="0" name="bottom"/>
  <anchor x="1226" y="0" name="bottomr"/>
  <anchor x="741" y="745" name="cross"/>
  <anchor x="871" y="1490" name="top"/>
  <outline>
    <contour>
      <point x="10" y="0" type="line"/>
      <point x="1226" y="0" type="line"/>
      <point x="1280" y="326" type="line"/>
      <point x="578" y="326" type="line"/>
      <point x="1438" y="1266" type="line"/>
      <point x="1475" y="1490" type="line"/>
      <point x="259" y="1490" type="line"/>
      <point x="205" y="1164" type="line"/>
      <point x="907" y="1164" type="line"/>
      <point x="47" y="224" type="line"/>
    </contour>
  </outline>
</glyph>
<glyph name="bracketleft" format="2">
  <advance width="794"/>
  <unicode hex="005B"/>
  <anchor x="354" y="651" name="cross"/>
  <outline>
    <contour>
      <point x="5" y="-279" type="line"/>
      <point x="571" y="-279" type="line"/>
      <point x="620" y="13" type="line"/>
      <point x="444" y="13" type="line"/>
      <point x="655" y="1289" type="line"/>
      <point x="831" y="1289" type="line"/>
      <point x="879" y="1581" type="line"/>
      <point x="313" y="1581" type="line"/>
    </contour>
  </outline>
</glyph>
<glyph name="backslash" format="2">
  <advance width="838"/>
  <unicode hex="005C"/>
  <outline>
    <contour>
      <point x="362" y="-224" type="line"/>
      <point x="694" y="-224" type="line"/>
      <point x="508" y="1560" type="line"/>
      <point x="178" y="1560" type="line"/>
    </contour>
  </outline>
</glyph>
<glyph name="bracketright" format="2">
  <advance width="794"/>
  <unicode hex="005D"/>
  <anchor x="470" y="651" name="cross"/>
  <outline>
    <contour>
      <point x="-55" y="-279" type="line"/>
      <point x="511" y="-279" type="line"/>
      <point x="819" y="1581" type="line"/>
      <point x="253" y="1581" type="line"/>
      <point x="205" y="1289" type="line"/>
      <point x="381" y="1289" type="line"/>
      <point x="170" y="13" type="line"/>
      <point x="-6" y="13" type="line"/>
    </contour>
  </outline>
</glyph>
<glyph name="asciicircum" format="2">
  <advance width="1024"/>
  <unicode hex="005E"/>
  <outline>
    <contour>
      <point x="622" y="1306" type="line"/>
      <point x="608" y="1222" type="line"/>
      <point x="660" y="1222" type="line"/>
      <point x="674" y="1306" type="line"/>
    </contour>
    <contour>
      <point x="102" y="814" type="line"/>
      <point x="390" y="814" type="line"/>
      <point x="642" y="1250" type="line"/>
      <point x="632" y="1250" type="line"/>
      <point x="744" y="814" type="line"/>
      <point x="1010" y="814" type="line"/>
      <point x="806" y="1466" type="line"/>
      <point x="520" y="1466" type="line"/>
    </contour>
  </outline>
</glyph>
<glyph name="underscore" format="2">
  <advance width="1010"/>
  <unicode hex="005F"/>
  <anchor x="438" y="155" name="_bottom"/>
  <outline>
    <contour>
      <point x="917" y="0" type="line"/>
      <point x="-93" y="0" type="line"/>
      <point x="-140" y="-286" type="line"/>
      <point x="870" y="-286" type="line"/>
    </contour>
  </outline>
</glyph>
<glyph name="a" format="2">
  <advance width="1322"/>
  <unicode hex="0061"/>
  <anchor x="656.0" y="0" name="bottom"/>
  <anchor x="1220.0" y="0" name="bottomr"/>
  <anchor x="1220.0" y="0" name="ogonek"/>
  <anchor x="871.24" y="1118" name="top"/>
  <anchor x="1421.24" y="1118" name="topr"/>
  <outline>
    <contour>
      <point x="499.48" y="-14" type="curve" smooth="yes"/>
      <point x="656.48" y="-14"/>
      <point x="779.6" y="70"/>
      <point x="847.12" y="184" type="curve"/>
      <point x="855.12" y="184" type="line"/>
      <point x="822.0" y="0" type="line"/>
      <point x="1220.0" y="0" type="line"/>
      <point x="1421.24" y="1118" type="line"/>
      <point x="1021.24" y="1118" type="line"/>
      <point x="985.96" y="922" type="line"/>
      <point x="979.96" y="922" type="line"/>
      <point x="956.48" y="1036"/>
      <point x="868.76" y="1132"/>
      <point x="703.76" y="1132" type="curve" smooth="yes"/>
      <point x="481.76" y="1132"/>
      <point x="235.34" y="963"/>
      <point x="162.44" y="558" type="curve" smooth="yes"/>
      <point x="92.96" y="172"/>
      <point x="261.48" y="-14"/>
    </contour>
    <contour>
      <point x="702.92" y="294" type="curve" smooth="yes"/>
      <point x="592.92" y="294"/>
      <point x="546.74" y="393"/>
      <point x="576.44" y="558" type="curve" smooth="yes"/>
      <point x="606.3199999999999" y="724"/>
      <point x="688.3199999999999" y="824"/>
      <point x="798.3199999999999" y="824" type="curve" smooth="yes"/>
      <point x="909.3199999999999" y="824"/>
      <point x="958.3199999999999" y="724"/>
      <point x="928.44" y="558" type="curve" smooth="yes"/>
      <point x="899.28" y="396"/>
      <point x="813.92" y="294"/>
    </contour>
  </outline>
</glyph>
<glyph name="b" format="2">
  <advance width="1321"/>
  <unicode hex="0062"/>
  <anchor x="609" y="0" name="bottom"/>
  <anchor x="507" y="1304" name="cross"/>
  <anchor x="930" y="1304" name="top"/>
  <anchor x="256" y="1490" name="topbar"/>
  <outline>
    <contour>
      <point x="746" y="-14" type="curve" smooth="yes"/>
      <point x="1121" y="-14"/>
      <point x="1269" y="399"/>
      <point x="1269" y="694" type="curve" smooth="yes"/>
      <point x="1269" y="998"/>
      <point x="1097" y="1132"/>
      <point x="898" y="1132" type="curve" smooth="yes"/>
      <point x="739" y="1132"/>
      <point x="632" y="1044"/>
      <point x="570" y="922" type="curve"/>
      <point x="562" y="922" type="line"/>
      <point x="658" y="1490" type="line"/>
      <point x="256" y="1490" type="line"/>
      <point x="9" y="0" type="line"/>
      <point x="407" y="0" type="line"/>
      <point x="440" y="196" type="line"/>
      <point x="454" y="196" type="line"/>
      <point x="481" y="82"/>
      <point x="578" y="-14"/>
    </contour>
    <contour>
      <point x="608" y="294" type="curve" smooth="yes"/>
      <point x="526" y="294"/>
      <point x="482" y="354"/>
      <point x="482" y="457" type="curve" smooth="yes"/>
      <point x="482" y="614"/>
      <point x="570" y="824"/>
      <point x="736" y="824" type="curve" smooth="yes"/>
      <point x="817" y="824"/>
      <point x="857" y="768"/>
      <point x="857" y="667" type="curve" smooth="yes"/>
      <point x="857" y="540"/>
      <point x="794" y="294"/>
    </contour>
  </outline>
</glyph>
<glyph name="c" format="2">
  <advance width="1233"/>
  <unicode hex="0063"/>
  <anchor x="547" y="0" name="bottom"/>
  <anchor x="547" y="0" name="cedilla"/>
  <anchor x="640" y="559" name="center"/>
  <anchor x="733" y="1118" name="top"/>
  <anchor x="1200" y="707" name="topr"/>
  <outline>
    <contour>
      <point x="565" y="-20" type="curve" smooth="yes"/>
      <point x="875" y="-20"/>
      <point x="1080" y="146"/>
      <point x="1151" y="412" type="curve"/>
      <point x="791" y="466" type="line"/>
      <point x="754" y="345"/>
      <point x="667" y="280"/>
      <point x="579" y="280" type="curve" smooth="yes"/>
      <point x="498" y="280"/>
      <point x="461" y="335"/>
      <point x="461" y="442" type="curve" smooth="yes"/>
      <point x="461" y="594"/>
      <point x="524" y="832"/>
      <point x="712" y="832" type="curve" smooth="yes"/>
      <point x="801" y="832"/>
      <point x="822" y="769"/>
      <point x="821" y="652" type="curve"/>
      <point x="1200" y="707" type="line"/>
      <point x="1216" y="966"/>
      <point x="1022" y="1132"/>
      <point x="714" y="1132" type="curve" smooth="yes"/>
      <point x="268" y="1132"/>
      <point x="56" y="798"/>
      <point x="56" y="461" type="curve" smooth="yes"/>
      <point x="56" y="171"/>
      <point x="244" y="-20"/>
    </contour>
  </outline>
</glyph>
<glyph name="d" format="2">
  <advance width="1322"/>
  <unicode hex="0064"/>
  <anchor x="591" y="0" name="bottom"/>
  <anchor x="1127" y="0" name="bottomr"/>
  <anchor x="1061" y="1304" name="cross"/>
  <anchor x="1492" y="1490" name="raccent"/>
  <anchor x="607" y="1304" name="top"/>
  <anchor x="1374" y="1490" name="topbar"/>
  <outline>
    <contour>
      <point x="428" y="-14" type="curve" smooth="yes"/>
      <point x="574" y="-14"/>
      <point x="685" y="57"/>
      <point x="750" y="184" type="curve"/>
      <point x="763" y="184" type="line"/>
      <point x="729" y="0" type="line"/>
      <point x="1127" y="0" type="line"/>
      <point x="1374" y="1490" type="line"/>
      <point x="972" y="1490" type="line"/>
      <point x="876" y="910" type="line"/>
      <point x="866" y="910" type="line"/>
      <point x="842" y="1024"/>
      <point x="749" y="1132"/>
      <point x="572" y="1132" type="curve" smooth="yes"/>
      <point x="233" y="1132"/>
      <point x="52" y="765"/>
      <point x="52" y="426" type="curve" smooth="yes"/>
      <point x="52" y="132"/>
      <point x="214" y="-14"/>
    </contour>
    <contour>
      <point x="586" y="294" type="curve" smooth="yes"/>
      <point x="505" y="294"/>
      <point x="464" y="350"/>
      <point x="464" y="450" type="curve" smooth="yes"/>
      <point x="464" y="607"/>
      <point x="546" y="824"/>
      <point x="714" y="824" type="curve" smooth="yes"/>
      <point x="795" y="824"/>
      <point x="839" y="766"/>
      <point x="839" y="663" type="curve" smooth="yes"/>
      <point x="839" y="504"/>
      <point x="751" y="294"/>
    </contour>
  </outline>
</glyph>
<glyph name="e" format="2">
  <advance width="1232"/>
  <unicode hex="0065"/>
  <anchor x="553" y="0" name="bottom"/>
  <anchor x="551" y="0" name="cedilla"/>
  <anchor x="1138" y="334" name="ogonek"/>
  <anchor x="737" y="1118" name="top"/>
  <outline>
    <contour>
      <point x="566" y="-24" type="curve" smooth="yes"/>
      <point x="863" y="-24"/>
      <point x="1072" y="122"/>
      <point x="1138" y="334" type="curve"/>
      <point x="781" y="360" type="line"/>
      <point x="760" y="295"/>
      <point x="687" y="259"/>
      <point x="597" y="259" type="curve" smooth="yes"/>
      <point x="472" y="259"/>
      <point x="439" y="329"/>
      <point x="439" y="426" type="curve" smooth="yes"/>
      <point x="439" y="551"/>
      <point x="453" y="850"/>
      <point x="680" y="850" type="curve" smooth="yes"/>
      <point x="771" y="850"/>
      <point x="821" y="817"/>
      <point x="821" y="758" type="curve" smooth="yes"/>
      <point x="821" y="682"/>
      <point x="737" y="670"/>
      <point x="207" y="670" type="curve"/>
      <point x="170" y="450" type="line"/>
      <point x="785" y="450"/>
      <point x="1184" y="487"/>
      <point x="1184" y="789" type="curve" smooth="yes"/>
      <point x="1184" y="1006"/>
      <point x="976" y="1132"/>
      <point x="722" y="1132" type="curve" smooth="yes"/>
      <point x="308" y="1132"/>
      <point x="51" y="800"/>
      <point x="51" y="436" type="curve" smooth="yes"/>
      <point x="51" y="147"/>
      <point x="249" y="-24"/>
    </contour>
  </outline>
</glyph>
<glyph name="g" format="2">
  <advance width="1327"/>
  <unicode hex="0067"/>
  <anchor x="476" y="-416" name="bottom"/>
  <anchor x="1022" y="568" name="cross"/>
  <anchor x="745" y="1118" name="top"/>
  <anchor x="1318" y="1118" name="topr"/>
  <outline>
    <contour>
      <point x="492" y="-442" type="curve" smooth="yes"/>
      <point x="835" y="-442"/>
      <point x="1085" y="-286"/>
      <point x="1137" y="29" type="curve" smooth="yes"/>
      <point x="1318" y="1118" type="line"/>
      <point x="920" y="1118" type="line"/>
      <point x="885" y="910" type="line"/>
      <point x="876" y="910" type="line"/>
      <point x="851" y="1024"/>
      <point x="751" y="1132"/>
      <point x="575" y="1132" type="curve" smooth="yes"/>
      <point x="238" y="1132"/>
      <point x="53" y="768"/>
      <point x="53" y="430" type="curve" smooth="yes"/>
      <point x="53" y="141"/>
      <point x="220" y="14"/>
      <point x="433" y="14" type="curve" smooth="yes"/>
      <point x="574" y="14"/>
      <point x="672" y="79"/>
      <point x="734" y="192" type="curve"/>
      <point x="772" y="192" type="line"/>
      <point x="739" y="15" type="line" smooth="yes"/>
      <point x="717" y="-102"/>
      <point x="634" y="-172"/>
      <point x="493" y="-172" type="curve" smooth="yes"/>
      <point x="401" y="-172"/>
      <point x="345" y="-149"/>
      <point x="343" y="-89" type="curve"/>
      <point x="-11" y="-115" type="line"/>
      <point x="-11" y="-307"/>
      <point x="176" y="-442"/>
    </contour>
    <contour>
      <point x="588" y="300" type="curve" smooth="yes"/>
      <point x="507" y="300"/>
      <point x="465" y="352"/>
      <point x="465" y="453" type="curve" smooth="yes"/>
      <point x="465" y="609"/>
      <point x="549" y="824"/>
      <point x="715" y="824" type="curve" smooth="yes"/>
      <point x="797" y="824"/>
      <point x="840" y="767"/>
      <point x="840" y="663" type="curve" smooth="yes"/>
      <point x="840" y="506"/>
      <point x="757" y="300"/>
    </contour>
  </outline>
</glyph>
<glyph name="h" format="2">
  <advance width="1330"/>
  <unicode hex="0068"/>
  <anchor x="571" y="0" name="bottom"/>
  <anchor x="216" y="0" name="cedilla"/>
  <anchor x="491" y="1304" name="cross"/>
  <anchor x="733" y="0" name="lfthook"/>
  <anchor x="449" y="1490" name="top"/>
  <outline>
    <contour>
      <point x="515" y="628" type="line" smooth="yes"/>
      <point x="533" y="739"/>
      <point x="607" y="806"/>
      <point x="706" y="806" type="curve" smooth="yes"/>
      <point x="807" y="806"/>
      <point x="855" y="739"/>
      <point x="837" y="628" type="curve" smooth="yes"/>
      <point x="733" y="0" type="line"/>
      <point x="1135" y="0" type="line"/>
      <point x="1253" y="712" type="line" smooth="yes"/>
      <point x="1293" y="956"/>
      <point x="1153" y="1132"/>
      <point x="916" y="1132" type="curve" smooth="yes"/>
      <point x="711" y="1132"/>
      <point x="599" y="1001"/>
      <point x="520" y="832" type="curve"/>
      <point x="539" y="832" type="line"/>
      <point x="648" y="1490" type="line"/>
      <point x="256" y="1490" type="line"/>
      <point x="9" y="0" type="line"/>
      <point x="411" y="0" type="line"/>
    </contour>
  </outline>
</glyph>
<glyph name="k" format="2">
  <advance width="1242"/>
  <unicode hex="006B"/>
  <anchor x="535" y="0" name="bottom"/>
  <anchor x="457" y="1490" name="top"/>
  <outline>
    <contour>
      <point x="413" y="264" type="line"/>
      <point x="667" y="532" type="line"/>
      <point x="781" y="532" type="line"/>
      <point x="1332" y="1118" type="line"/>
      <point x="880" y="1118" type="line"/>
      <point x="548" y="742" type="line"/>
      <point x="492" y="742" type="line"/>
    </contour>
    <contour>
      <point x="9" y="0" type="line"/>
      <point x="411" y="0" type="line"/>
      <point x="658" y="1490" type="line"/>
      <point x="256" y="1490" type="line"/>
    </contour>
    <contour>
      <point x="699" y="0" type="line"/>
      <point x="1157" y="0" type="line"/>
      <point x="826" y="728" type="line"/>
      <point x="516" y="442" type="line"/>
    </contour>
  </outline>
</glyph>
<glyph name="l" format="2">
  <advance width="606"/>
  <unicode hex="006C"/>
  <anchor x="209" y="0" name="bottom"/>
  <anchor x="411" y="0" name="bottomr"/>
  <anchor x="534" y="745" name="centerr"/>
  <anchor x="336" y="768" name="cross"/>
  <anchor x="774" y="1490" name="raccent"/>
  <anchor x="457" y="1490" name="top"/>
  <outline>
    <contour>
      <point x="658" y="1490" type="line"/>
      <point x="256" y="1490" type="line"/>
      <point x="9" y="0" type="line"/>
      <point x="411" y="0" type="line"/>
    </contour>
  </outline>
</glyph>
<glyph name="m" format="2">
  <advance width="1932"/>
  <unicode hex="006D"/>
  <anchor x="873" y="0" name="bottom"/>
  <anchor x="1335" y="0" name="lfthook"/>
  <anchor x="1059" y="1118" name="top"/>
  <outline>
    <contour>
      <point x="9" y="0" type="line"/>
      <point x="411" y="0" type="line"/>
      <point x="517" y="639" type="line" smooth="yes"/>
      <point x="533" y="736"/>
      <point x="606" y="808"/>
      <point x="700" y="808" type="curve" smooth="yes"/>
      <point x="772" y="808"/>
      <point x="808" y="762"/>
      <point x="792" y="665" type="curve" smooth="yes"/>
      <point x="681" y="0" type="line"/>
      <point x="1065" y="0" type="line"/>
      <point x="1171" y="639" type="line" smooth="yes"/>
      <point x="1187" y="736"/>
      <point x="1261" y="808"/>
      <point x="1354" y="808" type="curve" smooth="yes"/>
      <point x="1427" y="808"/>
      <point x="1462" y="762"/>
      <point x="1446" y="665" type="curve" smooth="yes"/>
      <point x="1335" y="0" type="line"/>
      <point x="1737" y="0" type="line"/>
      <point x="1860" y="741" type="line" smooth="yes"/>
      <point x="1898" y="970"/>
      <point x="1768" y="1132"/>
      <point x="1544" y="1132" type="curve" smooth="yes"/>
      <point x="1388" y="1132"/>
      <point x="1218" y="1053"/>
      <point x="1118" y="797" type="curve"/>
      <point x="1158" y="771" type="line"/>
      <point x="1139" y="1027"/>
      <point x="1057" y="1132"/>
      <point x="888" y="1132" type="curve" smooth="yes"/>
      <point x="745" y="1132"/>
      <point x="600" y="1057"/>
      <point x="509" y="829" type="curve"/>
      <point x="538" y="816" type="line"/>
      <point x="561" y="1118" type="line"/>
      <point x="195" y="1118" type="line"/>
    </contour>
  </outline>
</glyph>
<glyph name="n" format="2">
  <advance width="1330"/>
  <unicode hex="006E"/>
  <anchor x="571" y="0" name="bottom"/>
  <anchor x="1135" y="0" name="bottomr"/>
  <anchor x="9" y="0" name="lfthook"/>
  <anchor x="757" y="1118" name="top"/>
  <anchor x="597" y="1118" name="topr"/>
  <outline>
    <contour>
      <point x="513" y="615" type="line" smooth="yes"/>
      <point x="531" y="726"/>
      <point x="602" y="806"/>
      <point x="711" y="806" type="curve" smooth="yes"/>
      <point x="802" y="806"/>
      <point x="859" y="752"/>
      <point x="840" y="641" type="curve" smooth="yes"/>
      <point x="733" y="0" type="line"/>
      <point x="1135" y="0" type="line"/>
      <point x="1251" y="699" type="line" smooth="yes"/>
      <point x="1292" y="943"/>
      <point x="1160" y="1132"/>
      <point x="912" y="1132" type="curve" smooth="yes"/>
      <point x="718" y="1132"/>
      <point x="598" y="1014"/>
      <point x="519" y="845" type="curve"/>
      <point x="535" y="832" type="line"/>
      <point x="571" y="1118" type="line"/>
      <point x="195" y="1118" type="line"/>
      <point x="9" y="0" type="line"/>
      <point x="411" y="0" type="line"/>
    </contour>
  </outline>
</glyph>
<glyph name="o" format="2">
  <advance width="1280"/>
  <unicode hex="006F"/>
  <anchor x="547" y="0" name="bottom"/>
  <anchor x="640" y="559" name="center"/>
  <anchor x="1218" y="556" name="ogonek"/>
  <anchor x="733" y="1118" name="top"/>
  <anchor x="735" y="1132" name="tophorn"/>
  <outline>
    <contour>
      <point x="566" y="-20" type="curve" smooth="yes"/>
      <point x="990" y="-20"/>
      <point x="1224" y="297"/>
      <point x="1224" y="657" type="curve" smooth="yes"/>
      <point x="1224" y="943"/>
      <point x="1043" y="1132"/>
      <point x="715" y="1132" type="curve" smooth="yes"/>
      <point x="294" y="1132"/>
      <point x="55" y="818"/>
      <point x="55" y="455" type="curve" smooth="yes"/>
      <point x="55" y="168"/>
      <point x="236" y="-20"/>
    </contour>
    <contour>
      <point x="582" y="280" type="curve" smooth="yes"/>
      <point x="507" y="280"/>
      <point x="459" y="337"/>
      <point x="459" y="441" type="curve" smooth="yes"/>
      <point x="459" y="576"/>
      <point x="517" y="832"/>
      <point x="699" y="832" type="curve" smooth="yes"/>
      <point x="773" y="832"/>
      <point x="820" y="779"/>
      <point x="820" y="676" type="curve" smooth="yes"/>
      <point x="820" y="542"/>
      <point x="761" y="280"/>
    </contour>
  </outline>
</glyph>
<glyph name="p" format="2">
  <advance width="1321"/>
  <unicode hex="0070"/>
  <anchor x="147" y="-402" name="bottom"/>
  <anchor x="181" y="-162" name="cross"/>
  <anchor x="821" y="1118" name="top"/>
  <anchor x="597" y="1118" name="topr"/>
  <outline>
    <contour>
      <point x="-60" y="-418" type="line"/>
      <point x="342" y="-418" type="line"/>
      <point x="442" y="196" type="line"/>
      <point x="454" y="196" type="line"/>
      <point x="481" y="82"/>
      <point x="578" y="-14"/>
      <point x="746" y="-14" type="curve" smooth="yes"/>
      <point x="1121" y="-14"/>
      <point x="1269" y="399"/>
      <point x="1269" y="694" type="curve" smooth="yes"/>
      <point x="1269" y="998"/>
      <point x="1097" y="1132"/>
      <point x="898" y="1132" type="curve" smooth="yes"/>
      <point x="743" y="1132"/>
      <point x="628" y="1036"/>
      <point x="566" y="922" type="curve"/>
      <point x="557" y="922" type="line"/>
      <point x="593" y="1118" type="line"/>
      <point x="195" y="1118" type="line"/>
    </contour>
    <contour>
      <point x="608" y="294" type="curve" smooth="yes"/>
      <point x="526" y="294"/>
      <point x="482" y="354"/>
      <point x="482" y="457" type="curve" smooth="yes"/>
      <point x="482" y="614"/>
      <point x="570" y="824"/>
      <point x="736" y="824" type="curve" smooth="yes"/>
      <point x="817" y="824"/>
      <point x="857" y="768"/>
      <point x="857" y="667" type="curve" smooth="yes"/>
      <point x="857" y="540"/>
      <point x="794" y="294"/>
    </contour>
  </outline>
</glyph>
<glyph name="q" format="2">
  <advance width="1322"/>
  <unicode hex="0071"/>
  <anchor x="857" y="-402" name="bottom"/>
  <anchor x="903" y="-162" name="cross"/>
  <anchor x="754" y="1118" name="top"/>
  <anchor x="1313" y="1118" name="topr"/>
  <outline>
    <contour>
      <point x="1058" y="-418" type="line"/>
      <point x="1313" y="1118" type="line"/>
      <point x="915" y="1118" type="line"/>
      <point x="880" y="910" type="line"/>
      <point x="870" y="910" type="line"/>
      <point x="846" y="1024"/>
      <point x="749" y="1132"/>
      <point x="572" y="1132" type="curve" smooth="yes"/>
      <point x="233" y="1132"/>
      <point x="52" y="765"/>
      <point x="52" y="426" type="curve" smooth="yes"/>
      <point x="52" y="132"/>
      <point x="214" y="-14"/>
      <point x="428" y="-14" type="curve" smooth="yes"/>
      <point x="574" y="-14"/>
      <point x="677" y="58"/>
      <point x="744" y="178" type="curve"/>
      <point x="757" y="178" type="line"/>
      <point x="656" y="-418" type="line"/>
    </contour>
    <contour>
      <point x="586" y="294" type="curve" smooth="yes"/>
      <point x="505" y="294"/>
      <point x="464" y="350"/>
      <point x="464" y="450" type="curve" smooth="yes"/>
      <point x="464" y="607"/>
      <point x="546" y="824"/>
      <point x="714" y="824" type="curve" smooth="yes"/>
      <point x="795" y="824"/>
      <point x="839" y="766"/>
      <point x="839" y="663" type="curve" smooth="yes"/>
      <point x="839" y="504"/>
      <point x="751" y="294"/>
    </contour>
  </outline>
</glyph>
<glyph name="r" format="2">
  <advance width="889"/>
  <unicode hex="0072"/>
  <anchor x="214" y="0" name="bottom"/>
  <anchor x="412" y="0" name="bottomr"/>
  <anchor x="299" y="536" name="cross"/>
  <anchor x="575" y="1118" name="top"/>
  <outline>
    <contour>
      <point x="10" y="0" type="line"/>
      <point x="412" y="0" type="line"/>
      <point x="508" y="582" type="line" smooth="yes"/>
      <point x="530" y="710"/>
      <point x="630" y="794"/>
      <point x="749" y="794" type="curve" smooth="yes"/>
      <point x="790" y="794"/>
      <point x="856" y="788"/>
      <point x="894" y="774" type="curve"/>
      <point x="951" y="1116" type="line"/>
      <point x="920" y="1126"/>
      <point x="886" y="1132"/>
      <point x="851" y="1132" type="curve"/>
      <point x="732" y="1132"/>
      <point x="628" y="1062"/>
      <point x="562" y="904" type="curve"/>
      <point x="550" y="904" type="line"/>
      <point x="585" y="1118" type="line"/>
      <point x="195" y="1118" type="line"/>
    </contour>
  </outline>
</glyph>
<glyph name="s" format="2">
  <advance width="1202"/>
  <unicode hex="0073"/>
  <anchor x="506" y="0" name="bottom"/>
  <anchor x="513" y="0" name="cedilla"/>
  <anchor x="17" y="348" name="rthook"/>
  <anchor x="688" y="1118" name="top"/>
  <outline>
    <contour>
      <point x="524" y="-20" type="curve" smooth="yes"/>
      <point x="823" y="-20"/>
      <point x="1119" y="123"/>
      <point x="1119" y="401" type="curve" smooth="yes"/>
      <point x="1119" y="545"/>
      <point x="1014" y="635"/>
      <point x="818" y="670" type="curve" smooth="yes"/>
      <point x="596" y="710" type="line" smooth="yes"/>
      <point x="529" y="722"/>
      <point x="513" y="748"/>
      <point x="513" y="775" type="curve" smooth="yes"/>
      <point x="513" y="844"/>
      <point x="608" y="864"/>
      <point x="671" y="864" type="curve" smooth="yes"/>
      <point x="749" y="864"/>
      <point x="792" y="844"/>
      <point x="798" y="771" type="curve"/>
      <point x="1152" y="796" type="line"/>
      <point x="1152" y="797"/>
      <point x="1152" y="799"/>
      <point x="1152" y="800" type="curve" smooth="yes"/>
      <point x="1148" y="1001"/>
      <point x="971" y="1132"/>
      <point x="666" y="1132" type="curve" smooth="yes"/>
      <point x="369" y="1132"/>
      <point x="110" y="1005"/>
      <point x="110" y="735" type="curve" smooth="yes"/>
      <point x="110" y="588"/>
      <point x="212" y="479"/>
      <point x="407" y="442" type="curve" smooth="yes"/>
      <point x="599" y="406" type="line" smooth="yes"/>
      <point x="676" y="392"/>
      <point x="704" y="370"/>
      <point x="704" y="335" type="curve" smooth="yes"/>
      <point x="704" y="269"/>
      <point x="611" y="252"/>
      <point x="546" y="252" type="curve" smooth="yes"/>
      <point x="432" y="252"/>
      <point x="400" y="288"/>
      <point x="389" y="376" type="curve"/>
      <point x="17" y="348" type="line"/>
      <point x="17" y="346"/>
      <point x="17" y="345"/>
      <point x="17" y="343" type="curve" smooth="yes"/>
      <point x="20" y="126"/>
      <point x="211" y="-20"/>
    </contour>
  </outline>
</glyph>
<glyph name="t" format="2">
  <advance width="758"/>
  <unicode hex="0074"/>
  <anchor x="392.0" y="0" name="bottom"/>
  <anchor x="435.0" y="0" name="cedilla"/>
  <anchor x="728.7" y="15" name="lfthook"/>
  <anchor x="552.12" y="1384" name="top"/>
  <anchor x="915.16" y="1562" name="raccent"/>
  <outline>
    <contour>
      <point x="897.24" y="1118" type="line"/>
      <point x="509.24" y="1118" type="line"/>
      <point x="456.68" y="826" type="line"/>
      <point x="844.6800000000001" y="826" type="line"/>
    </contour>
    <component base="_part.t_base" yxScale="0.18" xOffset="-72.0"/>
  </outline>
</glyph>
<glyph name="u" format="2">
  <advance width="1331"/>
  <unicode hex="0075"/>
  <anchor x="589" y="0" name="bottom"/>
  <anchor x="1136" y="0" name="ogonek"/>
  <anchor x="919" y="1118" name="rtophorn"/>
  <anchor x="759" y="1118" name="top"/>
  <outline>
    <contour>
      <point x="398" y="-14" type="curve" smooth="yes"/>
      <point x="603" y="-14"/>
      <point x="731" y="117"/>
      <point x="810" y="286" type="curve"/>
      <point x="798" y="286" type="line"/>
      <point x="759" y="0" type="line"/>
      <point x="1136" y="0" type="line"/>
      <point x="1321" y="1118" type="line"/>
      <point x="919" y="1118" type="line"/>
      <point x="815" y="490" type="line" smooth="yes"/>
      <point x="797" y="379"/>
      <point x="723" y="312"/>
      <point x="624" y="312" type="curve" smooth="yes"/>
      <point x="523" y="312"/>
      <point x="475" y="379"/>
      <point x="493" y="490" type="curve" smooth="yes"/>
      <point x="597" y="1118" type="line"/>
      <point x="195" y="1118" type="line"/>
      <point x="77" y="406" type="line" smooth="yes"/>
      <point x="37" y="162"/>
      <point x="161" y="-14"/>
    </contour>
  </outline>
</glyph>
<glyph name="v" format="2">
  <advance width="1294"/>
  <unicode hex="0076"/>
  <anchor x="555" y="0" name="bottom"/>
  <anchor x="740" y="1118" name="top"/>
  <outline>
    <contour>
      <point x="318" y="0" type="line"/>
      <point x="790" y="0" type="line"/>
      <point x="1375" y="1118" type="line"/>
      <point x="943" y="1118" type="line"/>
      <point x="718" y="608" type="line" smooth="yes"/>
      <point x="650" y="456"/>
      <point x="596" y="304"/>
      <point x="534" y="120" type="curve"/>
      <point x="597" y="120" type="line"/>
      <point x="594" y="304"/>
      <point x="590" y="457"/>
      <point x="572" y="608" type="curve" smooth="yes"/>
      <point x="511" y="1118" type="line"/>
      <point x="105" y="1118" type="line"/>
    </contour>
  </outline>
</glyph>
<glyph name="w" format="2">
  <advance width="1796"/>
  <unicode hex="0077"/>
  <anchor x="796" y="0" name="bottom"/>
  <anchor x="989" y="1118" name="top"/>
  <outline>
    <contour>
      <point x="228" y="0" type="line"/>
      <point x="640" y="0" type="line"/>
      <point x="807" y="368" type="line" smooth="yes"/>
      <point x="855" y="474"/>
      <point x="919" y="677"/>
      <point x="967" y="792" type="curve"/>
      <point x="903" y="792" type="line"/>
      <point x="913" y="677"/>
      <point x="910" y="474"/>
      <point x="923" y="368" type="curve" smooth="yes"/>
      <point x="968" y="0" type="line"/>
      <point x="1380" y="0" type="line"/>
      <point x="1891" y="1118" type="line"/>
      <point x="1463" y="1118" type="line"/>
      <point x="1341" y="768" type="line" smooth="yes"/>
      <point x="1285" y="608"/>
      <point x="1222" y="432"/>
      <point x="1163" y="224" type="curve"/>
      <point x="1198" y="224" type="line"/>
      <point x="1202" y="432"/>
      <point x="1184" y="608"/>
      <point x="1178" y="768" type="curve" smooth="yes"/>
      <point x="1165" y="1118" type="line"/>
      <point x="817" y="1118" type="line"/>
      <point x="684" y="768" type="line" smooth="yes"/>
      <point x="624" y="609"/>
      <point x="550" y="432"/>
      <point x="484" y="224" type="curve"/>
      <point x="521" y="224" type="line"/>
      <point x="530" y="432"/>
      <point x="520" y="608"/>
      <point x="517" y="768" type="curve" smooth="yes"/>
      <point x="511" y="1118" type="line"/>
      <point x="91" y="1118" type="line"/>
    </contour>
  </outline>
</glyph>
<glyph name="x" format="2">
  <advance width="1248"/>
  <unicode hex="0078"/>
  <anchor x="530" y="0" name="bottom"/>
  <anchor x="1066" y="0" name="cyrtic"/>
  <anchor x="898" y="0" name="right"/>
  <anchor x="715" y="1118" name="top"/>
  <outline>
    <contour>
      <point x="-70" y="0" type="line"/>
      <point x="350" y="0" type="line"/>
      <point x="466" y="176" type="line" smooth="yes"/>
      <point x="545" y="295"/>
      <point x="617" y="429"/>
      <point x="687" y="548" type="curve"/>
      <point x="556" y="548" type="line"/>
      <point x="589" y="429"/>
      <point x="620" y="295"/>
      <point x="661" y="176" type="curve" smooth="yes"/>
      <point x="722" y="0" type="line"/>
      <point x="1132" y="0" type="line"/>
      <point x="822" y="731" type="line"/>
      <point x="770" y="418" type="line"/>
      <point x="1303" y="1118" type="line"/>
      <point x="882" y="1118" type="line"/>
      <point x="785" y="976" type="line" smooth="yes"/>
      <point x="705" y="858"/>
      <point x="630" y="726"/>
      <point x="558" y="609" type="curve"/>
      <point x="689" y="609" type="line"/>
      <point x="658" y="727"/>
      <point x="632" y="858"/>
      <point x="594" y="976" type="curve" smooth="yes"/>
      <point x="548" y="1118" type="line"/>
      <point x="135" y="1118" type="line"/>
      <point x="424" y="417" type="line"/>
      <point x="476" y="731" type="line"/>
    </contour>
  </outline>
</glyph>
<glyph name="y" format="2">
  <advance width="1302"/>
  <unicode hex="0079"/>
  <anchor x="942" y="0" name="bottom"/>
  <anchor x="773" y="0" name="ogonek"/>
  <anchor x="748" y="1118" name="top"/>
  <outline>
    <contour>
      <point x="-53" y="-388" type="line"/>
      <point x="6" y="-412"/>
      <point x="98" y="-426"/>
      <point x="190" y="-426" type="curve" smooth="yes"/>
      <point x="471" y="-426"/>
      <point x="621" y="-285"/>
      <point x="720" y="-102" type="curve" smooth="yes"/>
      <point x="1383" y="1118" type="line"/>
      <point x="959" y="1118" type="line"/>
      <point x="715" y="608" type="line" smooth="yes"/>
      <point x="643" y="457"/>
      <point x="584" y="307"/>
      <point x="519" y="120" type="curve"/>
      <point x="592" y="120" type="line"/>
      <point x="588" y="307"/>
      <point x="597" y="455"/>
      <point x="580" y="608" type="curve" smooth="yes"/>
      <point x="519" y="1118" type="line"/>
      <point x="105" y="1118" type="line"/>
      <point x="334" y="-1" type="line"/>
      <point x="340" y="-33" type="line" smooth="yes"/>
      <point x="353" y="-103"/>
      <point x="257" y="-151"/>
      <point x="132" y="-116" type="curve" smooth="yes"/>
      <point x="82" y="-102" type="line"/>
    </contour>
  </outline>
</glyph>
<glyph name="z" format="2">
  <advance width="1208"/>
  <unicode hex="007A"/>
  <anchor x="517" y="0" name="bottom"/>
  <anchor x="1001" y="0" name="bottomr"/>
  <anchor x="601" y="558" name="cross"/>
  <anchor x="698" y="1118" name="top"/>
  <outline>
    <contour>
      <point x="21" y="0" type="line"/>
      <point x="1001" y="0" type="line"/>
      <point x="1052" y="306" type="line"/>
      <point x="598" y="306" type="line"/>
      <point x="599" y="312" type="line"/>
      <point x="1127" y="872" type="line"/>
      <point x="1168" y="1118" type="line"/>
      <point x="222" y="1118" type="line"/>
      <point x="171" y="812" type="line"/>
      <point x="635" y="812" type="line"/>
      <point x="634" y="806" type="line"/>
      <point x="58" y="222" type="line"/>
    </contour>
  </outline>
</glyph>
<glyph name="braceleft" format="2">
  <advance width="1035"/>
  <unicode hex="007B"/>
  <outline>
    <contour>
      <point x="148" y="627" type="line"/>
      <point x="664" y="627"/>
      <point x="778" y="804"/>
      <point x="802" y="949" type="curve" smooth="yes"/>
      <point x="828" y="1109" type="line" smooth="yes"/>
      <point x="848" y="1231"/>
      <point x="897" y="1289"/>
      <point x="1072" y="1289" type="curve"/>
      <point x="1120" y="1581" type="line"/>
      <point x="820" y="1581"/>
      <point x="532" y="1580"/>
      <point x="463" y="1161" type="curve" smooth="yes"/>
      <point x="441" y="1033" type="line" smooth="yes"/>
      <point x="418" y="890"/>
      <point x="350" y="825"/>
      <point x="181" y="825" type="curve"/>
    </contour>
    <contour>
      <point x="812" y="-279" type="curve"/>
      <point x="861" y="13" type="line"/>
      <point x="686" y="13"/>
      <point x="656" y="71"/>
      <point x="676" y="193" type="curve" smooth="yes"/>
      <point x="703" y="353" type="line" smooth="yes"/>
      <point x="727" y="498"/>
      <point x="672" y="675"/>
      <point x="156" y="675" type="curve"/>
      <point x="123" y="477" type="line"/>
      <point x="292" y="477"/>
      <point x="339" y="412"/>
      <point x="315" y="269" type="curve" smooth="yes"/>
      <point x="294" y="141" type="line" smooth="yes"/>
      <point x="224" y="-278"/>
      <point x="512" y="-279"/>
    </contour>
    <contour>
      <point x="123" y="477" type="line"/>
      <point x="463" y="477" type="line"/>
      <point x="521" y="825" type="line"/>
      <point x="181" y="825" type="line"/>
    </contour>
  </outline>
</glyph>
<glyph name="bar" format="2">
  <advance width="830"/>
  <unicode hex="007C"/>
  <outline>
    <contour>
      <point x="846" y="1970" type="line"/>
      <point x="452" y="1970" type="line"/>
      <point x="46" y="-480" type="line"/>
      <point x="440" y="-480" type="line"/>
    </contour>
  </outline>
</glyph>
<glyph name="braceright" format="2">
  <advance width="1035"/>
  <unicode hex="007D"/>
  <outline>
    <contour>
      <point x="908" y="627" type="curve"/>
      <point x="942" y="825" type="line"/>
      <point x="773" y="825"/>
      <point x="725" y="890"/>
      <point x="750" y="1033" type="curve" smooth="yes"/>
      <point x="772" y="1161" type="line" smooth="yes"/>
      <point x="844" y="1580"/>
      <point x="553" y="1581"/>
      <point x="253" y="1581" type="curve"/>
      <point x="205" y="1289" type="line"/>
      <point x="380" y="1289"/>
      <point x="409" y="1231"/>
      <point x="389" y="1109" type="curve" smooth="yes"/>
      <point x="363" y="949" type="line" smooth="yes"/>
      <point x="339" y="804"/>
      <point x="392" y="627"/>
    </contour>
    <contour>
      <point x="-55" y="-279" type="line"/>
      <point x="245" y="-279"/>
      <point x="534" y="-278"/>
      <point x="603" y="141" type="curve" smooth="yes"/>
      <point x="624" y="269" type="line" smooth="yes"/>
      <point x="647" y="412"/>
      <point x="715" y="477"/>
      <point x="884" y="477" type="curve"/>
      <point x="916" y="675" type="line"/>
      <point x="400" y="675"/>
      <point x="288" y="498"/>
      <point x="264" y="353" type="curve" smooth="yes"/>
      <point x="237" y="193" type="line" smooth="yes"/>
      <point x="216" y="71"/>
      <point x="169" y="13"/>
      <point x="-6" y="13" type="curve"/>
    </contour>
    <contour>
      <point x="884" y="477" type="line"/>
      <point x="942" y="825" type="line"/>
      <point x="602" y="825" type="line"/>
      <point x="544" y="477" type="line"/>
    </contour>
  </outline>
</glyph>
<glyph name="asciitilde" format="2">
  <advance width="1420"/>
  <unicode hex="007E"/>
  <outline>
    <contour>
      <point x="120" y="376" type="curve"/>
      <point x="410" y="376" type="line"/>
      <point x="425" y="492"/>
      <point x="480" y="538"/>
      <point x="542" y="538" type="curve" smooth="yes"/>
      <point x="591" y="538"/>
      <point x="605" y="515"/>
      <point x="652" y="468" type="curve" smooth="yes"/>
      <point x="737" y="383"/>
      <point x="809" y="346"/>
      <point x="904" y="346" type="curve" smooth="yes"/>
      <point x="1126" y="346"/>
      <point x="1280" y="538"/>
      <point x="1318" y="834" type="curve"/>
      <point x="1026" y="834" type="line"/>
      <point x="1009" y="719"/>
      <point x="954" y="672"/>
      <point x="894" y="672" type="curve" smooth="yes"/>
      <point x="844" y="672"/>
      <point x="820" y="701"/>
      <point x="780" y="742" type="curve" smooth="yes"/>
      <point x="687" y="835"/>
      <point x="617" y="864"/>
      <point x="530" y="864" type="curve" smooth="yes"/>
      <point x="300" y="864"/>
      <point x="154" y="675"/>
    </contour>
  </outline>
</glyph>
<glyph name="exclamdown" format="2">
  <advance width="780"/>
  <unicode hex="00A1"/>
  <outline>
    <contour>
      <point x="24" y="-372" type="line"/>
      <point x="448" y="-372" type="line"/>
      <point x="588" y="652" type="line"/>
      <point x="224" y="652" type="line"/>
    </contour>
    <contour>
      <point x="421" y="744" type="curve" smooth="yes"/>
      <point x="551" y="744"/>
      <point x="648" y="820"/>
      <point x="668" y="943" type="curve" smooth="yes"/>
      <point x="688" y="1066"/>
      <point x="617" y="1142"/>
      <point x="487" y="1142" type="curve" smooth="yes"/>
      <point x="357" y="1142"/>
      <point x="260" y="1066"/>
      <point x="240" y="943" type="curve" smooth="yes"/>
      <point x="220" y="820"/>
      <point x="291" y="744"/>
    </contour>
  </outline>
</glyph>
<glyph name="cent" format="2">
  <advance width="1233"/>
  <unicode hex="00A2"/>
  <anchor x="578" y="190" name="bottom"/>
  <anchor x="578" y="190" name="cedilla"/>
  <anchor x="671" y="749" name="center"/>
  <anchor x="764" y="1308" name="top"/>
  <anchor x="1231" y="897" name="topr"/>
  <outline>
    <contour>
      <point x="491" y="0" type="line"/>
      <point x="611" y="0" type="line"/>
      <point x="858" y="1490" type="line"/>
      <point x="738" y="1490" type="line"/>
    </contour>
    <component base="c" xOffset="31" yOffset="190"/>
  </outline>
</glyph>
<glyph name="currency" format="2">
  <advance width="1624"/>
  <unicode hex="00A4"/>
  <outline>
    <contour>
      <point x="718" y="-20" type="curve" smooth="yes"/>
      <point x="1057" y="-20"/>
      <point x="1386" y="253"/>
      <point x="1446" y="608" type="curve" smooth="yes"/>
      <point x="1503" y="963"/>
      <point x="1264" y="1233"/>
      <point x="926" y="1234" type="curve" smooth="yes"/>
      <point x="580" y="1233"/>
      <point x="255" y="963"/>
      <point x="198" y="608" type="curve"/>
      <point x="138" y="253"/>
      <point x="374" y="-20"/>
    </contour>
    <contour>
      <point x="754" y="190" type="curve" smooth="yes"/>
      <point x="513" y="189"/>
      <point x="359" y="369"/>
      <point x="402" y="608" type="curve"/>
      <point x="441" y="849"/>
      <point x="653" y="1027"/>
      <point x="894" y="1026" type="curve" smooth="yes"/>
      <point x="1124" y="1027"/>
      <point x="1284" y="849"/>
      <point x="1246" y="608" type="curve" smooth="yes"/>
      <point x="1203" y="369"/>
      <point x="985" y="189"/>
    </contour>
    <contour>
      <point x="1330" y="908" type="line"/>
      <point x="1576" y="1114" type="line"/>
      <point x="1446" y="1272" type="line"/>
      <point x="1202" y="1064" type="line"/>
    </contour>
    <contour>
      <point x="1228" y="-32" type="line"/>
      <point x="1410" y="126" type="line"/>
      <point x="1234" y="328" type="line"/>
      <point x="1054" y="174" type="line"/>
    </contour>
    <contour>
      <point x="204" y="-32" type="line"/>
      <point x="450" y="174" type="line"/>
      <point x="320" y="328" type="line"/>
      <point x="76" y="126" type="line"/>
    </contour>
    <contour>
      <point x="416" y="908" type="line"/>
      <point x="600" y="1064" type="line"/>
      <point x="422" y="1272" type="line"/>
      <point x="242" y="1114" type="line"/>
    </contour>
  </outline>
</glyph>
<glyph name="yen" format="2">
  <advance width="1204"/>
  <unicode hex="00A5"/>
  <outline>
    <contour>
      <point x="588" y="1490" type="line"/>
      <point x="184" y="1490" type="line"/>
      <point x="430" y="562" type="line"/>
      <point x="730" y="792" type="line"/>
    </contour>
    <contour>
      <point x="558" y="802" type="line"/>
      <point x="770" y="562" type="line"/>
      <point x="1330" y="1490" type="line"/>
      <point x="926" y="1490" type="line"/>
    </contour>
    <contour>
      <point x="832" y="786" type="line"/>
      <point x="434" y="786" type="line"/>
      <point x="302" y="0" type="line"/>
      <point x="702" y="0" type="line"/>
    </contour>
    <contour>
      <point x="1106" y="786" type="line"/>
      <point x="122" y="786" type="line"/>
      <point x="88" y="574" type="line"/>
      <point x="1070" y="574" type="line"/>
    </contour>
    <contour>
      <point x="1058" y="498" type="line"/>
      <point x="76" y="498" type="line"/>
      <point x="38" y="286" type="line"/>
      <point x="1022" y="286" type="line"/>
    </contour>
  </outline>
</glyph>
<glyph name="brokenbar" format="2">
  <advance width="814"/>
  <unicode hex="00A6"/>
  <outline>
    <contour>
      <point x="206" y="424" type="line"/>
      <point x="90" y="-280" type="line"/>
      <point x="446" y="-280" type="line"/>
      <point x="562" y="424" type="line"/>
    </contour>
    <contour>
      <point x="738" y="1490" type="line"/>
      <point x="384" y="1490" type="line"/>
      <point x="268" y="788" type="line"/>
      <point x="622" y="788" type="line"/>
    </contour>
  </outline>
</glyph>
<glyph name="section" format="2">
  <advance width="1164"/>
  <unicode hex="00A7"/>
  <outline>
    <contour>
      <point x="442" y="-300" type="curve" smooth="yes"/>
      <point x="726" y="-300"/>
      <point x="941" y="-141"/>
      <point x="981" y="94" type="curve" smooth="yes"/>
      <point x="1002" y="218"/>
      <point x="976" y="367"/>
      <point x="817" y="430" type="curve"/>
      <point x="817" y="431" type="line"/>
      <point x="965" y="434"/>
      <point x="1084" y="502"/>
      <point x="1109" y="648" type="curve" smooth="yes"/>
      <point x="1133" y="788"/>
      <point x="1054" y="892"/>
      <point x="913" y="926" type="curve" smooth="yes"/>
      <point x="677" y="983" type="line" smooth="yes"/>
      <point x="571" y="1009"/>
      <point x="532" y="1045"/>
      <point x="542" y="1113" type="curve" smooth="yes"/>
      <point x="552" y="1181"/>
      <point x="601" y="1214"/>
      <point x="676" y="1214" type="curve" smooth="yes"/>
      <point x="752" y="1214"/>
      <point x="787" y="1180"/>
      <point x="785" y="1108" type="curve"/>
      <point x="1127" y="1157" type="line"/>
      <point x="1132" y="1380"/>
      <point x="993" y="1514"/>
      <point x="722" y="1514" type="curve" smooth="yes"/>
      <point x="436" y="1514"/>
      <point x="237" y="1363"/>
      <point x="196" y="1114" type="curve" smooth="yes"/>
      <point x="170" y="956"/>
      <point x="222" y="840"/>
      <point x="363" y="770" type="curve"/>
      <point x="363" y="769" type="line"/>
      <point x="221" y="775"/>
      <point x="100" y="725"/>
      <point x="72" y="572" type="curve" smooth="yes"/>
      <point x="45" y="424"/>
      <point x="128" y="313"/>
      <point x="276" y="275" type="curve" smooth="yes"/>
      <point x="513" y="214" type="line" smooth="yes"/>
      <point x="608" y="190"/>
      <point x="642" y="154"/>
      <point x="634" y="99" type="curve" smooth="yes"/>
      <point x="625" y="40"/>
      <point x="574" y="4"/>
      <point x="490" y="4" type="curve" smooth="yes"/>
      <point x="400" y="4"/>
      <point x="355" y="45"/>
      <point x="357" y="116" type="curve"/>
      <point x="18" y="67" type="line"/>
      <point x="13" y="-155"/>
      <point x="170" y="-300"/>
    </contour>
    <contour>
      <point x="670" y="470" type="curve" smooth="yes"/>
      <point x="474" y="514" type="line" smooth="yes"/>
      <point x="395" y="532"/>
      <point x="353" y="593"/>
      <point x="381" y="659" type="curve" smooth="yes"/>
      <point x="407" y="721"/>
      <point x="471" y="734"/>
      <point x="507" y="725" type="curve" smooth="yes"/>
      <point x="698" y="677" type="line" smooth="yes"/>
      <point x="796" y="652"/>
      <point x="809" y="588"/>
      <point x="789" y="539" type="curve" smooth="yes"/>
      <point x="765" y="481"/>
      <point x="705" y="462"/>
    </contour>
  </outline>
</glyph>
<glyph name="copyright" format="2">
  <advance width="1873"/>
  <unicode hex="00A9"/>
  <outline>
    <contour>
      <point x="576" y="744" type="curve" smooth="yes"/>
      <point x="539" y="527"/>
      <point x="688" y="350"/>
      <point x="907" y="350" type="curve" smooth="yes"/>
      <point x="1100" y="350"/>
      <point x="1285" y="490"/>
      <point x="1335" y="674" type="curve"/>
      <point x="1093" y="674" type="line"/>
      <point x="1072" y="620"/>
      <point x="1009" y="582"/>
      <point x="945" y="582" type="curve" smooth="yes"/>
      <point x="855" y="582"/>
      <point x="794" y="656"/>
      <point x="808" y="746" type="curve" smooth="yes"/>
      <point x="823" y="836"/>
      <point x="909" y="908"/>
      <point x="999" y="908" type="curve" smooth="yes"/>
      <point x="1063" y="908"/>
      <point x="1113" y="870"/>
      <point x="1116" y="814" type="curve"/>
      <point x="1358" y="814" type="line"/>
      <point x="1369" y="999"/>
      <point x="1231" y="1140"/>
      <point x="1038" y="1140" type="curve" smooth="yes"/>
      <point x="819" y="1140"/>
      <point x="611" y="963"/>
    </contour>
    <component base="circlewhite"/>
  </outline>
</glyph>
<glyph name="ordfeminine" format="2">
  <advance width="966"/>
  <unicode hex="00AA"/>
  <anchor x="494" y="673" name="bottom"/>
  <anchor x="896" y="673" name="ogonek"/>
  <anchor x="642" y="1512" name="top"/>
  <outline>
    <contour>
      <point x="356" y="659" type="curve" smooth="yes"/>
      <point x="481" y="659"/>
      <point x="573" y="701"/>
      <point x="637" y="791" type="curve"/>
      <point x="644" y="791" type="line"/>
      <point x="624" y="673" type="line"/>
      <point x="896" y="673" type="line"/>
      <point x="991" y="1246" type="line" smooth="yes"/>
      <point x="1018" y="1408"/>
      <point x="864" y="1522"/>
      <point x="634" y="1522" type="curve" smooth="yes"/>
      <point x="402" y="1522"/>
      <point x="245" y="1411"/>
      <point x="189" y="1271" type="curve"/>
      <point x="448" y="1243" type="line"/>
      <point x="469" y="1292"/>
      <point x="522" y="1321"/>
      <point x="598" y="1321" type="curve" smooth="yes"/>
      <point x="670" y="1321"/>
      <point x="709" y="1294"/>
      <point x="701" y="1247" type="curve" smooth="yes"/>
      <point x="701" y="1244" type="line" smooth="yes"/>
      <point x="693" y="1195"/>
      <point x="636" y="1181"/>
      <point x="479" y="1170" type="curve" smooth="yes"/>
      <point x="292" y="1157"/>
      <point x="133" y="1087"/>
      <point x="103" y="905" type="curve" smooth="yes"/>
      <point x="75" y="738"/>
      <point x="184" y="659"/>
    </contour>
    <contour>
      <point x="477" y="845" type="curve" smooth="yes"/>
      <point x="414" y="845"/>
      <point x="372" y="871"/>
      <point x="380" y="921" type="curve" smooth="yes"/>
      <point x="388" y="965"/>
      <point x="432" y="999"/>
      <point x="515" y="1011" type="curve" smooth="yes"/>
      <point x="571" y="1019"/>
      <point x="635" y="1029"/>
      <point x="671" y="1043" type="curve"/>
      <point x="659" y="970" type="line" smooth="yes"/>
      <point x="646" y="892"/>
      <point x="564" y="845"/>
    </contour>
  </outline>
</glyph>
<glyph name="logicalnot" format="2">
  <advance width="1420"/>
  <unicode hex="00AC"/>
  <outline>
    <contour>
      <point x="797" y="259" type="line"/>
      <point x="1123" y="259" type="line"/>
      <point x="1215" y="814" type="line"/>
      <point x="251" y="814" type="line"/>
      <point x="199" y="504" type="line"/>
      <point x="837" y="504" type="line"/>
    </contour>
  </outline>
</glyph>
<glyph name="registered" format="2">
  <advance width="1350"/>
  <unicode hex="00AE"/>
  <outline>
    <contour>
      <point x="638" y="346" type="curve" smooth="yes"/>
      <point x="961" y="346"/>
      <point x="1263" y="607"/>
      <point x="1317" y="928" type="curve" smooth="yes"/>
      <point x="1370" y="1249"/>
      <point x="1153" y="1510"/>
      <point x="831" y="1510" type="curve" smooth="yes"/>
      <point x="510" y="1510"/>
      <point x="208" y="1249"/>
      <point x="155" y="928" type="curve" smooth="yes"/>
      <point x="101" y="607"/>
      <point x="317" y="346"/>
    </contour>
    <contour>
      <point x="665" y="510" type="curve" smooth="yes"/>
      <point x="435" y="510"/>
      <point x="278" y="697"/>
      <point x="317" y="928" type="curve" smooth="yes"/>
      <point x="355" y="1159"/>
      <point x="574" y="1346"/>
      <point x="804" y="1346" type="curve" smooth="yes"/>
      <point x="1036" y="1346"/>
      <point x="1193" y="1159"/>
      <point x="1155" y="928" type="curve" smooth="yes"/>
      <point x="1116" y="696"/>
      <point x="898" y="510"/>
    </contour>
    <contour>
      <point x="777" y="666" type="line"/>
      <point x="947" y="666" type="line"/>
      <point x="872" y="910" type="line"/>
      <point x="716" y="910" type="line"/>
    </contour>
    <contour>
      <point x="477" y="666" type="line"/>
      <point x="631" y="666" type="line"/>
      <point x="701" y="1090" type="line"/>
      <point x="773" y="1090" type="line" smooth="yes"/>
      <point x="821" y="1090"/>
      <point x="841" y="1064"/>
      <point x="833" y="1015" type="curve" smooth="yes"/>
      <point x="825" y="966"/>
      <point x="796" y="940"/>
      <point x="749" y="940" type="curve" smooth="yes"/>
      <point x="605" y="940" type="line"/>
      <point x="589" y="846" type="line"/>
      <point x="759" y="846" type="line" smooth="yes"/>
      <point x="886" y="846"/>
      <point x="973" y="909"/>
      <point x="992" y="1022" type="curve" smooth="yes"/>
      <point x="1010" y="1132"/>
      <point x="947.994" y="1202"/>
      <point x="822" y="1202" type="curve" smooth="yes"/>
      <point x="566" y="1202" type="line"/>
    </contour>
  </outline>
</glyph>
<glyph name="degree" format="2">
  <advance width="948"/>
  <unicode hex="00B0"/>
  <outline>
    <contour>
      <point x="568" y="754" type="curve" smooth="yes"/>
      <point x="773" y="753"/>
      <point x="940" y="920"/>
      <point x="940" y="1126" type="curve" smooth="yes"/>
      <point x="940" y="1332"/>
      <point x="773" y="1498"/>
      <point x="568" y="1498" type="curve" smooth="yes"/>
      <point x="361" y="1498"/>
      <point x="195" y="1332"/>
      <point x="194" y="1126" type="curve" smooth="yes"/>
      <point x="195" y="920"/>
      <point x="361" y="753"/>
    </contour>
    <contour>
      <point x="568" y="1000" type="curve" smooth="yes"/>
      <point x="498" y="1001"/>
      <point x="442" y="1057"/>
      <point x="442" y="1126" type="curve" smooth="yes"/>
      <point x="442" y="1195"/>
      <point x="498" y="1251"/>
      <point x="568" y="1250" type="curve" smooth="yes"/>
      <point x="636" y="1251"/>
      <point x="692" y="1195"/>
      <point x="692" y="1126" type="curve" smooth="yes"/>
      <point x="692" y="1057"/>
      <point x="636" y="1001"/>
    </contour>
  </outline>
</glyph>
<glyph name="plusminus" format="2">
  <advance width="1420"/>
  <unicode hex="00B1"/>
  <outline>
    <contour>
      <point x="84" y="46" type="line"/>
      <point x="1166" y="46" type="line"/>
      <point x="1216" y="350" type="line"/>
      <point x="134" y="350" type="line"/>
    </contour>
    <contour>
      <point x="186" y="664" type="line"/>
      <point x="1268" y="664" type="line"/>
      <point x="1318" y="954" type="line"/>
      <point x="236" y="954" type="line"/>
    </contour>
    <contour>
      <point x="526" y="442" type="line"/>
      <point x="852" y="442" type="line"/>
      <point x="974" y="1176" type="line"/>
      <point x="648" y="1176" type="line"/>
    </contour>
  </outline>
</glyph>
<glyph name="two.sups" format="2">
  <advance width="973"/>
  <unicode hex="00B2"/>
  <anchor x="809.94" y="1283" name="cross"/>
  <anchor x="799.04" y="1728" name="top"/>
  <outline>
    <contour>
      <point x="269.48" y="886" type="line"/>
      <point x="1038.48" y="886" type="line"/>
      <point x="1078.44" y="1108" type="line"/>
      <point x="703.44" y="1108" type="line"/>
      <point x="705.06" y="1117" type="line"/>
      <point x="727.68" y="1126" type="line" smooth="yes"/>
      <point x="1072.34" y="1263"/>
      <point x="1112.5" y="1375"/>
      <point x="1129.96" y="1472" type="curve" smooth="yes"/>
      <point x="1158.94" y="1633"/>
      <point x="1029.84" y="1738"/>
      <point x="776.8399999999999" y="1738" type="curve" smooth="yes"/>
      <point x="548.8399999999999" y="1738"/>
      <point x="378.12" y="1634"/>
      <point x="346.08" y="1456" type="curve"/>
      <point x="616.0799999999999" y="1456" type="line"/>
      <point x="624.9" y="1505"/>
      <point x="671.6800000000001" y="1526"/>
      <point x="739.6800000000001" y="1526" type="curve" smooth="yes"/>
      <point x="808.6800000000001" y="1526"/>
      <point x="854.46" y="1497"/>
      <point x="844.56" y="1442" type="curve" smooth="yes"/>
      <point x="837.72" y="1404"/>
      <point x="802.4" y="1380"/>
      <point x="720.76" y="1332" type="curve" smooth="yes"/>
      <point x="305.84000000000003" y="1088" type="line"/>
    </contour>
  </outline>
</glyph>
<glyph name="three.sups" format="2">
  <advance width="1012"/>
  <unicode hex="00B3"/>
  <anchor x="815.04" y="1728" name="top"/>
  <outline>
    <contour>
      <point x="653.6800000000001" y="876" type="curve" smooth="yes"/>
      <point x="899.6800000000001" y="876"/>
      <point x="1093.4" y="980"/>
      <point x="1121.66" y="1137" type="curve" smooth="yes"/>
      <point x="1139.48" y="1236"/>
      <point x="1076.82" y="1299"/>
      <point x="906.52" y="1314" type="curve"/>
      <point x="908.14" y="1323" type="line"/>
      <point x="1030.22" y="1329"/>
      <point x="1128.2" y="1390"/>
      <point x="1143.8600000000001" y="1477" type="curve" smooth="yes"/>
      <point x="1171.22" y="1629"/>
      <point x="1033.84" y="1738"/>
      <point x="811.8399999999999" y="1738" type="curve" smooth="yes"/>
      <point x="594.8399999999999" y="1738"/>
      <point x="401.21999999999997" y="1629"/>
      <point x="371.88" y="1466" type="curve"/>
      <point x="643.88" y="1466" type="line"/>
      <point x="649.46" y="1497"/>
      <point x="699.24" y="1518"/>
      <point x="767.24" y="1518" type="curve" smooth="yes"/>
      <point x="836.24" y="1518"/>
      <point x="870.28" y="1496"/>
      <point x="862.72" y="1454" type="curve" smooth="yes"/>
      <point x="854.98" y="1411"/>
      <point x="809.76" y="1382"/>
      <point x="750.76" y="1382" type="curve" smooth="yes"/>
      <point x="618.76" y="1382" type="line"/>
      <point x="593.2" y="1240" type="line"/>
      <point x="725.2" y="1240" type="line" smooth="yes"/>
      <point x="789.2" y="1240"/>
      <point x="827.98" y="1211"/>
      <point x="820.06" y="1167" type="curve" smooth="yes"/>
      <point x="812.14" y="1123"/>
      <point x="762.8199999999999" y="1099"/>
      <point x="692.8199999999999" y="1099" type="curve" smooth="yes"/>
      <point x="622.8199999999999" y="1099"/>
      <point x="583.14" y="1123"/>
      <point x="589.98" y="1161" type="curve"/>
      <point x="298.98" y="1161" type="line"/>
      <point x="269.1" y="995"/>
      <point x="447.68" y="876"/>
    </contour>
  </outline>
</glyph>
<glyph name="micro" format="2">
  <advance width="1361"/>
  <unicode hex="00B5"/>
  <outline>
    <contour>
      <point x="-59" y="-418" type="line"/>
      <point x="341" y="-418" type="line"/>
      <point x="479" y="417" type="line"/>
      <point x="423" y="417" type="line"/>
      <point x="374" y="119"/>
      <point x="480" y="32"/>
      <point x="594" y="32" type="curve" smooth="yes"/>
      <point x="701" y="32"/>
      <point x="832" y="119"/>
      <point x="881" y="417" type="curve"/>
      <point x="825" y="417" type="line"/>
      <point x="808" y="316" type="line" smooth="yes"/>
      <point x="775" y="113"/>
      <point x="853" y="0"/>
      <point x="1054" y="0" type="curve" smooth="yes"/>
      <point x="1258" y="0" type="line"/>
      <point x="1308" y="304" type="line"/>
      <point x="1250" y="304" type="line" smooth="yes"/>
      <point x="1208" y="304"/>
      <point x="1190" y="328"/>
      <point x="1197" y="370" type="curve" smooth="yes"/>
      <point x="1321" y="1118" type="line"/>
      <point x="921" y="1118" type="line"/>
      <point x="814" y="472" type="line" smooth="yes"/>
      <point x="796" y="364"/>
      <point x="719" y="298"/>
      <point x="622" y="298" type="curve" smooth="yes"/>
      <point x="525" y="298"/>
      <point x="470" y="364"/>
      <point x="488" y="472" type="curve" smooth="yes"/>
      <point x="595" y="1118" type="line"/>
      <point x="195" y="1118" type="line"/>
    </contour>
  </outline>
</glyph>
<glyph name="paragraph" format="2">
  <advance width="1224"/>
  <unicode hex="00B6"/>
  <outline>
    <contour>
      <point x="1197" y="1198" type="line"/>
      <point x="1247" y="1490" type="line"/>
      <point x="723" y="1490" type="line" smooth="yes"/>
      <point x="389" y="1490"/>
      <point x="176" y="1289"/>
      <point x="129" y="1022" type="curve" smooth="yes"/>
      <point x="86" y="751"/>
      <point x="234" y="552"/>
      <point x="569" y="552" type="curve" smooth="yes"/>
      <point x="657" y="552" type="line"/>
      <point x="761" y="1198" type="line"/>
    </contour>
    <contour>
      <point x="743" y="0" type="line"/>
      <point x="1035" y="0" type="line"/>
      <point x="1281" y="1490" type="line"/>
      <point x="991" y="1490" type="line"/>
    </contour>
  </outline>
</glyph>
<glyph name="one.sups" format="2">
  <advance width="733"/>
  <unicode hex="00B9"/>
  <outline>
    <contour>
      <point x="940.04" y="1728" type="line"/>
      <point x="641.04" y="1728" type="line"/>
      <point x="410.71999999999997" y="1604" type="line"/>
      <point x="368.6" y="1370" type="line"/>
      <point x="601.74" y="1493" type="line"/>
      <point x="612.74" y="1493" type="line"/>
      <point x="503.48" y="886" type="line"/>
      <point x="788.48" y="886" type="line"/>
    </contour>
  </outline>
</glyph>
<glyph name="ordmasculine" format="2">
  <advance width="1016"/>
  <unicode hex="00BA"/>
  <anchor x="527" y="673" name="bottom"/>
  <anchor x="597" y="1092" name="center"/>
  <anchor x="1049" y="1090" name="ogonek"/>
  <anchor x="666" y="1512" name="top"/>
  <anchor x="668" y="1522" name="tophorn"/>
  <outline>
    <contour>
      <point x="525" y="658" type="curve" smooth="yes"/>
      <point x="808" y="658"/>
      <point x="1007" y="832"/>
      <point x="1049" y="1090" type="curve" smooth="yes"/>
      <point x="1092" y="1347"/>
      <point x="951" y="1522"/>
      <point x="668" y="1522" type="curve" smooth="yes"/>
      <point x="385" y="1522"/>
      <point x="186" y="1347"/>
      <point x="143" y="1090" type="curve" smooth="yes"/>
      <point x="101" y="832"/>
      <point x="242" y="658"/>
    </contour>
    <contour>
      <point x="561" y="876" type="curve" smooth="yes"/>
      <point x="460" y="876"/>
      <point x="418" y="958"/>
      <point x="440" y="1091" type="curve" smooth="yes"/>
      <point x="462" y="1225"/>
      <point x="531" y="1304"/>
      <point x="632" y="1304" type="curve" smooth="yes"/>
      <point x="733" y="1304"/>
      <point x="776" y="1225"/>
      <point x="754" y="1091" type="curve" smooth="yes"/>
      <point x="732" y="958"/>
      <point x="662" y="876"/>
    </contour>
  </outline>
</glyph>
<glyph name="AE" format="2">
  <advance width="2164"/>
  <unicode hex="00C6"/>
  <anchor x="1506" y="1490" name="top"/>
  <outline>
    <contour>
      <point x="-47" y="0" type="line"/>
      <point x="399" y="0" type="line"/>
      <point x="970" y="1080" type="line"/>
      <point x="1072" y="1080" type="line"/>
      <point x="893" y="0" type="line"/>
      <point x="1963" y="0" type="line"/>
      <point x="2017" y="326" type="line"/>
      <point x="1351" y="326" type="line"/>
      <point x="1393" y="582" type="line"/>
      <point x="2007" y="582" type="line"/>
      <point x="2061" y="908" type="line"/>
      <point x="1447" y="908" type="line"/>
      <point x="1490" y="1164" type="line"/>
      <point x="2160" y="1164" type="line"/>
      <point x="2214" y="1490" type="line"/>
      <point x="782" y="1490" type="line"/>
    </contour>
    <contour>
      <point x="358" y="286" type="line"/>
      <point x="1178" y="286" type="line"/>
      <point x="1228" y="588" type="line"/>
      <point x="408" y="588" type="line"/>
    </contour>
  </outline>
</glyph>
<glyph name="multiply" format="2">
  <advance width="1420"/>
  <unicode hex="00D7"/>
  <outline>
    <contour>
      <point x="952" y="32" type="line"/>
      <point x="1236" y="276" type="line"/>
      <point x="482" y="1178" type="line"/>
      <point x="198" y="930" type="line"/>
    </contour>
    <contour>
      <point x="294" y="32" type="line"/>
      <point x="1344" y="930" type="line"/>
      <point x="1140" y="1178" type="line"/>
      <point x="90" y="276" type="line"/>
    </contour>
  </outline>
</glyph>
<glyph name="Thorn" format="2">
  <advance width="1428"/>
  <unicode hex="00DE"/>
  <outline>
    <contour>
      <point x="254" y="1490" type="line"/>
      <point x="6" y="0" type="line"/>
      <point x="410" y="0" type="line"/>
      <point x="658" y="1490" type="line"/>
    </contour>
    <contour>
      <point x="398" y="1240" type="line"/>
      <point x="350" y="940" type="line"/>
      <point x="738" y="940" type="line" smooth="yes"/>
      <point x="899" y="940"/>
      <point x="934" y="844"/>
      <point x="922" y="762" type="curve" smooth="yes"/>
      <point x="908" y="684"/>
      <point x="841" y="591"/>
      <point x="680" y="590" type="curve" smooth="yes"/>
      <point x="290" y="590" type="line"/>
      <point x="242" y="294" type="line"/>
      <point x="632" y="294" type="line" smooth="yes"/>
      <point x="1018" y="294"/>
      <point x="1263" y="486"/>
      <point x="1310" y="766" type="curve" smooth="yes"/>
      <point x="1356" y="1044"/>
      <point x="1175" y="1239"/>
      <point x="788" y="1240" type="curve" smooth="yes"/>
    </contour>
  </outline>
</glyph>
<glyph name="germandbls" format="2">
  <advance width="1418"/>
  <unicode hex="00DF"/>
  <outline>
    <contour>
      <point x="3" y="0" type="line"/>
      <point x="405" y="0" type="line"/>
      <point x="573" y="1012" type="line" smooth="yes"/>
      <point x="591" y="1119"/>
      <point x="669" y="1184"/>
      <point x="781" y="1184" type="curve" smooth="yes"/>
      <point x="888" y="1184"/>
      <point x="940" y="1124"/>
      <point x="925" y="1036" type="curve" smooth="yes"/>
      <point x="912" y="956"/>
      <point x="849" y="898"/>
      <point x="772" y="898" type="curve" smooth="yes"/>
      <point x="704" y="898" type="line"/>
      <point x="656" y="606" type="line"/>
      <point x="762" y="606" type="line" smooth="yes"/>
      <point x="890" y="606"/>
      <point x="961" y="552"/>
      <point x="946" y="460" type="curve" smooth="yes"/>
      <point x="931" y="369"/>
      <point x="849" y="314"/>
      <point x="735" y="314" type="curve" smooth="yes"/>
      <point x="601" y="314" type="line"/>
      <point x="549" y="0" type="line"/>
      <point x="769" y="0" type="line" smooth="yes"/>
      <point x="1065" y="0"/>
      <point x="1299" y="132"/>
      <point x="1345" y="410" type="curve" smooth="yes"/>
      <point x="1380" y="620"/>
      <point x="1291" y="779"/>
      <point x="1096" y="788" type="curve"/>
      <point x="1099" y="806" type="line"/>
      <point x="1234" y="836"/>
      <point x="1325" y="951"/>
      <point x="1349" y="1094" type="curve" smooth="yes"/>
      <point x="1395" y="1377"/>
      <point x="1138" y="1510"/>
      <point x="821" y="1510" type="curve" smooth="yes"/>
      <point x="472" y="1510"/>
      <point x="227" y="1351"/>
      <point x="184" y="1088" type="curve" smooth="yes"/>
    </contour>
  </outline>
</glyph>
<glyph name="ae" format="2">
  <advance width="1915"/>
  <unicode hex="00E6"/>
  <anchor x="1028" y="1118" name="top"/>
  <outline>
    <contour>
      <point x="401" y="-18" type="curve" smooth="yes"/>
      <point x="725" y="-18"/>
      <point x="955" y="142"/>
      <point x="996" y="396" type="curve"/>
      <point x="1012" y="421" type="line"/>
      <point x="1069" y="766" type="line" smooth="yes"/>
      <point x="1108" y="1001"/>
      <point x="979" y="1132"/>
      <point x="711" y="1132" type="curve" smooth="yes"/>
      <point x="424" y="1132"/>
      <point x="200" y="1001"/>
      <point x="131" y="792" type="curve"/>
      <point x="487" y="756" type="line"/>
      <point x="509" y="817"/>
      <point x="573" y="856"/>
      <point x="652" y="856" type="curve" smooth="yes"/>
      <point x="732" y="856"/>
      <point x="775" y="817"/>
      <point x="765" y="754" type="curve" smooth="yes"/>
      <point x="706" y="396" type="line" smooth="yes"/>
      <point x="689" y="294"/>
      <point x="592" y="236"/>
      <point x="501" y="236" type="curve" smooth="yes"/>
      <point x="433" y="236"/>
      <point x="391" y="269"/>
      <point x="401" y="332" type="curve" smooth="yes"/>
      <point x="410" y="389"/>
      <point x="457" y="445"/>
      <point x="554" y="448" type="curve" smooth="yes"/>
      <point x="623" y="450"/>
      <point x="692" y="453"/>
      <point x="761" y="455" type="curve"/>
      <point x="797" y="671" type="line"/>
      <point x="694" y="669"/>
      <point x="591" y="666"/>
      <point x="488" y="664" type="curve" smooth="yes"/>
      <point x="235" y="658"/>
      <point x="54" y="521"/>
      <point x="19" y="308" type="curve" smooth="yes"/>
      <point x="-14" y="108"/>
      <point x="133" y="-18"/>
    </contour>
    <contour>
      <point x="1244" y="-24" type="curve" smooth="yes"/>
      <point x="1553" y="-24"/>
      <point x="1748" y="128"/>
      <point x="1825" y="360" type="curve"/>
      <point x="1459" y="360" type="line"/>
      <point x="1440" y="297"/>
      <point x="1365" y="259"/>
      <point x="1275" y="259" type="curve" smooth="yes"/>
      <point x="1167" y="259"/>
      <point x="1116" y="312"/>
      <point x="1116" y="431" type="curve" smooth="yes"/>
      <point x="1116" y="481"/>
      <point x="1134" y="591"/>
      <point x="1143" y="640" type="curve" smooth="yes"/>
      <point x="1169" y="785"/>
      <point x="1233" y="850"/>
      <point x="1358" y="850" type="curve" smooth="yes"/>
      <point x="1449" y="850"/>
      <point x="1499" y="817"/>
      <point x="1499" y="758" type="curve" smooth="yes"/>
      <point x="1499" y="682"/>
      <point x="1415" y="670"/>
      <point x="885" y="670" type="curve"/>
      <point x="848" y="454" type="line"/>
      <point x="1463" y="454"/>
      <point x="1862" y="487"/>
      <point x="1862" y="789" type="curve" smooth="yes"/>
      <point x="1862" y="1006"/>
      <point x="1654" y="1132"/>
      <point x="1400" y="1132" type="curve" smooth="yes"/>
      <point x="1054" y="1132"/>
      <point x="796" y="902"/>
      <point x="739" y="556" type="curve" smooth="yes"/>
      <point x="679" y="194"/>
      <point x="885" y="-24"/>
    </contour>
  </outline>
</glyph>
<glyph name="eth" format="2">
  <advance width="1255"/>
  <unicode hex="00F0"/>
  <outline>
    <contour>
      <point x="1079" y="1394" type="line"/>
      <point x="1107" y="1556" type="line"/>
      <point x="305" y="1170" type="line"/>
      <point x="277" y="1006" type="line"/>
    </contour>
    <contour>
      <point x="523" y="-24" type="curve" smooth="yes"/>
      <point x="882" y="-23"/>
      <point x="1138" y="225"/>
      <point x="1199" y="590" type="curve" smooth="yes"/>
      <point x="1289" y="1136"/>
      <point x="879" y="1497"/>
      <point x="369" y="1564" type="curve"/>
      <point x="337" y="1370" type="line"/>
      <point x="530" y="1311"/>
      <point x="786" y="1155"/>
      <point x="865" y="930" type="curve"/>
      <point x="849" y="930" type="line"/>
      <point x="796" y="989"/>
      <point x="710" y="1025"/>
      <point x="597" y="1026" type="curve" smooth="yes"/>
      <point x="313" y="1025"/>
      <point x="99" y="794"/>
      <point x="53" y="512" type="curve" smooth="yes"/>
      <point x="-1" y="189"/>
      <point x="190" y="-23"/>
    </contour>
    <contour>
      <point x="583" y="270" type="curve" smooth="yes"/>
      <point x="466" y="269"/>
      <point x="408" y="371"/>
      <point x="435" y="542" type="curve" smooth="yes"/>
      <point x="462" y="704"/>
      <point x="543" y="797"/>
      <point x="671" y="798" type="curve" smooth="yes"/>
      <point x="798" y="797"/>
      <point x="850" y="704"/>
      <point x="823" y="542" type="curve" smooth="yes"/>
      <point x="793" y="369"/>
      <point x="700" y="269"/>
    </contour>
  </outline>
</glyph>
<glyph name="thorn" format="2">
  <advance width="1321"/>
  <unicode hex="00FE"/>
  <outline>
    <contour>
      <point x="725" y="-14" type="curve" smooth="yes"/>
      <point x="964" y="-14"/>
      <point x="1196" y="172"/>
      <point x="1260" y="558" type="curve" smooth="yes"/>
      <point x="1327" y="963"/>
      <point x="1140" y="1132"/>
      <point x="919" y="1132" type="curve" smooth="yes"/>
      <point x="753" y="1132"/>
      <point x="632" y="1036"/>
      <point x="570" y="922" type="curve"/>
      <point x="564" y="922" type="line"/>
      <point x="658" y="1490" type="line"/>
      <point x="256" y="1490" type="line"/>
      <point x="-60" y="-418" type="line"/>
      <point x="342" y="-418" type="line"/>
      <point x="442" y="184" type="line"/>
      <point x="448" y="184" type="line"/>
      <point x="475" y="70"/>
      <point x="568" y="-14"/>
    </contour>
    <contour>
      <point x="628" y="294" type="curve" smooth="yes"/>
      <point x="518" y="294"/>
      <point x="467" y="396"/>
      <point x="494" y="558" type="curve" smooth="yes"/>
      <point x="521" y="724"/>
      <point x="606" y="824"/>
      <point x="716" y="824" type="curve" smooth="yes"/>
      <point x="827" y="824"/>
      <point x="873" y="724"/>
      <point x="846" y="558" type="curve" smooth="yes"/>
      <point x="819" y="393"/>
      <point x="739" y="294"/>
    </contour>
  </outline>
</glyph>
<glyph name="Hbar" format="2">
  <advance width="1707"/>
  <unicode hex="0126"/>
  <anchor x="759" y="0" name="bottom"/>
  <anchor x="290" y="0" name="cedilla"/>
  <anchor x="1431" y="0" name="cyrtic"/>
  <anchor x="1027" y="0" name="lfthook"/>
  <anchor x="1431" y="0" name="right"/>
  <anchor x="334" y="1490" name="tonos"/>
  <anchor x="1006" y="1490" name="top"/>
  <outline>
    <contour>
      <point x="1768" y="1268" type="line"/>
      <point x="174" y="1268" type="line"/>
      <point x="142" y="1076" type="line"/>
      <point x="1736" y="1076" type="line"/>
    </contour>
    <component base="H" xOffset="84"/>
  </outline>
</glyph>
<glyph name="idotless" format="2">
  <advance width="607"/>
  <unicode hex="0131"/>
  <anchor x="214" y="0" name="bottom"/>
  <anchor x="309" y="610" name="cross"/>
  <anchor x="412" y="0" name="ogonek"/>
  <anchor x="395" y="1118" name="top"/>
  <outline>
    <contour>
      <point x="10" y="0" type="line"/>
      <point x="412" y="0" type="line"/>
      <point x="597" y="1118" type="line"/>
      <point x="195" y="1118" type="line"/>
    </contour>
  </outline>
</glyph>
<glyph name="kgreenlandic" format="2">
  <advance width="1308"/>
  <unicode hex="0138"/>
  <outline>
    <contour>
      <point x="597" y="1118" type="line"/>
      <point x="195" y="1118" type="line"/>
      <point x="10" y="0" type="line"/>
      <point x="412" y="0" type="line"/>
    </contour>
    <contour>
      <point x="1409" y="1118" type="line"/>
      <point x="923" y="1118" type="line"/>
      <point x="622" y="700" type="line"/>
      <point x="444" y="700" type="line"/>
      <point x="396" y="408" type="line"/>
      <point x="808" y="408" type="line"/>
    </contour>
    <contour>
      <point x="724" y="0" type="line"/>
      <point x="1206" y="0" type="line"/>
      <point x="945" y="588" type="line"/>
      <point x="578" y="424" type="line"/>
    </contour>
  </outline>
</glyph>
<glyph name="OE" format="2">
  <advance width="2154"/>
  <unicode hex="0152"/>
  <anchor x="1420" y="0" name="bottom"/>
  <anchor x="1422" y="0" name="cedilla"/>
  <anchor x="1953" y="0" name="ogonek"/>
  <anchor x="1130" y="1490" name="tonos"/>
  <anchor x="1667" y="1490" name="top"/>
  <outline>
    <contour>
      <point x="668" y="0" type="curve"/>
      <point x="1034" y="0" type="line"/>
      <point x="1090" y="326" type="line"/>
      <point x="722" y="326" type="line"/>
      <point x="561" y="326"/>
      <point x="456" y="413"/>
      <point x="510" y="742" type="curve"/>
      <point x="563" y="1068"/>
      <point x="697" y="1164"/>
      <point x="860" y="1164" type="curve"/>
      <point x="1226" y="1164" type="line"/>
      <point x="1282" y="1490" type="line"/>
      <point x="914" y="1490" type="line"/>
      <point x="529" y="1489"/>
      <point x="182" y="1251"/>
      <point x="100" y="742" type="curve"/>
      <point x="17" y="236"/>
      <point x="281" y="0"/>
    </contour>
    <component base="E" xOffset="880"/>
  </outline>
</glyph>
<glyph name="tbar" format="2">
  <advance width="818"/>
  <unicode hex="0167"/>
  <anchor x="452.0" y="0" name="bottom"/>
  <anchor x="495.0" y="0" name="cedilla"/>
  <anchor x="788.7" y="15" name="lfthook"/>
  <anchor x="612.12" y="1384" name="top"/>
  <anchor x="975.16" y="1562" name="raccent"/>
  <outline>
    <contour>
      <point x="882.54" y="703" type="line"/>
      <point x="146.54" y="703" type="line"/>
      <point x="106.94" y="483" type="line"/>
      <point x="842.94" y="483" type="line"/>
    </contour>
    <component base="t" yxScale="0.18"/>
  </outline>
</glyph>
<glyph name="Btopbar" format="2">
  <advance width="1340"/>
  <unicode hex="0182"/>
  <outline>
    <contour>
      <point x="3" y="0" type="line"/>
      <point x="559" y="0" type="line" smooth="yes"/>
      <point x="936" y="0"/>
      <point x="1219" y="204"/>
      <point x="1269" y="500" type="curve" smooth="yes"/>
      <point x="1317" y="797"/>
      <point x="1099" y="989"/>
      <point x="725" y="990" type="curve" smooth="yes"/>
      <point x="575" y="990" type="line"/>
      <point x="601" y="1164" type="line"/>
      <point x="1243" y="1164" type="line"/>
      <point x="1299" y="1490" type="line"/>
      <point x="251" y="1490" type="line"/>
    </contour>
    <contour>
      <point x="461" y="318" type="line"/>
      <point x="521" y="680" type="line"/>
      <point x="673" y="680" type="line" smooth="yes"/>
      <point x="818" y="681"/>
      <point x="885" y="605"/>
      <point x="867" y="504" type="curve" smooth="yes"/>
      <point x="850" y="396"/>
      <point x="758" y="317"/>
      <point x="611" y="318" type="curve" smooth="yes"/>
    </contour>
  </outline>
</glyph>
<glyph name="Tonesix" format="2">
  <advance width="1840"/>
  <unicode hex="0184"/>
  <anchor x="940" y="1237" name="cross"/>
  <outline>
    <contour>
      <point x="379" y="891" type="line"/>
      <point x="832.007" y="1490" type="line"/>
      <point x="439" y="1490" type="line"/>
      <point x="125.999" y="1045" type="line"/>
    </contour>
    <component base="Softsign-cy" xOffset="462"/>
  </outline>
</glyph>
<glyph name="tonesix" format="2">
  <advance width="1642"/>
  <unicode hex="0185"/>
  <outline>
    <contour>
      <point x="251" y="551" type="line"/>
      <point x="692" y="1118" type="line"/>
      <point x="328" y="1118" type="line"/>
      <point x="31" y="673" type="line"/>
    </contour>
    <component base="softsigncyrillic" xOffset="380"/>
  </outline>
</glyph>
<glyph name="Dtopbar" format="2">
  <advance width="1428"/>
  <unicode hex="018B"/>
  <outline>
    <contour>
      <point x="1214" y="0" type="line"/>
      <point x="1464" y="1502" type="line"/>
      <point x="416" y="1502" type="line"/>
      <point x="364" y="1184" type="line"/>
      <point x="1022" y="1184" type="line"/>
      <point x="990" y="990" type="line"/>
      <point x="824" y="990" type="line" smooth="yes"/>
      <point x="448" y="989"/>
      <point x="163" y="794"/>
      <point x="116" y="500" type="curve" smooth="yes"/>
      <point x="67" y="207"/>
      <point x="282" y="0"/>
      <point x="658" y="0" type="curve" smooth="yes"/>
    </contour>
    <contour>
      <point x="876" y="312" type="line"/>
      <point x="710" y="312" type="line" smooth="yes"/>
      <point x="561" y="311"/>
      <point x="489" y="396"/>
      <point x="506" y="504" type="curve" smooth="yes"/>
      <point x="524" y="605"/>
      <point x="623" y="681"/>
      <point x="770" y="680" type="curve" smooth="yes"/>
      <point x="936" y="680" type="line"/>
    </contour>
  </outline>
</glyph>
<glyph name="deltaturn" format="2">
  <advance width="1498"/>
  <unicode hex="018D"/>
  <outline>
    <contour>
      <point x="1030" y="-376" type="line"/>
      <point x="1058" y="-192" type="line"/>
      <point x="1019" y="-145"/>
      <point x="876" y="29"/>
      <point x="808" y="84" type="curve"/>
      <point x="824" y="84"/>
      <point x="847" y="84"/>
      <point x="846" y="84" type="curve" smooth="yes"/>
      <point x="1048" y="122"/>
      <point x="1271" y="311"/>
      <point x="1314" y="608" type="curve" smooth="yes"/>
      <point x="1318" y="628" type="line" smooth="yes"/>
      <point x="1363" y="932"/>
      <point x="1204" y="1132"/>
      <point x="846" y="1132" type="curve" smooth="yes"/>
      <point x="485" y="1132"/>
      <point x="247" y="905"/>
      <point x="198" y="570" type="curve" smooth="yes"/>
      <point x="194" y="550" type="line" smooth="yes"/>
      <point x="164" y="340"/>
      <point x="268" y="169"/>
      <point x="440" y="24" type="curve" smooth="yes"/>
      <point x="521" y="-47"/>
      <point x="565" y="-55"/>
      <point x="596" y="-76" type="curve"/>
      <point x="192" y="-76" type="line"/>
      <point x="142" y="-376" type="line"/>
    </contour>
    <contour>
      <point x="930" y="550" type="line"/>
      <point x="903" y="387"/>
      <point x="841" y="262"/>
      <point x="704" y="262" type="curve" smooth="yes"/>
      <point x="693" y="262"/>
      <point x="681" y="262"/>
      <point x="670" y="268" type="curve"/>
      <point x="597" y="308"/>
      <point x="549" y="404"/>
      <point x="570" y="550" type="curve" smooth="yes"/>
      <point x="574" y="570" type="line" smooth="yes"/>
      <point x="596" y="721"/>
      <point x="648" y="832"/>
      <point x="796" y="832" type="curve" smooth="yes"/>
      <point x="956" y="832"/>
      <point x="953" y="705"/>
      <point x="934" y="570" type="curve" smooth="yes"/>
    </contour>
  </outline>
</glyph>
<glyph name="Schwa" format="2">
  <advance width="1545"/>
  <unicode hex="018F"/>
  <outline>
    <contour>
      <point x="657" y="-20" type="curve" smooth="yes"/>
      <point x="1092" y="-20"/>
      <point x="1427" y="271"/>
      <point x="1505" y="742" type="curve" smooth="yes"/>
      <point x="1586" y="1233"/>
      <point x="1306" y="1510"/>
      <point x="904" y="1510" type="curve" smooth="yes"/>
      <point x="553" y="1510"/>
      <point x="246" y="1297"/>
      <point x="165" y="998" type="curve"/>
      <point x="573" y="998" type="line"/>
      <point x="615" y="1100"/>
      <point x="719" y="1158"/>
      <point x="846" y="1158" type="curve" smooth="yes"/>
      <point x="1049" y="1158"/>
      <point x="1133" y="1006"/>
      <point x="1090" y="748" type="curve" smooth="yes"/>
      <point x="1046" y="486"/>
      <point x="921" y="332"/>
      <point x="711" y="332" type="curve" smooth="yes"/>
      <point x="527" y="332"/>
      <point x="441" y="417"/>
      <point x="463" y="552" type="curve"/>
      <point x="392" y="544" type="line"/>
      <point x="1146" y="544" type="line"/>
      <point x="1194" y="832" type="line"/>
      <point x="120" y="832" type="line"/>
      <point x="86" y="626" type="line" smooth="yes"/>
      <point x="18" y="218"/>
      <point x="267" y="-20"/>
    </contour>
  </outline>
</glyph>
<glyph name="Epsilon1" format="2">
  <advance width="1369"/>
  <unicode hex="0190"/>
  <anchor x="592" y="0" name="bottom"/>
  <anchor x="836" y="1490" name="top"/>
  <outline>
    <contour>
      <point x="594" y="-20" type="curve" smooth="yes"/>
      <point x="946" y="-20"/>
      <point x="1230" y="176"/>
      <point x="1276" y="454" type="curve"/>
      <point x="870" y="454" type="line"/>
      <point x="856" y="367"/>
      <point x="761" y="306"/>
      <point x="644" y="306" type="curve" smooth="yes"/>
      <point x="532" y="306"/>
      <point x="466" y="370"/>
      <point x="481" y="462" type="curve" smooth="yes"/>
      <point x="497" y="553"/>
      <point x="596" y="616"/>
      <point x="727" y="616" type="curve" smooth="yes"/>
      <point x="879" y="616" type="line"/>
      <point x="925" y="896" type="line"/>
      <point x="773" y="896" type="line" smooth="yes"/>
      <point x="653" y="896"/>
      <point x="580" y="960"/>
      <point x="595" y="1050" type="curve" smooth="yes"/>
      <point x="609" y="1137"/>
      <point x="690" y="1198"/>
      <point x="791" y="1198" type="curve" smooth="yes"/>
      <point x="903" y="1198"/>
      <point x="973" y="1135"/>
      <point x="958" y="1044" type="curve"/>
      <point x="1346" y="1044" type="line"/>
      <point x="1391" y="1317"/>
      <point x="1181" y="1510"/>
      <point x="843" y="1510" type="curve" smooth="yes"/>
      <point x="513" y="1510"/>
      <point x="251" y="1327"/>
      <point x="209" y="1076" type="curve" smooth="yes"/>
      <point x="182" y="910"/>
      <point x="292" y="796"/>
      <point x="465" y="776" type="curve"/>
      <point x="464" y="766" type="line"/>
      <point x="219" y="739"/>
      <point x="78" y="610"/>
      <point x="48" y="428" type="curve" smooth="yes"/>
      <point x="4" y="165"/>
      <point x="229" y="-20"/>
    </contour>
  </outline>
</glyph>
<glyph name="Gamma1" format="2">
  <advance width="1682"/>
  <unicode hex="0194"/>
  <outline>
    <contour>
      <point x="254" y="1490" type="line"/>
      <point x="738" y="168" type="line" smooth="yes"/>
      <point x="772" y="79"/>
      <point x="784" y="-30"/>
      <point x="770" y="-116" type="curve" smooth="yes"/>
      <point x="763" y="-165"/>
      <point x="748" y="-186"/>
      <point x="720" y="-186" type="curve" smooth="yes"/>
      <point x="691" y="-186"/>
      <point x="682" y="-164"/>
      <point x="690" y="-118" type="curve" smooth="yes"/>
      <point x="702" y="-32"/>
      <point x="752" y="74"/>
      <point x="818" y="168" type="curve" smooth="yes"/>
      <point x="1738" y="1490" type="line"/>
      <point x="1270" y="1490" type="line"/>
      <point x="760" y="688" type="line" smooth="yes"/>
      <point x="353" y="47"/>
      <point x="302" y="-49"/>
      <point x="288" y="-140" type="curve" smooth="yes"/>
      <point x="257" y="-327"/>
      <point x="417" y="-442"/>
      <point x="676" y="-442" type="curve" smooth="yes"/>
      <point x="932" y="-442"/>
      <point x="1123" y="-315"/>
      <point x="1150" y="-152" type="curve" smooth="yes"/>
      <point x="1172" y="-22"/>
      <point x="1108" y="245"/>
      <point x="970" y="686" type="curve" smooth="yes"/>
      <point x="720" y="1490" type="line"/>
    </contour>
  </outline>
</glyph>
<glyph name="hv" format="2">
  <advance width="2065"/>
  <unicode hex="0195"/>
  <outline>
    <contour>
      <point x="10" y="0" type="line"/>
      <point x="412" y="0" type="line"/>
      <point x="516" y="628" type="line" smooth="yes"/>
      <point x="535" y="739"/>
      <point x="610" y="806"/>
      <point x="708" y="806" type="curve" smooth="yes"/>
      <point x="810" y="806"/>
      <point x="857" y="739"/>
      <point x="838" y="628" type="curve" smooth="yes"/>
      <point x="828" y="558" type="line"/>
      <point x="1228" y="558" type="line"/>
      <point x="1254" y="712" type="line" smooth="yes"/>
      <point x="1295" y="957"/>
      <point x="1170" y="1132"/>
      <point x="934" y="1132" type="curve" smooth="yes"/>
      <point x="768" y="1132"/>
      <point x="632" y="1047"/>
      <point x="560" y="904" type="curve"/>
      <point x="548" y="904" type="line"/>
      <point x="644" y="1490" type="line"/>
      <point x="256" y="1490" type="line"/>
    </contour>
    <contour>
      <point x="1234" y="-20" type="curve" smooth="yes"/>
      <point x="1706" y="-20"/>
      <point x="1925" y="339"/>
      <point x="2038" y="1012" type="curve"/>
      <point x="2054" y="1118" type="line"/>
      <point x="1654" y="1118" type="line"/>
      <point x="1636" y="1012" type="line" smooth="yes"/>
      <point x="1562" y="573"/>
      <point x="1467" y="305"/>
      <point x="1302" y="306" type="curve" smooth="yes"/>
      <point x="1229" y="305"/>
      <point x="1194" y="353"/>
      <point x="1208" y="430" type="curve"/>
      <point x="1228" y="558" type="line"/>
      <point x="828" y="558" type="line"/>
      <point x="806" y="430" type="line" smooth="yes"/>
      <point x="762" y="164"/>
      <point x="895" y="-20"/>
    </contour>
  </outline>
</glyph>
<glyph name="Khook" format="2">
  <advance width="1570"/>
  <unicode hex="0198"/>
  <outline>
    <contour>
      <point x="2" y="0" type="line"/>
      <point x="408" y="0" type="line"/>
      <point x="460" y="320" type="line"/>
      <point x="670" y="504" type="line"/>
      <point x="972" y="0" type="line"/>
      <point x="1454" y="0" type="line"/>
      <point x="978" y="792" type="line"/>
      <point x="1332" y="1096" type="line" smooth="yes"/>
      <point x="1402" y="1156"/>
      <point x="1452" y="1196"/>
      <point x="1538" y="1152" type="curve"/>
      <point x="1704" y="1434" type="line"/>
      <point x="1492" y="1562"/>
      <point x="1281" y="1520"/>
      <point x="1074" y="1342" type="curve" smooth="yes"/>
      <point x="578" y="914" type="line"/>
      <point x="558" y="914" type="line"/>
      <point x="654" y="1490" type="line"/>
      <point x="250" y="1490" type="line"/>
    </contour>
  </outline>
</glyph>
<glyph name="lambdabar" format="2">
  <advance width="1420"/>
  <unicode hex="019B"/>
  <outline>
    <contour>
      <point x="1076" y="1370" type="line"/>
      <point x="318" y="1158" type="line"/>
      <point x="284" y="940" type="line"/>
      <point x="1040" y="1158" type="line"/>
    </contour>
    <contour>
      <point x="712" y="606" type="line" name="hr00"/>
      <point x="866" y="1122" type="line"/>
      <point x="606" y="1120" type="line"/>
      <point x="14" y="0" type="line"/>
      <point x="416" y="0" type="line"/>
    </contour>
    <contour>
      <point x="610" y="1556" type="curve"/>
      <point x="556" y="1556"/>
      <point x="452" y="1548"/>
      <point x="386" y="1530" type="curve"/>
      <point x="352" y="1250" type="line"/>
      <point x="386" y="1254"/>
      <point x="404" y="1254"/>
      <point x="422" y="1254" type="curve" smooth="yes"/>
      <point x="505" y="1254"/>
      <point x="544" y="1220"/>
      <point x="560" y="1170" type="curve" smooth="yes"/>
      <point x="630" y="946" type="line"/>
      <point x="770" y="224" type="line" smooth="yes"/>
      <point x="793" y="104"/>
      <point x="882" y="-20"/>
      <point x="1084" y="-20" type="curve" smooth="yes"/>
      <point x="1141" y="-20"/>
      <point x="1184" y="-23"/>
      <point x="1222" y="-18" type="curve"/>
      <point x="1272" y="276" type="line"/>
      <point x="1265" y="276"/>
      <point x="1254" y="276"/>
      <point x="1238" y="276" type="curve" smooth="yes"/>
      <point x="1175" y="276"/>
      <point x="1153" y="358"/>
      <point x="1140" y="408" type="curve" smooth="yes"/>
      <point x="882" y="1378" type="line" smooth="yes"/>
      <point x="853" y="1492"/>
      <point x="762" y="1556"/>
    </contour>
  </outline>
</glyph>
<glyph name="mcapturn" format="2">
  <advance width="2022"/>
  <unicode hex="019C"/>
  <outline>
    <contour>
      <point x="1442" y="286" type="line"/>
      <point x="1440" y="0" type="line"/>
      <point x="1774" y="0" type="line"/>
      <point x="2022" y="1490" type="line"/>
      <point x="1644" y="1490" type="line"/>
    </contour>
    <contour>
      <point x="1530" y="504" type="line"/>
      <point x="1510" y="375"/>
      <point x="1437" y="279"/>
      <point x="1286" y="280" type="curve" smooth="yes"/>
      <point x="1193" y="279"/>
      <point x="1158" y="335"/>
      <point x="1172" y="414" type="curve"/>
      <point x="1350" y="1490" type="line"/>
      <point x="978" y="1490" type="line"/>
      <point x="800" y="414" type="line"/>
      <point x="748" y="99"/>
      <point x="876" y="-20"/>
      <point x="1108" y="-20" type="curve" smooth="yes"/>
      <point x="1379" y="-20"/>
      <point x="1580" y="204"/>
      <point x="1630" y="506" type="curve"/>
    </contour>
    <contour>
      <point x="864" y="504" type="line"/>
      <point x="841" y="372"/>
      <point x="771" y="279"/>
      <point x="620" y="280" type="curve" smooth="yes"/>
      <point x="527" y="279"/>
      <point x="493" y="335"/>
      <point x="506" y="414" type="curve" smooth="yes"/>
      <point x="684" y="1490" type="line"/>
      <point x="312" y="1490" type="line"/>
      <point x="134" y="414" type="line" smooth="yes"/>
      <point x="82" y="102"/>
      <point x="177" y="-20"/>
      <point x="442" y="-20" type="curve" smooth="yes"/>
      <point x="724" y="-20"/>
      <point x="916" y="195"/>
      <point x="968" y="506" type="curve"/>
    </contour>
  </outline>
</glyph>
<glyph name="Ohorn" format="2">
  <advance width="1628"/>
  <unicode hex="01A0"/>
  <anchor x="702" y="0" name="bottom"/>
  <anchor x="826" y="745" name="center"/>
  <anchor x="1560" y="892" name="ogonek"/>
  <anchor x="347" y="1490" name="tonos"/>
  <anchor x="949" y="1490" name="top"/>
  <anchor x="952" y="1510" name="tophorn"/>
  <outline>
    <contour>
      <point x="931" y="1270" type="line"/>
      <point x="1086" y="1270"/>
      <point x="1242" y="1266"/>
      <point x="1397" y="1266" type="curve" smooth="yes"/>
      <point x="1541" y="1266"/>
      <point x="1664" y="1324"/>
      <point x="1692" y="1490" type="curve" smooth="yes"/>
      <point x="1726" y="1698" type="line"/>
      <point x="1378" y="1698" type="line"/>
      <point x="1349" y="1522" type="line" smooth="yes"/>
      <point x="1345" y="1501"/>
      <point x="1333" y="1490"/>
      <point x="1312" y="1490" type="curve" smooth="yes"/>
      <point x="1141" y="1490"/>
      <point x="1086" y="1510"/>
      <point x="971" y="1510" type="curve"/>
    </contour>
    <component base="O"/>
  </outline>
</glyph>
<glyph name="ohorn" format="2">
  <advance width="1280"/>
  <unicode hex="01A1"/>
  <anchor x="547" y="0" name="bottom"/>
  <anchor x="640" y="559" name="center"/>
  <anchor x="1218" y="556" name="ogonek"/>
  <anchor x="733" y="1118" name="top"/>
  <anchor x="735" y="1132" name="tophorn"/>
  <outline>
    <contour>
      <point x="696" y="902" type="line"/>
      <point x="806" y="902"/>
      <point x="916" y="902"/>
      <point x="1026" y="902" type="curve" smooth="yes"/>
      <point x="1170" y="902"/>
      <point x="1310" y="960"/>
      <point x="1336" y="1118" type="curve" smooth="yes"/>
      <point x="1371" y="1326" type="line"/>
      <point x="1031" y="1326" type="line"/>
      <point x="1001" y="1150" type="line" smooth="yes"/>
      <point x="998" y="1129"/>
      <point x="983" y="1118"/>
      <point x="956" y="1118" type="curve" smooth="yes"/>
      <point x="903" y="1118"/>
      <point x="803" y="1132"/>
      <point x="734" y="1132" type="curve"/>
    </contour>
    <component base="o"/>
  </outline>
</glyph>
<glyph name="OI" format="2">
  <advance width="2014"/>
  <unicode hex="01A2"/>
  <outline>
    <contour>
      <point x="1448" y="966" type="line"/>
      <point x="1070" y="966" type="line"/>
      <point x="964" y="340" type="line"/>
      <point x="925" y="317"/>
      <point x="851" y="291"/>
      <point x="756" y="290" type="curve" smooth="yes"/>
      <point x="513" y="291"/>
      <point x="471" y="451"/>
      <point x="510" y="690" type="curve" smooth="yes"/>
      <point x="526" y="776" type="line"/>
      <point x="126" y="774" type="line"/>
      <point x="112" y="690" type="line" smooth="yes"/>
      <point x="38" y="241"/>
      <point x="252" y="-20"/>
      <point x="690" y="-20" type="curve" smooth="yes"/>
      <point x="988" y="-20"/>
      <point x="1220" y="96"/>
      <point x="1316" y="178" type="curve"/>
    </contour>
    <contour>
      <point x="1504" y="1312" type="line"/>
      <point x="1436" y="1396"/>
      <point x="1244" y="1510"/>
      <point x="944" y="1510" type="curve" smooth="yes"/>
      <point x="505" y="1510"/>
      <point x="205" y="1251"/>
      <point x="130" y="800" type="curve" smooth="yes"/>
      <point x="114" y="698" type="line"/>
      <point x="512" y="696" type="line"/>
      <point x="530" y="800" type="line" smooth="yes"/>
      <point x="571" y="1053"/>
      <point x="652" y="1199"/>
      <point x="910" y="1198" type="curve" smooth="yes"/>
      <point x="981" y="1199"/>
      <point x="1057" y="1187"/>
      <point x="1100" y="1152" type="curve"/>
      <point x="996" y="530" type="line"/>
      <point x="1376" y="536" type="line"/>
    </contour>
    <contour>
      <point x="2068" y="1490" type="line"/>
      <point x="1790" y="1490" type="line"/>
      <point x="1282" y="1266" type="line"/>
      <point x="1208" y="832" type="line"/>
      <point x="1618" y="1016" type="line"/>
      <point x="1380" y="-418" type="line"/>
      <point x="1752" y="-418" type="line"/>
    </contour>
  </outline>
</glyph>
<glyph name="oi" format="2">
  <advance width="1676"/>
  <unicode hex="01A3"/>
  <outline>
    <contour>
      <point x="572" y="282" type="curve" smooth="yes"/>
      <point x="417" y="282"/>
      <point x="440" y="416"/>
      <point x="460" y="532" type="curve" smooth="yes"/>
      <point x="462" y="550" type="line" smooth="yes"/>
      <point x="489" y="710"/>
      <point x="520" y="832"/>
      <point x="658" y="832" type="curve"/>
      <point x="724" y="832"/>
      <point x="758" y="809"/>
      <point x="776" y="766" type="curve"/>
      <point x="756" y="638" type="line"/>
      <point x="1126" y="602" type="line"/>
      <point x="1162" y="824" type="line"/>
      <point x="1129" y="943"/>
      <point x="985" y="1132"/>
      <point x="722" y="1132" type="curve" smooth="yes"/>
      <point x="363" y="1132"/>
      <point x="148" y="899"/>
      <point x="90" y="550" type="curve" smooth="yes"/>
      <point x="88" y="532" type="line" smooth="yes"/>
      <point x="33" y="209"/>
      <point x="172" y="-20"/>
      <point x="530" y="-20" type="curve"/>
      <point x="824" y="-20"/>
      <point x="969" y="105"/>
      <point x="1066" y="248" type="curve"/>
      <point x="1138" y="686" type="line"/>
      <point x="764" y="686" type="line"/>
      <point x="706" y="328" type="line"/>
      <point x="676" y="297"/>
      <point x="630" y="282"/>
    </contour>
    <contour>
      <point x="1682" y="1118" type="line"/>
      <point x="1438" y="1118" type="line"/>
      <point x="1026" y="962" type="line"/>
      <point x="974" y="646" type="line"/>
      <point x="1238" y="718" type="line"/>
      <point x="1050" y="-418" type="line"/>
      <point x="1428" y="-418" type="line"/>
    </contour>
  </outline>
</glyph>
<glyph name="YR" format="2">
  <advance width="1618"/>
  <unicode hex="01A6"/>
  <outline>
    <contour>
      <point x="230" y="1388" type="line"/>
      <point x="620" y="1388" type="line"/>
      <point x="654" y="1592" type="line"/>
      <point x="264" y="1592" type="line"/>
    </contour>
    <contour>
      <point x="248" y="1490" type="line" name="hr01"/>
      <point x="0" y="0" type="line"/>
      <point x="392" y="0" type="line"/>
      <point x="588" y="1176" type="line"/>
      <point x="812" y="1176" type="line" smooth="yes"/>
      <point x="933" y="1175"/>
      <point x="996" y="1111"/>
      <point x="978" y="1000" type="curve" smooth="yes"/>
      <point x="959" y="890"/>
      <point x="879" y="829"/>
      <point x="754" y="830" type="curve" smooth="yes"/>
      <point x="376" y="830" type="line"/>
      <point x="328" y="518" type="line"/>
      <point x="836" y="518" type="line"/>
      <point x="984" y="600" type="line"/>
      <point x="1183" y="675"/>
      <point x="1330" y="777"/>
      <point x="1374" y="1048" type="curve" smooth="yes"/>
      <point x="1422" y="1335"/>
      <point x="1215" y="1489"/>
      <point x="864" y="1490" type="curve" smooth="yes"/>
    </contour>
    <contour>
      <point x="956" y="-344" type="line"/>
      <point x="1374" y="-344" type="line"/>
      <point x="1378" y="-328" type="line"/>
      <point x="1016" y="640" type="line"/>
      <point x="604" y="640" type="line"/>
    </contour>
  </outline>
</glyph>
<glyph name="Tonetwo" format="2">
  <advance width="1364"/>
  <unicode hex="01A7"/>
  <anchor x="581" y="0" name="bottom"/>
  <anchor x="585" y="0" name="cedilla"/>
  <anchor x="834" y="1490" name="top"/>
  <outline>
    <contour>
      <point x="582" y="-18" type="curve" smooth="yes"/>
      <point x="971" y="-18"/>
      <point x="1236" y="150"/>
      <point x="1300" y="524" type="curve"/>
      <point x="916" y="524" type="line"/>
      <point x="886" y="387"/>
      <point x="775" y="314"/>
      <point x="619" y="314" type="curve" smooth="yes"/>
      <point x="490" y="314"/>
      <point x="438" y="366"/>
      <point x="450" y="440" type="curve" smooth="yes" name="hr00"/>
      <point x="461" y="507"/>
      <point x="527" y="549"/>
      <point x="698" y="584" type="curve" smooth="yes"/>
      <point x="853" y="616" type="line" smooth="yes"/>
      <point x="1125" y="672"/>
      <point x="1308" y="803"/>
      <point x="1347" y="1036" type="curve" smooth="yes"/>
      <point x="1393" y="1319"/>
      <point x="1161" y="1510"/>
      <point x="807" y="1510" type="curve" smooth="yes"/>
      <point x="446" y="1510"/>
      <point x="205" y="1316"/>
      <point x="155" y="1024" type="curve"/>
      <point x="543" y="1024" type="line"/>
      <point x="566" y="1121"/>
      <point x="645" y="1178"/>
      <point x="776" y="1178" type="curve" smooth="yes"/>
      <point x="901" y="1178"/>
      <point x="940" y="1130"/>
      <point x="929" y="1064" type="curve" smooth="yes"/>
      <point x="917" y="993"/>
      <point x="852" y="952"/>
      <point x="706" y="922" type="curve" smooth="yes"/>
      <point x="579" y="896" type="line" smooth="yes"/>
      <point x="239" y="826"/>
      <point x="75" y="666"/>
      <point x="38" y="440" type="curve" smooth="yes"/>
      <point x="-10.995" y="145"/>
      <point x="205" y="-18"/>
    </contour>
  </outline>
</glyph>
<glyph name="tonetwo" format="2">
  <advance width="1205"/>
  <unicode hex="01A8"/>
  <anchor x="508" y="0" name="bottom"/>
  <anchor x="498" y="0" name="cedilla"/>
  <anchor x="693" y="1118" name="top"/>
  <outline>
    <contour>
      <point x="115" y="754" type="curve"/>
      <point x="483" y="754" type="line"/>
      <point x="500" y="822"/>
      <point x="574" y="864"/>
      <point x="653" y="864" type="curve" smooth="yes"/>
      <point x="722" y="864"/>
      <point x="773" y="838"/>
      <point x="765" y="792" type="curve" smooth="yes"/>
      <point x="760" y="759"/>
      <point x="732" y="727"/>
      <point x="646" y="712" type="curve" smooth="yes"/>
      <point x="411" y="672" type="line" smooth="yes"/>
      <point x="177" y="632"/>
      <point x="49" y="535"/>
      <point x="21" y="370" type="curve" smooth="yes"/>
      <point x="-18" y="130"/>
      <point x="186" y="-20"/>
      <point x="495" y="-20" type="curve" smooth="yes"/>
      <point x="837" y="-20"/>
      <point x="1060" y="132"/>
      <point x="1120" y="360" type="curve"/>
      <point x="722" y="360" type="line"/>
      <point x="698" y="289"/>
      <point x="627" y="250"/>
      <point x="537" y="250" type="curve" smooth="yes"/>
      <point x="463" y="250"/>
      <point x="414" y="276"/>
      <point x="421" y="322" type="curve" smooth="yes"/>
      <point x="428" y="365"/>
      <point x="472" y="388"/>
      <point x="563" y="404" type="curve" smooth="yes"/>
      <point x="767" y="440" type="line" smooth="yes"/>
      <point x="1001" y="481"/>
      <point x="1132" y="592"/>
      <point x="1161" y="768" type="curve" smooth="yes"/>
      <point x="1200" y="1001"/>
      <point x="1025" y="1132"/>
      <point x="705" y="1132" type="curve" smooth="yes"/>
      <point x="383" y="1132"/>
      <point x="163" y="990"/>
    </contour>
  </outline>
</glyph>
<glyph name="eshlooprev" format="2">
  <advance width="1490"/>
  <unicode hex="01AA"/>
  <outline>
    <contour>
      <point x="768" y="896" type="line"/>
      <point x="622" y="8" type="line" smooth="yes"/>
      <point x="573" y="-284"/>
      <point x="725" y="-444"/>
      <point x="1002" y="-444" type="curve" smooth="yes"/>
      <point x="1068" y="-444"/>
      <point x="1121" y="-441"/>
      <point x="1180" y="-430" type="curve"/>
      <point x="1226" y="-136" type="line"/>
      <point x="1182" y="-141"/>
      <point x="1153" y="-144"/>
      <point x="1118" y="-144" type="curve" smooth="yes"/>
      <point x="1028" y="-144"/>
      <point x="980" y="-89"/>
      <point x="996" y="8" type="curve" smooth="yes"/>
      <point x="1178" y="1100" type="line"/>
    </contour>
    <contour>
      <point x="238" y="1100" type="curve" smooth="yes"/>
      <point x="198" y="846"/>
      <point x="375" y="643"/>
      <point x="632" y="642" type="curve" smooth="yes"/>
      <point x="889" y="643"/>
      <point x="1137" y="849"/>
      <point x="1178" y="1100" type="curve" smooth="yes"/>
      <point x="1219" y="1347"/>
      <point x="1041" y="1556"/>
      <point x="782" y="1556" type="curve" smooth="yes"/>
      <point x="523" y="1556"/>
      <point x="279" y="1347"/>
    </contour>
    <contour>
      <point x="686" y="954" type="curve" smooth="yes"/>
      <point x="599" y="954"/>
      <point x="543" y="1004"/>
      <point x="562" y="1102" type="curve" smooth="yes"/>
      <point x="578" y="1195"/>
      <point x="645" y="1245"/>
      <point x="734" y="1246" type="curve" smooth="yes"/>
      <point x="808" y="1245"/>
      <point x="866" y="1199"/>
      <point x="852" y="1102" type="curve" smooth="yes"/>
      <point x="838" y="1003"/>
      <point x="764" y="954"/>
    </contour>
  </outline>
</glyph>
<glyph name="thook" format="2">
  <advance width="832"/>
  <unicode hex="01AD"/>
  <anchor x="669" y="1118" name="_topr"/>
  <anchor x="372" y="0" name="bottom"/>
  <anchor x="539" y="1542" name="top"/>
  <anchor x="669" y="1118" name="topr"/>
  <outline>
    <contour>
      <point x="458" y="-17" type="curve" smooth="yes"/>
      <point x="530" y="-17"/>
      <point x="603" y="-7"/>
      <point x="699" y="18" type="curve"/>
      <point x="688" y="302" type="line"/>
      <point x="672" y="297"/>
      <point x="632" y="290"/>
      <point x="608" y="290" type="curve" smooth="yes"/>
      <point x="555" y="290"/>
      <point x="536" y="313"/>
      <point x="544" y="360" type="curve" smooth="yes"/>
      <point x="648" y="990" type="line"/>
      <point x="246" y="990" type="line"/>
      <point x="135" y="322" type="line" smooth="yes"/>
      <point x="98" y="99"/>
      <point x="207" y="-17"/>
    </contour>
    <contour>
      <point x="77" y="826" type="line"/>
      <point x="813" y="826" type="line"/>
      <point x="861" y="1118" type="line"/>
      <point x="125" y="1118" type="line"/>
    </contour>
    <component base="_part.top_r_hook" xOffset="76"/>
  </outline>
</glyph>
<glyph name="Trthook" format="2">
  <advance width="1406"/>
  <unicode hex="01AE"/>
  <anchor x="610" y="0" name="bottom"/>
  <anchor x="812" y="0" name="bottomr"/>
  <anchor x="603" y="0" name="cedilla"/>
  <anchor x="720" y="666" name="cross"/>
  <anchor x="812" y="0" name="cyrtic"/>
  <anchor x="763" y="0" name="right"/>
  <anchor x="857" y="1490" name="top"/>
  <outline>
    <contour>
      <point x="808" y="0" type="line"/>
      <point x="410" y="0" type="line"/>
      <point x="404" y="-32" type="line" smooth="yes"/>
      <point x="346" y="-384"/>
      <point x="567" y="-419"/>
      <point x="780" y="-418" type="curve"/>
      <point x="954" y="-418" type="line"/>
      <point x="1004" y="-120" type="line"/>
      <point x="936" y="-120" type="line"/>
      <point x="867" y="-119"/>
      <point x="791" y="-102"/>
      <point x="802" y="-34" type="curve" smooth="yes"/>
    </contour>
    <component base="T"/>
  </outline>
</glyph>
<glyph name="Uhorn" format="2">
  <advance width="1478"/>
  <unicode hex="01AF"/>
  <anchor x="645" y="0" name="bottom"/>
  <anchor x="1376" y="523" name="ogonek"/>
  <anchor x="773" y="0" name="right"/>
  <anchor x="1132" y="1490" name="rtophorn"/>
  <anchor x="892" y="1490" name="top"/>
  <outline>
    <contour>
      <point x="1092" y="1250" type="line"/>
      <point x="1404" y="1250" type="line" smooth="yes"/>
      <point x="1548" y="1250"/>
      <point x="1674" y="1324"/>
      <point x="1702" y="1490" type="curve" smooth="yes"/>
      <point x="1736" y="1698" type="line"/>
      <point x="1388" y="1698" type="line"/>
      <point x="1359" y="1522" type="line" smooth="yes"/>
      <point x="1355" y="1501"/>
      <point x="1343" y="1490"/>
      <point x="1322" y="1490" type="curve" smooth="yes"/>
      <point x="1132" y="1490" type="line"/>
    </contour>
    <component base="U"/>
  </outline>
</glyph>
<glyph name="uhorn" format="2">
  <advance width="1420"/>
  <unicode hex="01B0"/>
  <anchor x="589" y="0" name="bottom"/>
  <anchor x="1136" y="0" name="ogonek"/>
  <anchor x="919" y="1118" name="rtophorn"/>
  <anchor x="759" y="1118" name="top"/>
  <outline>
    <contour>
      <point x="1046" y="878" type="line"/>
      <point x="1182" y="878" type="line" smooth="yes"/>
      <point x="1326" y="878"/>
      <point x="1453" y="952"/>
      <point x="1480" y="1118" type="curve" smooth="yes"/>
      <point x="1521" y="1366" type="line"/>
      <point x="1221" y="1366" type="line"/>
      <point x="1185" y="1150" type="line" smooth="yes"/>
      <point x="1182" y="1129"/>
      <point x="1169" y="1118"/>
      <point x="1148" y="1118" type="curve" smooth="yes"/>
      <point x="1086" y="1118" type="line"/>
    </contour>
    <component base="u"/>
  </outline>
</glyph>
<glyph name="Upsilon2" format="2">
  <advance width="1618"/>
  <unicode hex="01B1"/>
  <outline>
    <contour>
      <point x="90" y="666" type="curve" smooth="yes"/>
      <point x="23" y="265"/>
      <point x="282" y="-20"/>
      <point x="712" y="-20" type="curve" smooth="yes"/>
      <point x="1143" y="-20"/>
      <point x="1495" y="265"/>
      <point x="1562" y="666" type="curve" smooth="yes"/>
      <point x="1600" y="893"/>
      <point x="1527" y="1053"/>
      <point x="1388" y="1154" type="curve"/>
      <point x="1388" y="1164" type="line"/>
      <point x="1644" y="1164" type="line"/>
      <point x="1698" y="1490" type="line"/>
      <point x="1068" y="1490" type="line"/>
      <point x="1000" y="1082" type="line"/>
      <point x="1126" y="1030"/>
      <point x="1184" y="881"/>
      <point x="1154" y="706" type="curve" smooth="yes"/>
      <point x="1120" y="489"/>
      <point x="960" y="335"/>
      <point x="770" y="334" type="curve" smooth="yes"/>
      <point x="582" y="335"/>
      <point x="474" y="489"/>
      <point x="510" y="706" type="curve" smooth="yes"/>
      <point x="538" y="881"/>
      <point x="649" y="1030"/>
      <point x="792" y="1082" type="curve"/>
      <point x="858" y="1490" type="line"/>
      <point x="226" y="1490" type="line"/>
      <point x="172" y="1164" type="line"/>
      <point x="428" y="1164" type="line"/>
      <point x="424" y="1152" type="line"/>
      <point x="253" y="1053"/>
      <point x="128" y="893"/>
    </contour>
  </outline>
</glyph>
<glyph name="Vcursive" format="2">
  <advance width="1420"/>
  <unicode hex="01B2"/>
  <outline>
    <contour>
      <point x="616" y="-20" type="curve" smooth="yes"/>
      <point x="990" y="-20"/>
      <point x="1259" y="177"/>
      <point x="1314" y="520" type="curve" smooth="yes"/>
      <point x="1402" y="1058" type="line" smooth="yes"/>
      <point x="1449" y="1351"/>
      <point x="1316" y="1510"/>
      <point x="1022" y="1510" type="curve" smooth="yes"/>
      <point x="971" y="1510"/>
      <point x="920" y="1505"/>
      <point x="856" y="1492" type="curve"/>
      <point x="802" y="1182" type="line"/>
      <point x="847" y="1187"/>
      <point x="879" y="1190"/>
      <point x="910" y="1190" type="curve" smooth="yes"/>
      <point x="1010" y="1190"/>
      <point x="1023" y="1161"/>
      <point x="1006" y="1058" type="curve" smooth="yes"/>
      <point x="920" y="520" type="line" smooth="yes"/>
      <point x="896" y="378"/>
      <point x="830" y="291"/>
      <point x="670" y="290" type="curve" smooth="yes"/>
      <point x="507" y="291"/>
      <point x="463" y="378"/>
      <point x="486" y="520" type="curve" smooth="yes"/>
      <point x="646" y="1490" type="line"/>
      <point x="256" y="1490" type="line"/>
      <point x="96" y="520" type="line" smooth="yes"/>
      <point x="39" y="175"/>
      <point x="254" y="-20"/>
    </contour>
  </outline>
</glyph>
<glyph name="Yhook" format="2">
  <advance width="1730"/>
  <unicode hex="01B3"/>
  <outline>
    <contour>
      <point x="890" y="850" type="line"/>
      <point x="926" y="850" type="line"/>
      <point x="930" y="884" type="line"/>
      <point x="896" y="884" type="line"/>
    </contour>
    <contour>
      <point x="206" y="1490" type="line"/>
      <point x="658" y="550" type="line"/>
      <point x="564" y="0" type="line"/>
      <point x="966" y="0" type="line"/>
      <point x="1058" y="550" type="line"/>
      <point x="1484" y="1068" type="line" smooth="yes"/>
      <point x="1568" y="1171"/>
      <point x="1616" y="1204"/>
      <point x="1728" y="1172" type="curve"/>
      <point x="1858" y="1470" type="line"/>
      <point x="1660" y="1542"/>
      <point x="1409" y="1521"/>
      <point x="1216" y="1268" type="curve" smooth="yes"/>
      <point x="910" y="870" type="line"/>
      <point x="640" y="1490" type="line"/>
    </contour>
  </outline>
</glyph>
<glyph name="yhook" format="2">
  <advance width="1548"/>
  <unicode hex="01B4"/>
  <anchor x="942" y="0" name="bottom"/>
  <anchor x="773" y="0" name="ogonek"/>
  <anchor x="748" y="1118" name="top"/>
  <outline>
    <contour>
      <point x="964" y="1118" type="line"/>
      <point x="1386" y="1118" type="line"/>
      <point x="1390" y="1125" type="line" smooth="yes"/>
      <point x="1422" y="1180"/>
      <point x="1439" y="1216"/>
      <point x="1527" y="1216" type="curve" smooth="yes"/>
      <point x="1556" y="1216"/>
      <point x="1592" y="1214"/>
      <point x="1631" y="1209" type="curve"/>
      <point x="1661" y="1477" type="line"/>
      <point x="1605" y="1493"/>
      <point x="1545" y="1504"/>
      <point x="1462" y="1504" type="curve" smooth="yes"/>
      <point x="1191" y="1504"/>
      <point x="1095" y="1379"/>
      <point x="979" y="1148" type="curve" smooth="yes"/>
    </contour>
    <component base="y"/>
  </outline>
</glyph>
<glyph name="Ezh" format="2">
  <advance width="1414"/>
  <unicode hex="01B7"/>
  <anchor x="894" y="1676" name="top"/>
  <outline>
    <contour>
      <point x="-14" y="136" type="line"/>
      <point x="-64" y="-199"/>
      <point x="168" y="-442"/>
      <point x="540" y="-442" type="curve" smooth="yes"/>
      <point x="922" y="-442"/>
      <point x="1247" y="-164"/>
      <point x="1310" y="222" type="curve" smooth="yes"/>
      <point x="1362" y="534"/>
      <point x="1204" y="759"/>
      <point x="908" y="792" type="curve"/>
      <point x="912" y="806" type="line"/>
      <point x="1434" y="1198" type="line"/>
      <point x="1482" y="1490" type="line"/>
      <point x="292" y="1490" type="line"/>
      <point x="236" y="1158" type="line"/>
      <point x="940" y="1158" type="line"/>
      <point x="940" y="1146" type="line"/>
      <point x="526" y="832" type="line"/>
      <point x="480" y="552" type="line"/>
      <point x="674" y="552" type="line" smooth="yes"/>
      <point x="829" y="553"/>
      <point x="918" y="425"/>
      <point x="884" y="214" type="curve" smooth="yes"/>
      <point x="853" y="26"/>
      <point x="744" y="-108"/>
      <point x="588" y="-108" type="curve" smooth="yes"/>
      <point x="456" y="-108"/>
      <point x="376" y="-9"/>
      <point x="394" y="136" type="curve"/>
    </contour>
  </outline>
</glyph>
<glyph name="Ezhreversed" format="2">
  <advance width="1414"/>
  <unicode hex="01B8"/>
  <anchor x="890" y="1676" name="top"/>
  <outline>
    <contour>
      <point x="1288" y="136" type="curve"/>
      <point x="880" y="136" type="line"/>
      <point x="850" y="-9"/>
      <point x="736" y="-108"/>
      <point x="604" y="-108" type="curve" smooth="yes"/>
      <point x="449" y="-108"/>
      <point x="385" y="26"/>
      <point x="416" y="214" type="curve" smooth="yes"/>
      <point x="451" y="425"/>
      <point x="583" y="553"/>
      <point x="736" y="552" type="curve" smooth="yes"/>
      <point x="930" y="552" type="line"/>
      <point x="978" y="832" type="line"/>
      <point x="670" y="1146" type="line"/>
      <point x="670" y="1158" type="line"/>
      <point x="1374" y="1158" type="line"/>
      <point x="1430" y="1490" type="line"/>
      <point x="240" y="1490" type="line"/>
      <point x="192" y="1198" type="line"/>
      <point x="584" y="806" type="line"/>
      <point x="580" y="792" type="line"/>
      <point x="276" y="759"/>
      <point x="44" y="534"/>
      <point x="-8" y="222" type="curve" smooth="yes"/>
      <point x="-71" y="-164"/>
      <point x="160" y="-442"/>
      <point x="542" y="-442" type="curve" smooth="yes"/>
      <point x="913" y="-442"/>
      <point x="1225" y="-199"/>
    </contour>
  </outline>
</glyph>
<glyph name="ezhreversed" format="2">
  <advance width="1371"/>
  <unicode hex="01B9"/>
  <anchor x="773" y="1118" name="top"/>
  <outline>
    <contour>
      <point x="529" y="-392" type="curve" smooth="yes"/>
      <point x="897" y="-392"/>
      <point x="1166" y="-195"/>
      <point x="1216" y="82" type="curve"/>
      <point x="810" y="82" type="line"/>
      <point x="791" y="-5"/>
      <point x="695" y="-66"/>
      <point x="583" y="-66" type="curve" smooth="yes"/>
      <point x="467" y="-66"/>
      <point x="406" y="2"/>
      <point x="421" y="90" type="curve" smooth="yes"/>
      <point x="437" y="188"/>
      <point x="534" y="244"/>
      <point x="658" y="244" type="curve" smooth="yes"/>
      <point x="846" y="244" type="line"/>
      <point x="891" y="512" type="line"/>
      <point x="634" y="786" type="line"/>
      <point x="635" y="794" type="line"/>
      <point x="1257" y="794" type="line"/>
      <point x="1311" y="1118" type="line"/>
      <point x="209" y="1118" type="line"/>
      <point x="161" y="826" type="line"/>
      <point x="504" y="474" type="line"/>
      <point x="502" y="462" type="line"/>
      <point x="143" y="419"/>
      <point x="15" y="221"/>
      <point x="-13" y="56" type="curve" smooth="yes"/>
      <point x="-58" y="-216"/>
      <point x="182" y="-392"/>
    </contour>
  </outline>
</glyph>
<glyph name="ezhtail" format="2">
  <advance width="1228"/>
  <unicode hex="01BA"/>
  <outline>
    <contour>
      <point x="265" y="1118" type="line" name="hr00"/>
      <point x="215" y="818" type="line"/>
      <point x="567" y="818" type="line"/>
      <point x="352" y="664" type="line"/>
      <point x="317" y="454" type="line"/>
      <point x="539" y="454" type="line"/>
      <point x="1154" y="906" type="line"/>
      <point x="1189" y="1118" type="line"/>
    </contour>
    <contour>
      <point x="367" y="-116" type="curve" smooth="yes"/>
      <point x="374" y="-73"/>
      <point x="427" y="-42"/>
      <point x="570" y="-10" type="curve" smooth="yes"/>
      <point x="802" y="42"/>
      <point x="1025" y="140"/>
      <point x="1060" y="350" type="curve" smooth="yes"/>
      <point x="1091" y="535"/>
      <point x="948" y="698"/>
      <point x="646" y="698" type="curve" smooth="yes"/>
      <point x="470" y="698" type="line"/>
      <point x="429" y="454" type="line"/>
      <point x="605" y="454" type="line" smooth="yes"/>
      <point x="672" y="454"/>
      <point x="716" y="423"/>
      <point x="707" y="368" type="curve" smooth="yes"/>
      <point x="695" y="297"/>
      <point x="610" y="272"/>
      <point x="490" y="252" type="curve" smooth="yes"/>
      <point x="182" y="199"/>
      <point x="37" y="93"/>
      <point x="6" y="-94" type="curve" smooth="yes"/>
      <point x="-28" y="-300"/>
      <point x="148" y="-442"/>
      <point x="457" y="-442" type="curve" smooth="yes"/>
      <point x="785" y="-442"/>
      <point x="995" y="-244"/>
      <point x="1024" y="-72" type="curve"/>
      <point x="676" y="-72" type="line"/>
      <point x="656" y="-166"/>
      <point x="570" y="-192"/>
      <point x="486" y="-192" type="curve" smooth="yes"/>
      <point x="416" y="-192"/>
      <point x="358" y="-172"/>
    </contour>
  </outline>
</glyph>
<glyph name="Tonefive" format="2">
  <advance width="1347"/>
  <unicode hex="01BC"/>
  <outline>
    <contour>
      <point x="532" y="1490" type="line"/>
      <point x="210" y="1490" type="line"/>
      <point x="156" y="1166" type="line"/>
      <point x="478" y="1166" type="line"/>
    </contour>
    <component base="five" xOffset="22"/>
  </outline>
</glyph>
<glyph name="tonefive" format="2">
  <advance width="1498"/>
  <unicode hex="01BD"/>
  <outline>
    <contour>
      <point x="634" y="454" type="line" name="hr00"/>
      <point x="657" y="463"/>
      <point x="703" y="465"/>
      <point x="774" y="466" type="curve" smooth="yes"/>
      <point x="866" y="465"/>
      <point x="919" y="431"/>
      <point x="910" y="378" type="curve" smooth="yes"/>
      <point x="898" y="317"/>
      <point x="846" y="285"/>
      <point x="750" y="286" type="curve" smooth="yes"/>
      <point x="654" y="285"/>
      <point x="599" y="297"/>
      <point x="596" y="346" type="curve"/>
      <point x="218" y="334" type="line"/>
      <point x="177" y="84"/>
      <point x="409" y="-17"/>
      <point x="702" y="-18" type="curve" smooth="yes"/>
      <point x="1067" y="-17"/>
      <point x="1244" y="134"/>
      <point x="1280" y="344" type="curve" smooth="yes"/>
      <point x="1314" y="564"/>
      <point x="1186" y="695"/>
      <point x="928" y="696" type="curve" smooth="yes"/>
      <point x="820" y="695"/>
      <point x="738" y="675"/>
      <point x="686" y="654" type="curve"/>
      <point x="738" y="798" type="line"/>
      <point x="1266" y="798" type="line"/>
      <point x="1312" y="1082" type="line"/>
      <point x="482" y="1082" type="line"/>
      <point x="290" y="466" type="line"/>
    </contour>
    <contour>
      <point x="600" y="1082" type="line"/>
      <point x="270" y="1082" type="line"/>
      <point x="224" y="798" type="line"/>
      <point x="552" y="798" type="line"/>
    </contour>
  </outline>
</glyph>
<glyph name="glottalstopbarinv" format="2">
  <advance width="1228"/>
  <unicode hex="01BE"/>
  <outline>
    <contour>
      <point x="718" y="312" type="curve" smooth="yes" name="hr00"/>
      <point x="711" y="253"/>
      <point x="650" y="230"/>
      <point x="570" y="230" type="curve" smooth="yes"/>
      <point x="490" y="230"/>
      <point x="415" y="259"/>
      <point x="422" y="350" type="curve"/>
      <point x="72" y="350" type="line"/>
      <point x="48" y="183"/>
      <point x="191" y="-20"/>
      <point x="520" y="-20" type="curve" smooth="yes"/>
      <point x="831" y="-20"/>
      <point x="1049" y="125"/>
      <point x="1080" y="318" type="curve" smooth="yes"/>
      <point x="1139" y="663"/>
      <point x="749" y="532"/>
      <point x="798" y="838" type="curve" smooth="yes"/>
      <point x="884" y="1358" type="line"/>
      <point x="506" y="1358" type="line"/>
      <point x="418" y="846" type="line" smooth="yes"/>
      <point x="351" y="416"/>
      <point x="743" y="454"/>
    </contour>
    <contour>
      <point x="1022" y="1082" type="line"/>
      <point x="326" y="1082" type="line"/>
      <point x="282" y="814" type="line"/>
      <point x="978" y="814" type="line"/>
    </contour>
  </outline>
</glyph>
<glyph name="wynn" format="2">
  <advance width="1440"/>
  <unicode hex="01BF"/>
  <outline>
    <contour>
      <point x="618" y="910" type="line"/>
      <point x="626" y="1118" type="line"/>
      <point x="270" y="1118" type="line"/>
      <point x="44" y="-416" type="line"/>
      <point x="422" y="-416" type="line"/>
    </contour>
    <contour>
      <point x="546" y="574" type="line"/>
      <point x="561" y="762"/>
      <point x="615" y="835"/>
      <point x="760" y="834" type="curve" smooth="yes"/>
      <point x="889" y="835"/>
      <point x="899" y="722"/>
      <point x="882" y="588" type="curve" smooth="yes"/>
      <point x="874" y="532" type="line" smooth="yes"/>
      <point x="838" y="255"/>
      <point x="613" y="90"/>
      <point x="324" y="82" type="curve"/>
      <point x="324" y="-212" type="line"/>
      <point x="870" y="-99"/>
      <point x="1196" y="104"/>
      <point x="1252" y="532" type="curve" smooth="yes"/>
      <point x="1260" y="588" type="line" smooth="yes"/>
      <point x="1303" y="914"/>
      <point x="1183" y="1132"/>
      <point x="898" y="1132" type="curve" smooth="yes"/>
      <point x="621" y="1132"/>
      <point x="486" y="867"/>
      <point x="398" y="570" type="curve"/>
    </contour>
  </outline>
</glyph>
<glyph name="pipe" format="2">
  <advance width="660"/>
  <unicode hex="01C0"/>
  <outline>
    <contour>
      <point x="574" y="1446" type="line"/>
      <point x="378" y="1446" type="line"/>
      <point x="140" y="0" type="line"/>
      <point x="334" y="0" type="line"/>
    </contour>
  </outline>
</glyph>
<glyph name="uni01F6" format="2">
  <advance width="2312"/>
  <unicode hex="01F6"/>
  <outline>
    <contour>
      <point x="1550" y="-20" type="curve" smooth="yes"/>
      <point x="1905" y="-20"/>
      <point x="2147" y="173"/>
      <point x="2201" y="507" type="curve" smooth="yes"/>
      <point x="2294" y="1068" type="line"/>
      <point x="1890" y="1068" type="line"/>
      <point x="1802" y="533" type="line" smooth="yes"/>
      <point x="1780" y="403"/>
      <point x="1685" y="312"/>
      <point x="1562" y="312" type="curve" smooth="yes"/>
      <point x="1458" y="312"/>
      <point x="1410" y="377"/>
      <point x="1431" y="507" type="curve" smooth="yes"/>
      <point x="1594" y="1490" type="line"/>
      <point x="1190" y="1490" type="line"/>
      <point x="1094" y="908" type="line"/>
      <point x="558" y="908" type="line"/>
      <point x="654" y="1490" type="line"/>
      <point x="250" y="1490" type="line"/>
      <point x="3" y="0" type="line"/>
      <point x="407" y="0" type="line"/>
      <point x="504" y="582" type="line"/>
      <point x="1040" y="582" type="line"/>
      <point x="1032" y="533" type="line" smooth="yes"/>
      <point x="976" y="199"/>
      <point x="1175" y="-20"/>
    </contour>
  </outline>
</glyph>
<glyph name="uni01F7" format="2">
  <advance width="1690"/>
  <unicode hex="01F7"/>
  <outline>
    <contour>
      <point x="744" y="1486" type="line"/>
      <point x="358" y="1486" type="line"/>
      <point x="46" y="-418" type="line"/>
      <point x="434" y="-418" type="line"/>
    </contour>
    <contour>
      <point x="306" y="-192" type="line"/>
      <point x="1057" y="29"/>
      <point x="1428" y="363"/>
      <point x="1520" y="774" type="curve" smooth="yes"/>
      <point x="1532" y="826" type="line" smooth="yes"/>
      <point x="1627" y="1255"/>
      <point x="1370" y="1507"/>
      <point x="1006" y="1506" type="curve" smooth="yes"/>
      <point x="823" y="1507"/>
      <point x="688" y="1449"/>
      <point x="616" y="1374" type="curve"/>
      <point x="546" y="960" type="line"/>
      <point x="618" y="1088"/>
      <point x="796" y="1196"/>
      <point x="958" y="1196" type="curve" smooth="yes"/>
      <point x="1180" y="1196"/>
      <point x="1161" y="976"/>
      <point x="1130" y="830" type="curve" smooth="yes"/>
      <point x="1118" y="774" type="line" smooth="yes"/>
      <point x="1055" y="471"/>
      <point x="816" y="282"/>
      <point x="358" y="126" type="curve"/>
    </contour>
  </outline>
</glyph>
<glyph name="uni021C" format="2">
  <advance width="1426"/>
  <unicode hex="021C"/>
  <outline>
    <contour>
      <point x="206" y="306" type="line"/>
      <point x="1007" y="495"/>
      <point x="1305" y="706"/>
      <point x="1364" y="1062" type="curve" smooth="yes"/>
      <point x="1415" y="1370"/>
      <point x="1214" y="1510"/>
      <point x="848" y="1510" type="curve" smooth="yes"/>
      <point x="514" y="1510"/>
      <point x="255" y="1335"/>
      <point x="214" y="1088" type="curve"/>
      <point x="604" y="1088" type="line"/>
      <point x="615" y="1157"/>
      <point x="684" y="1199"/>
      <point x="796" y="1198" type="curve" smooth="yes"/>
      <point x="933" y="1199"/>
      <point x="991" y="1145"/>
      <point x="968" y="1006" type="curve" smooth="yes"/>
      <point x="936" y="827"/>
      <point x="812" y="755"/>
      <point x="254" y="600" type="curve"/>
    </contour>
    <contour>
      <point x="712" y="504" type="line"/>
      <point x="860" y="524"/>
      <point x="901" y="495"/>
      <point x="880" y="366" type="curve" smooth="yes"/>
      <point x="841" y="133"/>
      <point x="562" y="-52"/>
      <point x="134" y="-128" type="curve"/>
      <point x="82" y="-436" type="line"/>
      <point x="727" y="-373"/>
      <point x="1200" y="-56"/>
      <point x="1268" y="358" type="curve" smooth="yes"/>
      <point x="1311" y="612"/>
      <point x="1114" y="759"/>
      <point x="788" y="734" type="curve"/>
    </contour>
  </outline>
</glyph>
<glyph name="uni021D" format="2">
  <advance width="1230"/>
  <unicode hex="021D"/>
  <outline>
    <contour>
      <point x="192" y="120" type="line"/>
      <point x="799" y="290"/>
      <point x="1081" y="488"/>
      <point x="1128" y="774" type="curve" smooth="yes"/>
      <point x="1169" y="1012"/>
      <point x="1012" y="1132"/>
      <point x="692" y="1132" type="curve" smooth="yes"/>
      <point x="379" y="1132"/>
      <point x="187" y="994"/>
      <point x="150" y="762" type="curve"/>
      <point x="528" y="762" type="line"/>
      <point x="537" y="823"/>
      <point x="577" y="858"/>
      <point x="650" y="858" type="curve" smooth="yes"/>
      <point x="727" y="858"/>
      <point x="761" y="821"/>
      <point x="746" y="738" type="curve" smooth="yes"/>
      <point x="721" y="593"/>
      <point x="600" y="509"/>
      <point x="236" y="386" type="curve"/>
    </contour>
    <contour>
      <point x="554" y="360" type="line"/>
      <point x="640" y="379"/>
      <point x="696" y="324"/>
      <point x="678" y="216" type="curve" smooth="yes"/>
      <point x="655" y="79"/>
      <point x="529" y="-17"/>
      <point x="146" y="-166" type="curve"/>
      <point x="100" y="-436" type="line"/>
      <point x="682" y="-303"/>
      <point x="1006" y="-88"/>
      <point x="1054" y="196" type="curve" smooth="yes"/>
      <point x="1090" y="418"/>
      <point x="932" y="528"/>
      <point x="610" y="504" type="curve"/>
    </contour>
  </outline>
</glyph>
<glyph name="uni0220" format="2">
  <advance width="1432"/>
  <unicode hex="0220"/>
  <outline>
    <contour>
      <point x="1122" y="-416" type="line"/>
      <point x="1370" y="1088" type="line" smooth="yes"/>
      <point x="1413" y="1347"/>
      <point x="1228" y="1510"/>
      <point x="954" y="1510" type="curve" smooth="yes"/>
      <point x="693" y="1510"/>
      <point x="488" y="1364"/>
      <point x="350" y="1218" type="curve"/>
      <point x="288" y="862" type="line"/>
      <point x="491" y="1100"/>
      <point x="674" y="1213"/>
      <point x="848" y="1214" type="curve" smooth="yes"/>
      <point x="977" y="1213"/>
      <point x="999" y="1152"/>
      <point x="990" y="1088" type="curve" smooth="yes"/>
      <point x="742" y="-416" type="line"/>
    </contour>
    <contour>
      <point x="684" y="1490" type="line"/>
      <point x="306" y="1490" type="line"/>
      <point x="58" y="0" type="line"/>
      <point x="436" y="0" type="line"/>
    </contour>
  </outline>
</glyph>
<glyph name="uni0222" format="2">
  <advance width="1428"/>
  <unicode hex="0222"/>
  <outline>
    <contour>
      <point x="770" y="954" type="line"/>
      <point x="399" y="954"/>
      <point x="156" y="782"/>
      <point x="108" y="482" type="curve" smooth="yes"/>
      <point x="58" y="178"/>
      <point x="255" y="-20"/>
      <point x="610" y="-20" type="curve" smooth="yes"/>
      <point x="630" y="-20" type="line" smooth="yes"/>
      <point x="981" y="-20"/>
      <point x="1241" y="178"/>
      <point x="1294" y="486" type="curve" smooth="yes"/>
      <point x="1343" y="782"/>
      <point x="1157" y="954"/>
      <point x="792" y="954" type="curve" smooth="yes"/>
    </contour>
    <contour>
      <point x="746" y="684" type="line"/>
      <point x="857" y="684"/>
      <point x="913" y="608"/>
      <point x="894" y="486" type="curve" smooth="yes"/>
      <point x="875" y="360"/>
      <point x="791" y="285"/>
      <point x="680" y="286" type="curve" smooth="yes"/>
      <point x="660" y="286" type="line" smooth="yes"/>
      <point x="547" y="285"/>
      <point x="486" y="364"/>
      <point x="506" y="482" type="curve" smooth="yes"/>
      <point x="527" y="605"/>
      <point x="612" y="684"/>
      <point x="726" y="684" type="curve" smooth="yes"/>
    </contour>
    <contour>
      <point x="776" y="998" type="line"/>
      <point x="644" y="998"/>
      <point x="596" y="1018"/>
      <point x="610" y="1114" type="curve" smooth="yes"/>
      <point x="620" y="1170"/>
      <point x="642" y="1198"/>
      <point x="700" y="1208" type="curve"/>
      <point x="750" y="1510" type="line"/>
      <point x="447" y="1516"/>
      <point x="253" y="1365"/>
      <point x="212" y="1114" type="curve" smooth="yes"/>
      <point x="171" y="859"/>
      <point x="357" y="730"/>
      <point x="730" y="730" type="curve" smooth="yes"/>
      <point x="750" y="730" type="line" smooth="yes"/>
      <point x="1124" y="730"/>
      <point x="1361" y="861"/>
      <point x="1402" y="1114" type="curve" smooth="yes"/>
      <point x="1443" y="1363"/>
      <point x="1296" y="1516"/>
      <point x="994" y="1510" type="curve"/>
      <point x="944" y="1208" type="line"/>
      <point x="996" y="1197"/>
      <point x="1012" y="1169"/>
      <point x="1004" y="1114" type="curve" smooth="yes"/>
      <point x="990" y="1021"/>
      <point x="928" y="998"/>
      <point x="796" y="998" type="curve" smooth="yes"/>
    </contour>
  </outline>
</glyph>
<glyph name="zhook" format="2">
  <advance width="1208"/>
  <unicode hex="0225"/>
  <outline>
    <contour>
      <point x="715.998" y="-296" type="line"/>
      <point x="1041.998" y="-296" type="line"/>
      <point x="1067" y="-142" type="line" smooth="yes"/>
      <point x="1115.005" y="145"/>
      <point x="1006" y="306"/>
      <point x="762" y="306" type="curve" smooth="yes"/>
      <point x="590" y="306" type="line"/>
      <point x="591" y="312" type="line"/>
      <point x="1127" y="872" type="line"/>
      <point x="1168" y="1118" type="line"/>
      <point x="222" y="1118" type="line"/>
      <point x="171" y="812" type="line"/>
      <point x="643" y="812" type="line"/>
      <point x="642" y="806" type="line"/>
      <point x="58" y="222" type="line"/>
      <point x="21" y="0" type="line"/>
      <point x="631" y="0" type="line" smooth="yes"/>
      <point x="724" y="0"/>
      <point x="758" y="-43"/>
      <point x="741" y="-142" type="curve" smooth="yes"/>
    </contour>
  </outline>
</glyph>
<glyph name="jdotless" format="2">
  <advance width="606"/>
  <unicode hex="0237"/>
  <anchor x="355" y="0" name="_right"/>
  <anchor x="85" y="-398" name="bottom"/>
  <anchor x="323" y="686" name="cross"/>
  <anchor x="395" y="1118" name="top"/>
  <outline>
    <contour>
      <point x="194" y="1118" type="line"/>
      <point x="4" y="-30" type="line" smooth="yes"/>
      <point x="-7" y="-94"/>
      <point x="-40" y="-122"/>
      <point x="-137" y="-122" type="curve" smooth="yes"/>
      <point x="-183" y="-122" type="line"/>
      <point x="-232" y="-418" type="line"/>
      <point x="-150" y="-418" type="line" smooth="yes"/>
      <point x="144" y="-418"/>
      <point x="356" y="-332"/>
      <point x="405" y="-38" type="curve" smooth="yes"/>
      <point x="596" y="1118" type="line"/>
    </contour>
  </outline>
</glyph>
<glyph name="uni0238" format="2">
  <advance width="2018"/>
  <unicode hex="0238"/>
  <outline>
    <contour>
      <point x="1890" y="564" type="line" smooth="yes"/>
      <point x="1938" y="906"/>
      <point x="1820" y="1132"/>
      <point x="1560" y="1132" type="curve" smooth="yes"/>
      <point x="1273" y="1132"/>
      <point x="1122" y="870"/>
      <point x="1022" y="546" type="curve"/>
      <point x="1022" y="542" type="line"/>
      <point x="1020" y="247"/>
      <point x="1083" y="-20"/>
      <point x="1370" y="-20" type="curve" smooth="yes"/>
      <point x="1630" y="-20"/>
      <point x="1831" y="212"/>
      <point x="1886" y="544" type="curve"/>
    </contour>
    <contour>
      <point x="1508" y="544" type="line" smooth="yes"/>
      <point x="1487" y="398"/>
      <point x="1444" y="279"/>
      <point x="1304" y="280" type="curve" smooth="yes"/>
      <point x="1185" y="279"/>
      <point x="1140" y="369"/>
      <point x="1164" y="536" type="curve" smooth="yes"/>
      <point x="1166" y="556" type="line" smooth="yes"/>
      <point x="1193" y="740"/>
      <point x="1277" y="835"/>
      <point x="1396" y="834" type="curve" smooth="yes"/>
      <point x="1519" y="835"/>
      <point x="1539" y="733"/>
      <point x="1512" y="564" type="curve"/>
    </contour>
    <contour>
      <point x="772" y="262" type="line"/>
      <point x="766" y="0" type="line"/>
      <point x="1106" y="0" type="line"/>
      <point x="1354" y="1490" type="line"/>
      <point x="976" y="1490" type="line"/>
    </contour>
    <contour>
      <point x="130" y="544" type="line"/>
      <point x="74" y="212"/>
      <point x="199" y="-20"/>
      <point x="456" y="-20" type="curve" smooth="yes"/>
      <point x="745" y="-20"/>
      <point x="897" y="247"/>
      <point x="992" y="542" type="curve"/>
      <point x="994" y="546" type="line"/>
      <point x="1000" y="870"/>
      <point x="936" y="1132"/>
      <point x="652" y="1132" type="curve" smooth="yes"/>
      <point x="389" y="1132"/>
      <point x="181" y="906"/>
      <point x="132" y="564" type="curve" smooth="yes"/>
    </contour>
    <contour>
      <point x="510" y="564" type="line"/>
      <point x="538" y="733"/>
      <point x="593" y="835"/>
      <point x="716" y="834" type="curve" smooth="yes"/>
      <point x="835" y="835"/>
      <point x="879" y="740"/>
      <point x="852" y="556" type="curve" smooth="yes"/>
      <point x="850" y="536" type="line" smooth="yes"/>
      <point x="825" y="369"/>
      <point x="743" y="279"/>
      <point x="624" y="280" type="curve" smooth="yes"/>
      <point x="484" y="279"/>
      <point x="487" y="398"/>
      <point x="508" y="544" type="curve" smooth="yes"/>
    </contour>
  </outline>
</glyph>
